<svg width="14" height="12" viewBox="0 0 14 12" fill="none" xmlns="http://www.w3.org/2000/svg">
<path d="M4.66667 6C4.66667 4.73672 5.68993 3.75 7 3.75C8.28819 3.75 9.33333 4.73672 9.33333 6C9.33333 7.24219 8.28819 8.25 7 8.25C5.68993 8.25 4.66667 7.24219 4.66667 6ZM0 3C0 2.17148 0.696354 1.5 1.55556 1.5H12.4444C13.3024 1.5 14 2.17148 14 3V9C14 9.82734 13.3024 10.5 12.4444 10.5H1.55556C0.696354 10.5 0 9.82734 0 9V3ZM1.16667 3V9C1.16667 9.20625 1.34069 9.375 1.55556 9.375H12.4444C12.6583 9.375 12.8333 9.20625 12.8333 9V3C12.8333 2.79375 12.6583 2.625 12.4444 2.625H1.55556C1.34069 2.625 1.16667 2.79375 1.16667 3Z" fill="#137749"/>
</svg>
