<svg width="14" height="14" viewBox="0 0 14 14" fill="none" xmlns="http://www.w3.org/2000/svg">
<path d="M14 8.1464C14 7.91559 13.8081 7.72845 13.5713 7.72845H12.7133V2.03C12.7133 0.910658 11.7792 0 10.6311 0C9.48301 0 8.54894 0.910658 8.54894 2.03V2.79191C8.54894 3.02272 8.7409 3.20986 8.97764 3.20986C9.21438 3.20986 9.40633 3.02272 9.40633 2.79191V2.03C9.40633 1.37156 9.95576 0.8359 10.6311 0.8359C11.3065 0.8359 11.8559 1.37156 11.8559 2.03V7.72843H0.428693C0.191951 7.72843 0 7.91557 0 8.14638C0 10.0327 1.2237 11.6453 2.93771 12.27C2.608 12.608 2.40407 13.0713 2.40407 13.582C2.40407 13.8129 2.59602 14 2.83276 14C3.06951 14 3.26146 13.8129 3.26146 13.582C3.26146 13.0114 3.7081 12.5471 4.25714 12.5471C4.27731 12.5471 9.72272 12.5471 9.74289 12.5471C10.2919 12.5471 10.7386 13.0114 10.7386 13.582C10.7386 13.8129 10.9306 14 11.1673 14C11.404 14 11.596 13.8129 11.596 13.582C11.596 13.0713 11.392 12.608 11.0623 12.27C12.7763 11.6454 14 10.0327 14 8.1464ZM9.48621 11.7112H4.51382C2.64261 11.7112 1.09522 10.3338 0.882375 8.56435H13.1177C12.9048 10.3338 11.3574 11.7112 9.48621 11.7112Z" fill="#6B778C"/>
</svg>
