<?xml version="1.0"?>
<svg xmlns="http://www.w3.org/2000/svg" id="Icons" viewBox="0 0 60 60" width="18" height="18"><path d="M58,12H2a2,2,0,0,0-2,2V46a2,2,0,0,0,2,2H58a2,2,0,0,0,2-2V14A2,2,0,0,0,58,12ZM2,46V14H58l0,32Z"/><path d="M54.284,21.949a5.01,5.01,0,0,1-4.233-4.23A1.985,1.985,0,0,0,48.078,16H11.922a2.006,2.006,0,0,0-1.973,1.716A5.011,5.011,0,0,1,5.72,21.949,1.984,1.984,0,0,0,4,23.922V36.078a1.985,1.985,0,0,0,1.716,1.974,5.011,5.011,0,0,1,4.233,4.229A2.008,2.008,0,0,0,11.922,44H48.078a1.985,1.985,0,0,0,1.973-1.719,5.01,5.01,0,0,1,4.234-4.23A1.984,1.984,0,0,0,56,36.078V23.922A2.006,2.006,0,0,0,54.284,21.949ZM54,36.071a7.011,7.011,0,0,0-4.215,2.262A6.908,6.908,0,0,0,48.078,42l-36.15,0A7,7,0,0,0,6,36.078l0-12.15A7,7,0,0,0,11.922,18l36.15,0A7.01,7.01,0,0,0,54,23.929Z"/><path d="M12,26a4,4,0,1,0,4,4A4,4,0,0,0,12,26Zm0,6a2,2,0,1,1,2-2A2,2,0,0,1,12,32Z"/><path d="M44,30a4,4,0,1,0,4-4A4,4,0,0,0,44,30Zm6,0a2,2,0,1,1-2-2A2,2,0,0,1,50,30Z"/><path d="M30,20A10,10,0,1,0,40,30,10.011,10.011,0,0,0,30,20Zm0,18a8,8,0,1,1,8-8A8.009,8.009,0,0,1,30,38Z"/><path d="M30,29a1,1,0,1,1,.867-1.5,1,1,0,1,0,1.731-1A2.993,2.993,0,0,0,31,25.2V25a1,1,0,0,0-2,0v.184A2.993,2.993,0,0,0,30,31a1,1,0,1,1-.867,1.5,1,1,0,0,0-1.731,1,3,3,0,0,0,1.6,1.3V35a1,1,0,0,0,2,0v-.183A2.993,2.993,0,0,0,30,29Z"/></svg>
