<svg width="13" height="12" viewBox="0 0 13 12" fill="none" xmlns="http://www.w3.org/2000/svg">
<path d="M9.28958 11.9998H2.2892C1.46185 11.9998 0.789062 11.3272 0.789062 10.5V3.50084C0.789062 2.67364 1.46185 2.00098 2.2892 2.00098H6.28931C6.56528 2.00098 6.7896 2.22526 6.7896 2.50118C6.7896 2.77709 6.56601 3.00064 6.28931 3.00064H2.2892C2.01323 3.00064 1.78891 3.22493 1.78891 3.50084V10.5C1.78891 10.7759 2.01323 11.0002 2.2892 11.0002H9.28958C9.56555 11.0002 9.78987 10.7759 9.78987 10.5V6.49983C9.78987 6.22392 10.0135 6.00037 10.2902 6.00037C10.5661 6.00037 10.7904 6.22465 10.7904 6.50057V10.5C10.7897 11.3272 10.1169 11.9998 9.28958 11.9998Z" fill="white"/>
<path d="M9.4328 1.58789L5.47627 5.54389C5.44093 5.57904 5.41786 5.62335 5.40797 5.67132L5.05473 7.43886C5.03824 7.5207 5.0637 7.60547 5.12303 7.66461C5.17028 7.71184 5.234 7.73821 5.29993 7.73821C5.31567 7.73821 5.33307 7.73656 5.34882 7.7329L7.11668 7.37972C7.16539 7.36983 7.2097 7.34585 7.24486 7.31143L11.2016 3.35561L9.4328 1.58789Z" fill="white"/>
<path d="M12.4231 0.365674C11.9357 -0.121891 11.1427 -0.121891 10.6553 0.365674L9.96289 1.05775L11.7309 2.82547L12.4231 2.13321C12.6594 1.89776 12.7892 1.58358 12.7892 1.24981C12.7892 0.916039 12.6594 0.601859 12.4231 0.365674V0.365674Z" fill="white"/>
</svg>
