<svg width="10" height="14" viewBox="0 0 10 14" fill="none" xmlns="http://www.w3.org/2000/svg">
<path d="M9.51302 2.55336L7.56953 0.512422C7.25521 0.184352 6.83073 0 6.39062 0H1.66667C0.746094 0 0 0.783399 0 1.75L0.000169271 12.25C0.000169271 13.2163 0.746263 14 1.66684 14H8.33333C9.25 14 10 13.2125 10 12.25V3.78984C10 3.32773 9.82552 2.88203 9.51302 2.55336ZM8.75 12.25C8.75 12.4916 8.56344 12.6875 8.33333 12.6875H8.29167C8.09115 11.4461 7.07031 10.5 5.83333 10.5H4.16667C2.92865 10.5 1.90807 11.4472 1.70859 12.6875H1.66719C1.43703 12.6875 1.25052 12.4916 1.25052 12.25L1.25 1.75355C1.25 1.51195 1.43656 1.31605 1.66667 1.31605H5.83333V3.5C5.83333 3.98316 6.20651 4.375 6.66667 4.375H8.72656V12.25H8.75ZM5 6.125C4.08073 6.125 3.33333 6.90977 3.33333 7.875C3.33333 8.84133 4.07943 9.625 5 9.625C5.92057 9.625 6.66667 8.84133 6.66667 7.875C6.66667 6.90977 5.91927 6.125 5 6.125Z" fill="white"/>
</svg>
