<svg width="18" height="20" viewBox="0 0 18 20" fill="none" xmlns="http://www.w3.org/2000/svg">
<path d="M13.1538 0C11.3153 0 9.96748 0.633164 8.664 1.24551C7.46178 1.81027 6.32622 2.34375 4.84615 2.34375C3.44705 2.34375 2.00155 1.72617 1.38462 1.4277V0H0V20H1.38462V12.1272C2.25134 12.4814 3.53608 12.8906 4.84615 12.8906C6.68469 12.8906 8.03257 12.2575 9.336 11.6451C10.5382 11.0804 11.6738 10.5469 13.1538 10.5469C14.9894 10.5469 16.9052 11.61 16.9237 11.6204L18 12.2277V1.44422C16.5764 0.649062 14.8388 0 13.1538 0V0ZM16.6154 10.1384C15.7487 9.78418 14.4639 9.375 13.1538 9.375C11.3153 9.375 9.96748 10.0082 8.664 10.6205C7.46178 11.1853 6.32622 11.7188 4.84615 11.7188C3.44682 11.7188 2.00105 11.101 1.38462 10.8027V2.75219C2.25134 3.10641 3.53608 3.51562 4.84615 3.51562C6.68469 3.51562 8.03257 2.88246 9.336 2.27012C10.5382 1.70535 11.6738 1.17188 13.1538 1.17188C14.553 1.17188 15.9989 1.78961 16.6154 2.08789V10.1384Z" fill="#6B778C"/>
</svg>
