<svg width="136" height="81" viewBox="0 0 136 81" fill="none" xmlns="http://www.w3.org/2000/svg">
<path fill-rule="evenodd" clip-rule="evenodd" d="M116.75 74.3684C116.372 74.3652 116.018 74.4814 115.688 74.6188C115.298 73.7363 114.7 72.9748 113.957 72.392C114.026 72.0602 114.056 71.7152 114.033 71.3603C113.9 69.2511 112.088 67.65 109.988 67.7848C109.207 67.8348 108.496 68.1182 107.92 68.5616C106.379 66.7572 104.048 65.6702 101.503 65.8335C98.2259 66.0439 95.5567 68.2601 94.5919 71.2124C94.4075 71.2053 94.2195 71.2069 94.0297 71.2192C92.1303 71.3412 90.5288 72.4456 89.674 74.0061C88.9823 73.5631 88.1505 73.3373 87.2691 73.3822C83.4081 73.5788 83.5199 77.6599 83.5199 77.6599C83.5199 77.6599 90.6831 77.7156 99.5294 77.6647C109.039 77.6099 120.283 77.4898 120.283 77.4898C120.283 77.4898 119.999 74.392 116.75 74.3684Z" fill="#D2E7ED"/>
<path fill-rule="evenodd" clip-rule="evenodd" d="M123.039 77.6867H125.621V62.2832H123.039V77.6867Z" fill="#128046"/>
<path fill-rule="evenodd" clip-rule="evenodd" d="M135.999 45.8258C135.999 63.2985 130.698 72.2634 124.411 72.2634C118.124 72.2634 112.77 63.9205 112.77 46.4478C112.77 28.9751 124.411 0.28125 124.411 0.28125C124.411 0.28125 135.999 28.3531 135.999 45.8258Z" fill="#39A76D"/>
<mask id="mask0_1884_8465" style="mask-type:alpha" maskUnits="userSpaceOnUse" x="115" y="5" width="11" height="44">
<path d="M119.189 48.7114C119.114 48.7114 119.04 48.7074 118.965 48.699C116.305 48.3954 114.606 43.1048 115.798 32.5655C116.988 22.0263 123.872 5.2793 123.872 5.2793C123.872 5.2793 126.864 22.7715 125.674 33.3106C124.516 43.5565 121.783 48.7114 119.189 48.7114Z" fill="white"/>
</mask>
<g mask="url(#mask0_1884_8465)">
<path fill-rule="evenodd" clip-rule="evenodd" d="M114.605 48.7114H126.862V5.2793H114.605V48.7114Z" fill="#67CD6A"/>
</g>
<g clip-path="url(#clip0_1884_8465)">
<path d="M43.0076 0.723633L0 29.9846H86.0143L43.0076 0.723633Z" fill="#EF5E4E"/>
<path d="M43.0062 7.32129L9.41797 29.9833V74.1626H76.5937V29.9833L43.0062 7.32129Z" fill="#DDDDDD"/>
<path d="M83.6359 71.4619H2.38281V77.5235H83.6359V71.4619Z" fill="#D6C7C7"/>
<path d="M40.2654 31.2119H17.3906V58.158H40.2654V31.2119Z" fill="#D6C7C7"/>
<path d="M71.4922 73.8108V36.0322H50.9522V73.8108H71.4922Z" fill="#D6C7C7"/>
<path d="M69.1339 38.3994H53.3164V71.4352H69.1339V38.3994Z" fill="#F7EEE0"/>
<path d="M37.9023 55.7832V33.5791H19.7492V55.7832H37.9023Z" fill="#E8F4F6"/>
<path d="M43.369 55.0361H14.3867V60.8571H43.369V55.0361Z" fill="#F7EEE0"/>
<path d="M56.341 56.2176C57.0558 56.2176 57.6352 55.6357 57.6352 54.9179C57.6352 54.2001 57.0558 53.6182 56.341 53.6182C55.6263 53.6182 55.0469 54.2001 55.0469 54.9179C55.0469 55.6357 55.6263 56.2176 56.341 56.2176Z" fill="#ABABAB"/>
<path opacity="0.5" d="M72.5589 71.4619H49.8906V74.4769H72.5589V71.4619Z" fill="#ABABAB"/>
<path opacity="0.6" d="M75.7691 74.4775H46.6836V77.4917H75.7691V74.4775Z" fill="#ABABAB"/>
<path d="M78.3543 77.4932H44.0938V80.5082H78.3543V77.4932Z" fill="#ABABAB"/>
<path d="M22.625 49.7275L23.6673 54.9995H26.9452L27.9875 49.7275H22.625Z" fill="#A3C0D1"/>
<path d="M26.7345 49.7275L25.6914 54.9995H26.9468L27.989 49.7275H26.7345Z" fill="#7890A0"/>
<path d="M29.4726 46.1765C29.4727 46.026 29.4433 45.877 29.386 45.7379C29.3287 45.5988 29.2447 45.4724 29.1388 45.366C29.0329 45.2595 28.9071 45.1751 28.7687 45.1175C28.6302 45.0599 28.4819 45.0302 28.332 45.0302C28.3072 45.0302 28.2841 45.0302 28.2602 45.0302C27.1964 45.1028 26.1438 44.7748 25.3076 44.1104C25.2135 44.2349 25.0949 44.3387 24.9592 44.4153C24.8235 44.492 24.6736 44.5398 24.5188 44.5559C24.3639 44.572 24.2074 44.556 24.059 44.5089C23.9106 44.4618 23.7733 44.3846 23.6558 44.282C23.5059 44.282 23.3575 44.3117 23.219 44.3693C23.0805 44.4269 22.9547 44.5113 22.8487 44.6178C22.7427 44.7242 22.6587 44.8506 22.6013 44.9897C22.544 45.1287 22.5144 45.2778 22.5144 45.4283C22.5144 45.4524 22.5144 45.4764 22.5144 45.5005C22.3571 45.5581 22.2144 45.6499 22.0965 45.7693C21.9787 45.8888 21.8885 46.0329 21.8326 46.1914C21.7766 46.3499 21.7563 46.5189 21.7729 46.6862C21.7895 46.8536 21.8428 47.0151 21.9289 47.1594C21.7402 47.3053 21.6018 47.5069 21.533 47.7359C21.4642 47.9649 21.4685 48.2097 21.5453 48.4361C21.6221 48.6625 21.7675 48.8591 21.9611 48.9983C22.1548 49.1374 22.387 49.2123 22.6251 49.2122C23.7887 49.2187 24.9154 49.623 25.8197 50.3585C25.9759 50.1546 26.1962 50.0097 26.4447 49.9472C26.6932 49.8848 26.9555 49.9084 27.189 50.0143C27.5293 50.0632 27.8764 50.0081 28.1852 49.8564C28.494 49.7047 28.7502 49.4632 28.9206 49.1634C29.091 48.8635 29.1678 48.5192 29.1409 48.175C29.114 47.8308 28.9847 47.5027 28.7697 47.2332C28.9776 47.1463 29.1553 46.9996 29.2803 46.8116C29.4054 46.6236 29.4723 46.4026 29.4726 46.1765V46.1765Z" fill="#6C9B3A"/>
<path d="M22.9163 44.5639L22.9408 44.5322L22.9102 44.5586L22.9163 44.5639Z" fill="#6C9B3A"/>
<path d="M28.7699 47.2305C29.0131 47.1284 29.2136 46.9448 29.3374 46.711C29.4611 46.4772 29.5004 46.2076 29.4487 45.9479C29.3969 45.6883 29.2573 45.4547 29.0534 45.2868C28.8496 45.1188 28.5941 45.0269 28.3305 45.0267C28.3057 45.0267 28.2826 45.0267 28.2586 45.0267C28.195 44.8534 28.0905 44.6982 27.9541 44.5742C27.8177 44.4503 27.6535 44.3613 27.4755 44.315C27.2975 44.2686 27.1109 44.2662 26.9317 44.308C26.7526 44.3497 26.5861 44.4344 26.4466 44.5548C26.5928 44.6808 27.9877 44.7945 27.9877 46.1697C27.9877 46.3958 27.9212 46.6168 27.7964 46.8049C27.6716 46.9931 27.4943 47.14 27.2866 47.2272C27.4343 47.3665 27.5423 47.5428 27.5995 47.738C27.6567 47.9332 27.6611 48.1402 27.6121 48.3376C27.5631 48.535 27.4626 48.7158 27.3209 48.8612C27.1792 49.0066 27.0014 49.1114 26.8059 49.1648C26.3335 50.18 25.1921 50.18 25.0781 50.0772C25.7571 49.8316 26.496 49.8081 27.1891 50.01C27.5294 50.0588 27.8765 50.0038 28.1853 49.8521C28.4941 49.7003 28.7503 49.4589 28.9207 49.159C29.0912 48.8592 29.1679 48.5148 29.141 48.1706C29.1141 47.8265 28.9848 47.4983 28.7699 47.2289V47.2305Z" fill="#496825"/>
<path d="M23.3092 49.708C23.2403 49.8507 23.1431 49.9777 23.0234 50.0813C23.2302 50.2599 23.494 50.3579 23.7667 50.3575C23.8632 50.3574 23.9593 50.3448 24.0525 50.3201C23.8917 50.2787 23.7418 50.2024 23.6134 50.0967C23.485 49.9909 23.3812 49.8583 23.3092 49.708V49.708Z" fill="#6C9B3A"/>
</g>
<defs>
<clipPath id="clip0_1884_8465">
<rect width="86.0143" height="79.7814" fill="white" transform="translate(0 0.723633)"/>
</clipPath>
</defs>
</svg>
