<svg width="16" height="17" viewBox="0 0 16 17" fill="none" xmlns="http://www.w3.org/2000/svg">
<path d="M14.4 1.6127V11.2127H4.8V1.6127H14.4ZM14.4 0.0126953H4.8C3.92 0.0126953 3.2 0.732695 3.2 1.6127V11.2127C3.2 12.0927 3.92 12.8127 4.8 12.8127H14.4C15.28 12.8127 16 12.0927 16 11.2127V1.6127C16 0.732695 15.28 0.0126953 14.4 0.0126953ZM7.6 7.7487L8.952 9.5567L10.936 7.0767L13.6 10.4127H5.6L7.6 7.7487ZM0 3.2127V14.4127C0 15.2927 0.72 16.0127 1.6 16.0127H12.8V14.4127H1.6V3.2127H0Z" fill="#137749"/>
</svg>
