<svg width="14" height="14" viewBox="0 0 14 14" fill="none" xmlns="http://www.w3.org/2000/svg">
<g clip-path="url(#clip0_438_7296)">
<path d="M13 2C13.5531 2 14 2.44687 14 3C14 3.55313 13.5531 4 13 4H4V2H13ZM2 2V4H1C0.447812 4 0 3.55313 0 3C0 2.44687 0.447812 2 1 2H2ZM1 12C0.447812 12 0 11.5531 0 11C0 10.4469 0.447812 10 1 10H10V12H1ZM12 12V10H13C13.5531 10 14 10.4469 14 11C14 11.5531 13.5531 12 13 12H12Z" fill="#595959"/>
<path opacity="0.4" d="M2 1C2 0.447812 2.44781 0 3 0C3.55313 0 4 0.447812 4 1V10H2V1ZM2 12H4V13C4 13.5531 3.55313 14 3 14C2.44781 14 2 13.5531 2 13V12ZM12 13C12 13.5531 11.5531 14 11 14C10.4469 14 10 13.5531 10 13V4H12V13ZM12 2H10V1C10 0.447812 10.4469 0 11 0C11.5531 0 12 0.447812 12 1V2Z" fill="#595959"/>
</g>
<defs>
<clipPath id="clip0_438_7296">
<rect width="14" height="14" fill="white"/>
</clipPath>
</defs>
</svg>
