<svg width="14" height="11" viewBox="0 0 14 11" fill="none" xmlns="http://www.w3.org/2000/svg">
<path d="M13.9993 6.5169V9.77535C13.9993 9.97547 13.8427 10.1374 13.6493 10.1374H12.9493C12.7559 10.1374 12.5993 9.97547 12.5993 9.77535V8.6892H1.39993V9.77535C1.39993 9.97447 1.24331 10.1374 1.04994 10.1374H0.349982C0.156529 10.1374 0 9.97447 0 9.77535V0.36205C0 0.162017 0.156529 0 0.349982 0H1.04994C1.24331 0 1.39993 0.162017 1.39993 0.36205V6.5169H13.9993Z" fill="#595959"/>
<path opacity="0.4" d="M3.85147 2.17188C2.88683 2.17188 2.10156 2.98422 2.10156 3.98212C2.10156 4.98002 2.88683 5.79237 3.85147 5.79237C4.81611 5.79237 5.60138 4.98002 5.60138 3.98212C5.60138 2.98422 4.81611 2.17188 3.85147 2.17188ZM11.901 2.17188H6.65132C6.45883 2.17188 6.30134 2.3348 6.30134 2.53392V6.51647H14.0009V4.34417C14.0009 3.12452 13.0604 2.17188 11.901 2.17188Z" fill="#595959"/>
</svg>
