<svg width="14" height="14" viewBox="0 0 14 14" fill="none" xmlns="http://www.w3.org/2000/svg">
<g clip-path="url(#clip0_438_7283)">
<path d="M0.875 10.5C0.875 11.2744 1.21652 11.9634 1.75 12.4439V13.5625C1.75 13.8031 1.94578 14 2.1875 14H3.0625C3.30312 14 3.5 13.8031 3.5 13.5625V13.1496H10.5V13.5625C10.5 13.8041 10.6959 14 10.9375 14H11.8125C12.0541 14 12.25 13.8041 12.25 13.5625V12.4441C12.7835 11.9637 13.125 11.2746 13.125 10.5003V9.625H0.875V10.5ZM13.5625 7H0.4375C0.195891 7 0 7.19687 0 7.4375V8.3125C0 8.55313 0.195891 8.75 0.4375 8.75H13.5625C13.8041 8.75 14 8.55411 14 8.3125V7.4375C14 7.19687 13.8031 7 13.5625 7Z" fill="#595959"/>
<path opacity="0.4" d="M2.625 7V2.1123C2.62418 1.81699 3.03516 1.64691 3.24297 1.85609L3.62031 2.23289C3.37969 2.96953 3.53828 3.67773 3.94297 4.18906C3.7707 4.36133 3.76797 4.64297 3.9375 4.8125L4.24676 5.12176C4.4176 5.2926 4.69465 5.2926 4.86555 5.12176L7.74758 2.23973C7.91842 2.06888 7.91842 1.79184 7.74758 1.62094L7.43832 1.31168C7.26748 1.14084 6.99043 1.14084 6.81953 1.31168C6.3082 0.909453 5.59727 0.75332 4.85898 0.995586L4.48164 0.619063C4.08789 0.225586 3.54375 0 2.98867 0C1.82273 0 0.875 0.947734 0.875 2.1123V7.00137L2.625 7Z" fill="#595959"/>
</g>
<defs>
<clipPath id="clip0_438_7283">
<rect width="14" height="14" fill="white"/>
</clipPath>
</defs>
</svg>
