<svg width="15" height="17" viewBox="0 0 15 17" fill="none" xmlns="http://www.w3.org/2000/svg">
<path d="M9 10.0938H6C2.9625 10.0938 0.5 12.7102 0.5 15.9375C0.5 16.5242 0.947812 17 1.5 17H13.5C14.0522 17 14.5 16.5242 14.5 15.9375C14.5 12.7102 12.0375 10.0938 9 10.0938ZM2.03094 15.4062C2.27781 13.3111 3.9625 11.6875 6 11.6875H9C11.0363 11.6875 12.7219 13.3128 12.9688 15.4062H2.03094ZM7.5 8.5C9.70906 8.5 11.5 6.59713 11.5 4.25C11.5 1.90287 9.70906 0 7.5 0C5.29094 0 3.5 1.90287 3.5 4.25C3.5 6.59746 5.29063 8.5 7.5 8.5ZM7.5 1.59375C8.87844 1.59375 10 2.78541 10 4.25C10 5.71459 8.87844 6.90625 7.5 6.90625C6.12156 6.90625 5 5.71426 5 4.25C5 2.78541 6.12187 1.59375 7.5 1.59375Z" fill="#137749"/>
</svg>
