<svg id="Layer_1" enable-background="new 0 0 512 512" viewBox="0 0 512 512" xmlns="http://www.w3.org/2000/svg"><path d="m496 173.461h-42.153v-71.51c0-.078-.009-.156-.012-.234-.003-.08-.006-.159-.012-.239-.02-.296-.052-.59-.109-.879-.001-.005-.001-.011-.002-.017-.059-.296-.143-.584-.24-.869-.025-.073-.051-.145-.078-.218-.101-.269-.214-.533-.347-.788-.008-.015-.014-.031-.022-.046-.142-.267-.307-.521-.484-.769-.045-.063-.091-.125-.138-.186-.188-.246-.386-.485-.608-.706l-66.8-66.8c-.222-.222-.461-.421-.708-.609-.061-.046-.121-.091-.183-.135-.249-.177-.504-.343-.772-.486-.012-.006-.024-.011-.036-.017-.259-.136-.527-.25-.801-.352-.069-.026-.138-.051-.208-.075-.571-.193-1.167-.313-1.776-.353-.075-.005-.15-.009-.225-.011-.08-.003-.16-.012-.241-.012h-228.414c-3.866 0-7 3.134-7 7v177.92h-42.153c-3.866 0-7 3.134-7 7v48.257c-.497.746-.871 1.586-1.053 2.51l-3.228 16.371c-5.315 1.651-10.472 3.791-15.411 6.394l-13.867-9.3c-2.778-1.863-6.484-1.5-8.849.864l-24.095 24.094c-2.365 2.365-2.727 6.071-.864 8.849l9.3 13.868c-2.603 4.939-4.743 10.096-6.394 15.411l-16.371 3.228c-3.281.646-5.646 3.523-5.646 6.867v34.075c0 3.344 2.365 6.221 5.646 6.868l16.372 3.229c1.652 5.316 3.792 10.474 6.394 15.411l-9.3 13.868c-1.862 2.777-1.5 6.484.864 8.849l24.095 24.095c2.364 2.364 6.07 2.726 8.849.864l13.867-9.3c4.94 2.604 10.097 4.743 15.411 6.394l3.228 16.371c.647 3.28 3.524 5.646 6.868 5.646h34.075c3.344 0 6.221-2.365 6.868-5.646l3.229-16.372c5.317-1.652 10.474-3.792 15.411-6.394l13.868 9.3c2.779 1.862 6.484 1.5 8.849-.864l24.095-24.095c1.19-1.19 1.87-2.72 2.018-4.301h286.293c3.866 0 7-3.134 7-7v-248.02c0-3.866-3.134-7-7-7zm-66.053-78.51h-42.902v-42.902l21.451 21.451zm-271.316-52.802h214.415v59.802c0 3.866 3.134 7 7 7h59.801v64.51h-74.447c-2.501 0-4.812 1.334-6.062 3.5l-20.847 36.108h-179.86zm19.129 407.758-12.651-8.484c-2.239-1.501-5.141-1.584-7.461-.212-6.249 3.694-12.967 6.481-19.968 8.284-2.609.672-4.601 2.781-5.122 5.424l-2.944 14.932h-22.566l-2.944-14.932c-.521-2.644-2.514-4.753-5.124-5.425-6.993-1.799-13.711-4.586-19.967-8.284-2.32-1.371-5.222-1.29-7.46.213l-12.653 8.484-15.957-15.957 8.484-12.651c1.501-2.239 1.583-5.141.212-7.461-3.694-6.25-6.481-12.968-8.284-19.968-.672-2.609-2.781-4.601-5.424-5.122l-14.931-2.944v-22.566l14.932-2.944c2.644-.521 4.753-2.514 5.425-5.123 1.8-6.995 4.587-13.713 8.284-19.968 1.371-2.32 1.289-5.222-.213-7.46l-8.484-12.651 15.956-15.958 12.651 8.484c2.237 1.501 5.139 1.584 7.46.212 6.254-3.696 12.972-6.483 19.968-8.283 2.609-.672 4.602-2.781 5.123-5.425l2.944-14.932h22.566l2.944 14.932c.521 2.644 2.514 4.753 5.123 5.425 6.995 1.8 13.713 4.587 19.968 8.284 2.32 1.372 5.222 1.289 7.46-.212l12.651-8.484 15.957 15.957-8.484 12.651c-1.501 2.239-1.584 5.141-.212 7.461 3.694 6.25 6.481 12.968 8.284 19.968.672 2.609 2.781 4.601 5.424 5.122l14.932 2.944v22.566l-14.932 2.944c-2.644.521-4.753 2.514-5.425 5.124-1.799 6.993-4.586 13.711-8.284 19.967-1.371 2.32-1.289 5.222.212 7.46l7.436 11.088c.003.004.005.008.008.012l1.04 1.551zm311.24-28.427h-286.789l-2.961-4.416c2.604-4.94 4.743-10.097 6.394-15.411l16.371-3.228c3.28-.647 5.646-3.524 5.646-6.868v-34.075c0-3.344-2.365-6.221-5.646-6.868l-16.372-3.229c-1.652-5.316-3.792-10.474-6.394-15.411l9.3-13.867c1.863-2.777 1.501-6.484-.864-8.849l-24.095-24.095c-2.365-2.365-6.071-2.727-8.849-.864l-13.868 9.3c-4.939-2.603-10.097-4.743-15.411-6.394l-3.228-16.371c-.647-3.28-3.524-5.646-6.868-5.646h-25.89v-38.121h233.055c2.501 0 4.812-1.334 6.062-3.5l20.847-36.108h119.56zm-293.73-280.274c0-3.866 3.134-7 7-7h193.938c3.866 0 7 3.134 7 7s-3.134 7-7 7h-193.938c-3.867 0-7-3.134-7-7zm0-39.255c0-3.866 3.134-7 7-7h122.834c3.866 0 7 3.134 7 7s-3.134 7-7 7h-122.834c-3.867 0-7-3.134-7-7zm136.834 78.511c0 3.866-3.134 7-7 7h-122.834c-3.866 0-7-3.134-7-7s3.134-7 7-7h122.834c3.866 0 7 3.134 7 7zm-213.773 142.56c-28.396 0-51.498 23.102-51.498 51.498s23.102 51.498 51.498 51.498 51.498-23.102 51.498-51.498-23.102-51.498-51.498-51.498zm0 88.997c-20.676 0-37.498-16.822-37.498-37.498s16.822-37.498 37.498-37.498 37.498 16.822 37.498 37.498-16.822 37.498-37.498 37.498zm240.138-152.508c1.25 2.166 3.561 3.5 6.062 3.5h82.315c3.866 0 7-3.134 7-7v-31.693c0-3.866-3.134-7-7-7h-64.018c-2.501 0-4.812 1.334-6.062 3.5l-18.297 31.693c-1.25 2.166-1.25 4.835 0 7zm28.401-28.193h52.977v17.693h-63.191z"/></svg>