<svg width="15" height="18" viewBox="0 0 15 18" fill="none" xmlns="http://www.w3.org/2000/svg">
<g clip-path="url(#clip0_1651_8395)">
<path d="M10.1833 6.80364C9.96479 6.56936 9.61046 6.56936 9.39194 6.80364L6.28056 10.1399L5.44545 9.24443C5.22696 9.01015 4.87263 9.01015 4.6541 9.24443C4.43561 9.47871 4.43561 9.85865 4.6541 10.093L5.88492 11.4127C6.10345 11.647 6.45774 11.647 6.67627 11.4127L10.1833 7.65214C10.4018 7.41786 10.4018 7.03796 10.1833 6.80364Z" fill="#6B778C"/>
<path d="M14.0486 4.13098L7.70497 0.0843223C7.52867 -0.0281074 7.3091 -0.0281074 7.1328 0.0843223L0.7891 4.13098C0.619559 4.23916 0.515625 4.43512 0.515625 4.64665V6.95667C0.515625 11.8221 3.13726 16.2659 7.21684 17.9595C7.34671 18.0134 7.4909 18.0135 7.6209 17.9595C11.6906 16.2701 14.3221 11.8359 14.3221 6.95667V4.64665C14.3221 4.43508 14.2182 4.23916 14.0486 4.13098ZM13.203 6.95667C13.203 11.4337 10.7954 15.2469 7.41887 16.7535C4.04041 15.246 1.63481 11.431 1.63481 6.95667V4.98788L7.4189 1.29816L13.203 4.98788V6.95667H13.203Z" fill="#6B778C"/>
</g>
<defs>
<clipPath id="clip0_1651_8395">
<rect width="14" height="18" fill="white" transform="translate(0.5)"/>
</clipPath>
</defs>
</svg>
