<svg width="16" height="14" viewBox="0 0 16 14" fill="none" xmlns="http://www.w3.org/2000/svg">
<path d="M13.2678 6.17055L2.34649 6.20512C1.50145 6.20779 0.818405 6.95323 0.82087 7.87011L0.830484 11.4452C0.832949 12.3621 1.51999 13.1032 2.36503 13.1005L13.2863 13.066C14.1314 13.0633 14.8144 12.3179 14.8119 11.401L14.8023 7.82585C14.7999 6.90898 14.1128 6.16787 13.2678 6.17055Z" stroke="#6B778C" stroke-width="1.03212" stroke-linecap="round" stroke-linejoin="round"/>
<mask id="path-2-inside-1_1_7807" fill="white">
<path d="M4.70179 9.14412C4.74555 8.91169 5.21318 9.00936 5.38074 9.18163L5.55715 8.75614C5.51789 8.72227 5.34259 8.58684 4.98744 8.5653C4.42861 8.53308 4.23093 8.81416 4.19778 9.10889C4.11113 9.89954 5.14978 9.70645 5.08024 10.0636C5.03905 10.2819 4.50096 10.1958 4.29401 9.94146L4.06535 10.353C4.21712 10.4743 4.48379 10.6066 4.76325 10.6369C5.0636 10.6699 5.58304 10.6173 5.62069 10.0562C5.66577 9.34221 4.64256 9.45026 4.70179 9.14412L4.70179 9.14412Z"/>
</mask>
<path d="M4.70179 9.14412C4.74555 8.91169 5.21318 9.00936 5.38074 9.18163L5.55715 8.75614C5.51789 8.72227 5.34259 8.58684 4.98744 8.5653C4.42861 8.53308 4.23093 8.81416 4.19778 9.10889C4.11113 9.89954 5.14978 9.70645 5.08024 10.0636C5.03905 10.2819 4.50096 10.1958 4.29401 9.94146L4.06535 10.353C4.21712 10.4743 4.48379 10.6066 4.76325 10.6369C5.0636 10.6699 5.58304 10.6173 5.62069 10.0562C5.66577 9.34221 4.64256 9.45026 4.70179 9.14412L4.70179 9.14412Z" fill="#137749"/>
<path d="M4.70179 9.14412L3.36846 9.14834L6.0121 9.39022L4.70179 9.14412ZM5.38074 9.18163L4.42475 10.1115L5.83659 11.563L6.61239 9.69176L5.38074 9.18163ZM5.55715 8.75614L6.78879 9.26627L7.15793 8.37587L6.42844 7.74645L5.55715 8.75614ZM4.98744 8.5653L5.06879 7.23441L5.06483 7.23418L4.98744 8.5653ZM4.19778 9.10889L2.8728 8.96048L2.87238 8.96426L4.19778 9.10889ZM5.08024 10.0636L3.77147 9.80942L3.77004 9.81697L5.08024 10.0636ZM4.29401 9.94146L5.32834 9.09957L4.08546 7.57228L3.1286 9.29425L4.29401 9.94146ZM4.06535 10.353L2.89995 9.70575L2.35247 10.691L3.23244 11.3945L4.06535 10.353ZM4.76325 10.6369L4.90968 9.31153L4.90749 9.31129L4.76325 10.6369ZM5.62069 10.0562L6.95104 10.1449L6.95138 10.1396L5.62069 10.0562ZM4.70179 9.14412L6.03512 9.1399L3.39274 8.89146L4.70179 9.14412ZM6.0121 9.39022C5.97396 9.59276 5.87982 9.79429 5.72783 9.96329C5.58189 10.1256 5.41963 10.2173 5.29325 10.2673C5.06354 10.3583 4.88561 10.3409 4.8381 10.3353C4.77066 10.3273 4.71935 10.3113 4.67577 10.2922C4.64185 10.2774 4.53956 10.2296 4.42475 10.1115L6.33674 8.25174C5.98281 7.88787 5.50633 7.72877 5.15158 7.68695C4.96075 7.66445 4.64724 7.65543 4.31231 7.78809C3.91753 7.94444 3.5025 8.3084 3.39148 8.89803L6.0121 9.39022ZM6.61239 9.69176L6.78879 9.26627L4.3255 8.24601L4.1491 8.6715L6.61239 9.69176ZM6.42844 7.74645C6.20739 7.55572 5.76315 7.27652 5.06879 7.23441L4.90609 9.89619C4.92459 9.89731 4.90369 9.89864 4.8554 9.87749C4.8077 9.8566 4.75009 9.82125 4.68585 9.76582L6.42844 7.74645ZM5.06483 7.23418C4.55897 7.20501 3.99961 7.3083 3.54104 7.69132C3.08439 8.07273 2.91626 8.57412 2.8728 8.96048L5.52275 9.25729C5.51245 9.34893 5.45973 9.56241 5.24992 9.73765C5.03818 9.91451 4.85708 9.89337 4.91005 9.89643L5.06483 7.23418ZM2.87238 8.96426C2.84607 9.20435 2.85671 9.46253 2.93003 9.72348C3.00462 9.98899 3.13317 10.2179 3.294 10.4066C3.59597 10.7609 3.96823 10.92 4.14069 10.9883C4.22856 11.0232 4.33029 11.0582 4.35885 11.0684C4.41425 11.0882 4.39125 11.0824 4.3479 11.06C4.31477 11.0429 4.12967 10.948 3.97075 10.7238C3.88346 10.6006 3.81083 10.4477 3.77459 10.2707C3.73875 10.0956 3.74666 9.93694 3.77149 9.80942L6.389 10.3178C6.46354 9.93492 6.39012 9.52466 6.14671 9.1812C5.94464 8.89606 5.69049 8.75144 5.57112 8.68987C5.44152 8.62303 5.3151 8.57791 5.25862 8.55769C5.1753 8.52787 5.1567 8.52207 5.1245 8.5093C5.05682 8.48247 5.19001 8.51924 5.32377 8.67617C5.50763 8.89185 5.53623 9.13439 5.52317 9.25351L2.87238 8.96426ZM3.77004 9.81697C3.8818 9.22474 4.34297 8.97155 4.57078 8.90012C4.77559 8.83591 4.92224 8.85713 4.95705 8.86261C5.01066 8.87104 5.05529 8.88582 5.09902 8.90786C5.13798 8.9275 5.2317 8.98082 5.32834 9.09957L3.25969 10.7833C3.63179 11.2406 4.16177 11.4372 4.54153 11.4969C4.74188 11.5284 5.0437 11.5461 5.36747 11.4446C5.71422 11.3359 6.25809 11.0116 6.39045 10.3103L3.77004 9.81697ZM3.1286 9.29425L2.89995 9.70575L5.23076 11.0002L5.45942 10.5887L3.1286 9.29425ZM3.23244 11.3945C3.55799 11.6548 4.05863 11.9017 4.619 11.9624L4.90749 9.31129C4.91767 9.3124 4.92031 9.31355 4.91574 9.31228C4.91131 9.31105 4.904 9.30861 4.89517 9.3048C4.89099 9.303 4.88717 9.30119 4.88389 9.29952C4.88059 9.29784 4.87839 9.29659 4.87741 9.29601C4.87639 9.29541 4.87738 9.29594 4.88034 9.29796C4.88319 9.29992 4.88932 9.30424 4.89827 9.31139L3.23244 11.3945ZM4.61681 11.9622C4.88059 11.9912 5.36282 12.0034 5.84713 11.7806C6.10912 11.6602 6.38667 11.4629 6.603 11.1558C6.82108 10.8462 6.92754 10.4949 6.95103 10.1449L4.29036 9.96758C4.29502 9.89806 4.32243 9.76379 4.42314 9.62082C4.5221 9.48033 4.64395 9.39936 4.73383 9.35803C4.81621 9.32014 4.87436 9.31348 4.888 9.31213C4.90413 9.31053 4.90959 9.31152 4.90968 9.31153L4.61681 11.9622ZM6.95138 10.1396C6.96716 9.88952 6.9382 9.63001 6.84749 9.37588C6.75657 9.12112 6.61794 8.91194 6.46308 8.74589C6.1738 8.43573 5.83334 8.28434 5.66647 8.21526C5.57917 8.17911 5.48449 8.14459 5.44839 8.13101C5.39045 8.10921 5.40116 8.11142 5.43036 8.12623C5.44443 8.13337 5.61122 8.2137 5.76686 8.40798C5.8548 8.51775 5.94308 8.66858 5.99294 8.85956C6.0434 9.05281 6.04158 9.23791 6.01084 9.39678L3.39274 8.89146C3.3546 9.0886 3.35384 9.30873 3.41275 9.53438C3.47107 9.75775 3.57522 9.93836 3.68537 10.0759C3.88546 10.3256 4.12212 10.4533 4.22308 10.5045C4.33917 10.5634 4.4538 10.6064 4.5084 10.627C4.58484 10.6557 4.61132 10.6651 4.6454 10.6792C4.7213 10.7106 4.62448 10.6852 4.51253 10.5652C4.35007 10.391 4.27829 10.1585 4.29001 9.97287L6.95138 10.1396ZM3.36846 9.14834L3.36846 9.14834L6.03512 9.1399L6.03512 9.1399L3.36846 9.14834Z" fill="#6B778C" mask="url(#path-2-inside-1_1_7807)"/>
<mask id="path-4-inside-2_1_7807" fill="white">
<path d="M6.8398 8.55938C6.31238 8.56105 5.85672 9.02709 5.85826 9.59934C5.8598 10.1716 6.31795 10.6319 6.84537 10.6302C7.37278 10.6286 7.82584 10.1654 7.8243 9.59311C7.82276 9.02087 7.36721 8.55771 6.8398 8.55938ZM6.84404 10.1373C6.56728 10.1382 6.34209 9.8981 6.34128 9.59781C6.34048 9.29752 6.56436 9.05318 6.84112 9.05231C7.11788 9.05143 7.34308 9.29435 7.34389 9.59464C7.34469 9.89492 7.1208 10.1364 6.84404 10.1373Z"/>
</mask>
<path d="M6.8398 8.55938C6.31238 8.56105 5.85672 9.02709 5.85826 9.59934C5.8598 10.1716 6.31795 10.6319 6.84537 10.6302C7.37278 10.6286 7.82584 10.1654 7.8243 9.59311C7.82276 9.02087 7.36721 8.55771 6.8398 8.55938ZM6.84404 10.1373C6.56728 10.1382 6.34209 9.8981 6.34128 9.59781C6.34048 9.29752 6.56436 9.05318 6.84112 9.05231C7.11788 9.05143 7.34308 9.29435 7.34389 9.59464C7.34469 9.89492 7.1208 10.1364 6.84404 10.1373Z" fill="#137749"/>
<path d="M6.83621 7.22606C5.52154 7.23022 4.52155 8.34688 4.52493 9.60356L7.19158 9.59512C7.19178 9.66869 7.16213 9.73633 7.11504 9.78568C7.06965 9.83324 6.97834 9.89229 6.84338 9.89271L6.83621 7.22606ZM4.52493 9.60356C4.52832 10.8651 5.53893 11.9677 6.84895 11.9636L6.84178 9.2969C6.9741 9.29648 7.06544 9.35351 7.11226 9.40181C7.16093 9.45203 7.19138 9.52102 7.19158 9.59512L4.52493 9.60356ZM6.84895 11.9636C8.16344 11.9594 9.16101 10.8458 9.15763 9.58889L6.49097 9.59734C6.49078 9.52556 6.51979 9.45672 6.56889 9.40528C6.61642 9.35548 6.70884 9.29732 6.84178 9.2969L6.84895 11.9636ZM9.15763 9.58889C9.15426 8.33687 8.15535 7.22188 6.83621 7.22606L6.84338 9.89271C6.7078 9.89314 6.61479 9.83413 6.56817 9.78567C6.5201 9.7357 6.49117 9.6686 6.49097 9.59734L9.15763 9.58889ZM6.84045 8.80398C7.39171 8.80223 7.67369 9.2526 7.67461 9.59359L5.00796 9.60203C5.01049 10.5436 5.74285 11.4741 6.84763 11.4706L6.84045 8.80398ZM7.67461 9.59359C7.6755 9.92518 7.40465 10.3839 6.84471 10.3856L6.83754 7.71898C5.72407 7.7225 5.00545 8.66987 5.00796 9.60203L7.67461 9.59359ZM6.84471 10.3856C6.28477 10.3874 6.01145 9.93045 6.01056 9.59886L8.67721 9.59041C8.67471 8.65825 7.951 7.71545 6.83754 7.71898L6.84471 10.3856ZM6.01056 9.59886C6.00964 9.25787 6.28921 8.80572 6.84045 8.80398L6.84763 11.4706C7.95239 11.4671 8.67975 10.532 8.67721 9.59041L6.01056 9.59886Z" fill="#6B778C" mask="url(#path-4-inside-2_1_7807)"/>
<mask id="path-6-inside-3_1_7807" fill="white">
<path d="M8.64017 10.1231L8.63607 8.599L8.13477 8.60059L8.1401 10.5836L9.41163 10.5796L9.4104 10.1207L8.64017 10.1231Z"/>
</mask>
<path d="M8.64017 10.1231L8.63607 8.599L8.13477 8.60059L8.1401 10.5836L9.41163 10.5796L9.4104 10.1207L8.64017 10.1231Z" fill="#137749"/>
<path d="M8.64017 10.1231L7.30684 10.1273L7.31043 11.4606L8.64375 11.4564L8.64017 10.1231ZM8.63607 8.599L9.96939 8.59478L9.96581 7.26145L8.63248 7.26567L8.63607 8.599ZM8.13477 8.60059L8.13118 7.26726L6.79785 7.27148L6.80144 8.60481L8.13477 8.60059ZM8.1401 10.5836L6.80677 10.5878L6.81036 11.9212L8.14368 11.9169L8.1401 10.5836ZM9.41163 10.5796L9.41522 11.9129L10.7485 11.9087L10.745 10.5754L9.41163 10.5796ZM9.4104 10.1207L10.7437 10.1164L10.7401 8.78311L9.40681 8.78733L9.4104 10.1207ZM9.97349 10.1189L9.96939 8.59478L7.30274 8.60322L7.30684 10.1273L9.97349 10.1189ZM8.63248 7.26567L8.13118 7.26726L8.13835 9.93391L8.63965 9.93233L8.63248 7.26567ZM6.80144 8.60481L6.80677 10.5878L9.47342 10.5794L9.46809 8.59637L6.80144 8.60481ZM8.14368 11.9169L9.41522 11.9129L9.40805 9.24625L8.13651 9.25028L8.14368 11.9169ZM10.745 10.5754L10.7437 10.1164L8.07707 10.1249L8.0783 10.5838L10.745 10.5754ZM9.40681 8.78733L8.63658 8.78977L8.64375 11.4564L9.41398 11.454L9.40681 8.78733Z" fill="#6B778C" mask="url(#path-6-inside-3_1_7807)"/>
<mask id="path-8-inside-4_1_7807" fill="white">
<path d="M10.4667 8.59342L9.74609 8.5957L9.75143 10.5787L10.472 10.5764C11.1535 10.5743 11.4865 10.1143 11.485 9.58172C11.4836 9.04913 11.1508 8.59126 10.4667 8.59342ZM10.4369 10.1176L10.2489 10.1182L10.246 9.05305L10.434 9.05246C10.8518 9.05113 11.0195 9.28857 11.0203 9.58319C11.0211 9.87498 10.8546 10.1163 10.4369 10.1176Z"/>
</mask>
<path d="M10.4667 8.59342L9.74609 8.5957L9.75143 10.5787L10.472 10.5764C11.1535 10.5743 11.4865 10.1143 11.485 9.58172C11.4836 9.04913 11.1508 8.59126 10.4667 8.59342ZM10.4369 10.1176L10.2489 10.1182L10.246 9.05305L10.434 9.05246C10.8518 9.05113 11.0195 9.28857 11.0203 9.58319C11.0211 9.87498 10.8546 10.1163 10.4369 10.1176Z" fill="#137749"/>
<path d="M9.74609 8.5957L9.74251 7.26237L8.40918 7.2666L8.41277 8.59992L9.74609 8.5957ZM9.75143 10.5787L8.4181 10.5829L8.42168 11.9163L9.75501 11.9121L9.75143 10.5787ZM10.2489 10.1182L8.91556 10.1224L8.91914 11.4558L10.2525 11.4515L10.2489 10.1182ZM10.246 9.05305L10.2424 7.71972L8.90911 7.72394L8.91269 9.05727L10.246 9.05305ZM10.4631 7.26009L9.74251 7.26237L9.74968 9.92903L10.4703 9.92675L10.4631 7.26009ZM8.41277 8.59992L8.4181 10.5829L11.0848 10.5745L11.0794 8.59148L8.41277 8.59992ZM9.75501 11.9121L10.4756 11.9098L10.4685 9.24312L9.74784 9.2454L9.75501 11.9121ZM10.4756 11.9098C11.1329 11.9077 11.759 11.674 12.2131 11.1833C12.651 10.71 12.8198 10.1157 12.8184 9.5775L10.1517 9.58594C10.1517 9.5803 10.1547 9.48235 10.2561 9.37272C10.3063 9.31849 10.364 9.28123 10.4155 9.26024C10.465 9.24005 10.4885 9.24305 10.4685 9.24312L10.4756 11.9098ZM12.8184 9.5775C12.8169 9.04189 12.6471 8.44833 12.2063 7.97653C11.7489 7.48697 11.1204 7.25801 10.4631 7.26009L10.4703 9.92675C10.4916 9.92668 10.4686 9.93005 10.4187 9.91012C10.3668 9.88937 10.3084 9.85214 10.2574 9.79755C10.1544 9.68729 10.1517 9.58896 10.1517 9.58594L12.8184 9.5775ZM10.4333 8.7843L10.2453 8.78489L10.2525 11.4515L10.4405 11.451L10.4333 8.7843ZM11.5822 10.114L11.5793 9.04883L8.91269 9.05727L8.91556 10.1224L11.5822 10.114ZM10.2496 10.3864L10.4376 10.3858L10.4304 7.71913L10.2424 7.71972L10.2496 10.3864ZM10.4376 10.3858C10.3932 10.3859 10.1547 10.3682 9.93177 10.1411C9.71745 9.92275 9.68722 9.68294 9.68697 9.58741L12.3536 9.57897C12.3526 9.18882 12.2381 8.68298 11.8353 8.2726C11.4238 7.8534 10.8926 7.71767 10.4304 7.71913L10.4376 10.3858ZM9.68697 9.58741C9.6867 9.48791 9.71697 9.25025 9.92708 9.03289C10.1469 8.80553 10.3843 8.78445 10.4333 8.7843L10.4405 11.451C10.9071 11.4495 11.4367 11.3071 11.844 10.8858C12.2416 10.4745 12.3547 9.97025 12.3536 9.57897L9.68697 9.58741Z" fill="#6B778C" mask="url(#path-8-inside-4_1_7807)"/>
<path d="M2.47479 5.8916C2.43901 5.67829 7.7994 1.04519 7.7994 1.04519L13.1125 5.7989" stroke="#6B778C" stroke-width="0.928911" stroke-linecap="round" stroke-linejoin="round"/>
</svg>
