<svg width="14" height="13" viewBox="0 0 14 13" fill="none" xmlns="http://www.w3.org/2000/svg">
<g clip-path="url(#clip0_1_7742)">
<path d="M12.2084 1.60215L11.7031 1.04025C11.4997 0.802341 11.4997 0.416403 11.7031 0.178493C11.9087 -0.0594934 12.2412 -0.0594934 12.4272 0.178468L13.8272 1.80324C13.9453 1.9175 14 2.07263 14 2.23412C14 2.39586 13.9453 2.55175 13.8272 2.64316L12.4272 4.26816C12.2412 4.52715 11.9087 4.52715 11.7031 4.26816C11.4997 4.05234 11.4997 3.6664 11.7031 3.42773L12.2084 2.8209H3.5V3.22715C3.5 4.14629 2.87219 4.85215 2.1 4.85215H1.75V7.24902L0.7 8.46777V3.22715C0.7 2.35244 1.32672 1.60215 2.1 1.60215H8.39125L8.4 1.62474L12.2084 1.60215ZM12.25 8.10215V5.75097L13.3 4.53222V9.72715C13.3 10.6463 12.6722 11.3521 11.9 11.3521H1.79244L2.27719 11.959C2.50031 12.1977 2.50031 12.5836 2.27719 12.7994C2.09125 13.0584 1.75875 13.0584 1.55378 12.7994L0.153759 11.1744C0.0553 11.083 -6.56192e-06 10.9281 5.83947e-10 10.7428C5.83947e-10 10.6031 0.0553219 10.4482 0.153781 10.334L1.55378 8.70898C1.75875 8.47285 2.09125 8.47285 2.27719 8.70898C2.50031 8.94765 2.50031 9.33359 2.27719 9.54941L1.79244 10.1334H5.58031C5.60219 10.1334 5.60656 10.1334 5.60875 10.1334H10.5V9.72715C10.5 8.85117 11.1278 8.10215 11.9 8.10215H12.25ZM4.9 6.47715C4.9 5.13144 5.82094 4.03965 7 4.03965C8.15938 4.03965 9.1 5.13144 9.1 6.47715C9.1 7.8457 8.15938 8.91465 7 8.91465C5.82094 8.91465 4.9 7.8457 4.9 6.47715Z" fill="#6B778C"/>
</g>
<defs>
<clipPath id="clip0_1_7742">
<rect width="14" height="13" fill="white"/>
</clipPath>
</defs>
</svg>
