<svg width="12" height="14" viewBox="0 0 12 14" fill="none" xmlns="http://www.w3.org/2000/svg">
<path d="M7.28571 8.3125H4.71429C2.11071 8.3125 0 10.4672 0 13.125C0 13.6082 0.383839 14 0.857143 14H11.1429C11.6162 14 12 13.6082 12 13.125C12 10.4672 9.88929 8.3125 7.28571 8.3125ZM1.31223 12.6875C1.52384 10.9621 2.96786 9.625 4.71429 9.625H7.28571C9.03107 9.625 10.4759 10.9635 10.6875 12.6875H1.31223ZM6 7C7.89348 7 9.42857 5.43293 9.42857 3.5C9.42857 1.56707 7.89348 0 6 0C4.10652 0 2.57143 1.56707 2.57143 3.5C2.57143 5.4332 4.10625 7 6 7ZM6 1.3125C7.18152 1.3125 8.14286 2.29387 8.14286 3.5C8.14286 4.70613 7.18152 5.6875 6 5.6875C4.81848 5.6875 3.85714 4.70586 3.85714 3.5C3.85714 2.29387 4.81875 1.3125 6 1.3125Z" fill="white"/>
</svg>
