<svg id="fi_4819661" enable-background="new 0 0 512 512" height="512" viewBox="0 0 512 512" width="512" xmlns="http://www.w3.org/2000/svg"><g><g><g><g><path d="m247.593 40.441c-4.204 0-7.611-3.408-7.611-7.612 0-9.708-7.898-17.606-17.607-17.606-9.708 0-17.607 7.898-17.607 17.606 0 4.204-3.408 7.612-7.611 7.612-4.204 0-7.612-3.408-7.612-7.612 0-18.102 14.728-32.829 32.83-32.829s32.829 14.727 32.829 32.829c0 4.204-3.408 7.612-7.611 7.612z" fill="#323c3d"></path></g><path d="m407.315 295.08v-211.816c0-18.571-15.055-33.626-33.626-33.626h-75.656-151.317-75.658c-18.571 0-33.626 15.055-33.626 33.626v395.11c0 18.571 15.055 33.626 33.626 33.626h302.631c18.571 0 33.626-15.055 33.626-33.626v-18.495z" fill="#9f5f4b"></path><path d="m373.689 49.638h-23.342c18.571 0 33.626 15.055 33.626 33.626v211.816 164.798 18.495c0 18.571-15.055 33.626-33.626 33.626h23.342c18.571 0 33.626-15.055 33.626-33.626v-18.495-164.798-211.816c0-18.571-15.055-33.626-33.626-33.626z" fill="#724435"></path><path d="m373.689 100.08c0-9.286-7.527-16.813-16.813-16.813h-269.006c-9.285 0-16.813 7.527-16.813 16.813v361.483c0 9.285 7.527 16.813 16.813 16.813h269.006c9.286 0 16.813-7.527 16.813-16.813v-1.684z" fill="#f2f2fc"></path><path d="m356.876 83.267h-23.341c9.285 0 16.813 7.527 16.813 16.813v359.798 1.684c0 9.285-7.527 16.813-16.813 16.813h23.341c9.286 0 16.813-7.527 16.813-16.813v-1.684-359.798c0-9.286-7.527-16.813-16.813-16.813z" fill="#e2d9fb"></path><path d="m282.032 100.082h-119.314c-8.837 0-16-7.163-16-16v-43.254c0-4.418 3.582-8 8-8h135.315c4.418 0 8 3.582 8 8v43.254c-.001 8.837-7.164 16-16.001 16z" fill="#3f4b4b"></path><path d="m289.913 32.828h-23.342c4.484 0 8.119 3.635 8.119 8.119v42.897c0 8.968-7.27 16.238-16.238 16.238h23.342c8.968 0 16.238-7.27 16.238-16.238v-42.897c0-4.484-3.635-8.119-8.119-8.119z" fill="#323c3d"></path><g><g fill="#3f4b4b"><path d="m315.252 234.586h-118.504c-4.418 0-8-3.582-8-8v-17.626c0-4.418 3.582-8 8-8h118.504c4.418 0 8 3.582 8 8v17.626c0 4.419-3.582 8-8 8z"></path><path d="m315.252 318.651h-118.504c-4.418 0-8-3.582-8-8v-17.626c0-4.418 3.582-8 8-8h118.504c4.418 0 8 3.582 8 8v17.626c0 4.418-3.582 8-8 8z"></path><path d="m315.252 402.716h-118.504c-4.418 0-8-3.582-8-8v-17.626c0-4.418 3.582-8 8-8h118.504c4.418 0 8 3.582 8 8v17.626c0 4.418-3.582 8-8 8z"></path></g><path d="m315.133 200.96h-23.342c4.484 0 8.119 3.635 8.119 8.119v17.388c0 4.484-3.635 8.119-8.119 8.119h23.342c4.484 0 8.119-3.635 8.119-8.119v-17.388c0-4.484-3.635-8.119-8.119-8.119z" fill="#323c3d"></path><path d="m264.813 158.928h-84.878c-4.418 0-8-3.582-8-8v-17.626c0-4.418 3.582-8 8-8h84.878c4.418 0 8 3.582 8 8v17.626c0 4.418-3.582 8-8 8z" fill="#9ee2f8"></path><path d="m264.694 125.302h-23.342c4.484 0 8.119 3.635 8.119 8.119v17.388c0 4.484-3.635 8.119-8.119 8.119h23.342c4.484 0 8.119-3.635 8.119-8.119v-17.388c0-4.484-3.635-8.119-8.119-8.119z" fill="#6aa9ff"></path><path d="m315.133 285.025h-23.342c4.484 0 8.119 3.635 8.119 8.119v17.388c0 4.484-3.635 8.119-8.119 8.119h23.342c4.484 0 8.119-3.635 8.119-8.119v-17.388c0-4.484-3.635-8.119-8.119-8.119z" fill="#323c3d"></path><path d="m315.133 369.09h-23.342c4.484 0 8.119 3.635 8.119 8.119v17.388c0 4.484-3.635 8.119-8.119 8.119h23.342c4.484 0 8.119-3.635 8.119-8.119v-17.388c0-4.484-3.635-8.119-8.119-8.119z" fill="#323c3d"></path></g></g><path d="m222.375 75.658c-4.204 0-7.611 3.408-7.611 7.612v16.813h15.223v-16.813c-.001-4.204-3.409-7.612-7.612-7.612z" fill="#323c3d"></path></g><g><path d="m428.333 321.135h37.829v80.53c0 4.643-3.764 8.406-8.407 8.406h-92.471c-4.643 0-8.406-3.764-8.406-8.406v-80.53h37.829z" fill="#9ee2f8"></path><path d="m442.818 321.135v80.53c0 4.643-3.764 8.406-8.406 8.406h23.343c4.643 0 8.407-3.764 8.407-8.406v-80.53z" fill="#6aa9ff"></path><path d="m394.707 321.135h-37.829v29.265h109.284v-29.265h-37.829z" fill="#6aa9ff"></path><path d="m466.162 293.432h-37.829l-12.719 11.95-20.907-11.95h-37.829c-4.643 0-8.407 3.764-8.407 8.406v16.813c0 4.643 3.764 8.406 8.407 8.406h88.324l20.96-4.461v4.461c4.643 0 8.406-3.764 8.406-8.406v-16.813c0-4.643-3.764-8.406-8.406-8.406z" fill="#9ee2f8"></path><path d="m420.333 343.871h-17.626c-4.418 0-8-3.582-8-8v-42.439h33.626v42.439c0 4.418-3.582 8-8 8z" fill="#f2f2fc"></path><path d="m466.162 293.432h-23.342c4.643 0 8.406 3.764 8.406 8.406v16.813c0 4.643-3.764 8.406-8.406 8.406h23.342c4.643 0 8.406-3.764 8.406-8.406v-16.813c0-4.643-3.764-8.406-8.406-8.406z" fill="#6aa9ff"></path><path d="m404.942 293.432v42.32c0 3.423-2.121 6.345-5.118 7.539.929.37 1.94.58 3.001.58h17.388c4.484 0 8.119-3.635 8.119-8.119v-42.32z" fill="#e2d9fb"></path></g><g><path d="m147.003 250.605h-34.201c-8.674 0-15.73-7.057-15.73-15.73v-34.201c0-8.674 7.057-15.73 15.73-15.73h34.201c8.674 0 15.73 7.056 15.73 15.73v34.201c0 8.673-7.056 15.73-15.73 15.73zm-34.201-50.44c-.28 0-.507.228-.507.508v34.201c0 .279.228.508.507.508h34.201c.28 0 .508-.228.508-.508v-34.201c0-.28-.228-.508-.508-.508z" fill="#bee75e"></path></g><g><path d="m147.003 334.669h-34.201c-8.674 0-15.73-7.057-15.73-15.73v-34.201c0-8.674 7.057-15.73 15.73-15.73h34.201c8.674 0 15.73 7.056 15.73 15.73v34.201c0 8.673-7.056 15.73-15.73 15.73zm-34.201-50.439c-.28 0-.507.228-.507.508v34.201c0 .28.228.507.507.507h34.201c.28 0 .508-.228.508-.507v-34.201c0-.28-.228-.508-.508-.508z" fill="#bee75e"></path></g><g><path d="m147.003 418.733h-34.201c-8.674 0-15.73-7.056-15.73-15.73v-34.2c0-8.674 7.057-15.73 15.73-15.73h34.201c8.674 0 15.73 7.057 15.73 15.73v34.2c0 8.674-7.056 15.73-15.73 15.73zm-34.201-50.438c-.28 0-.507.228-.507.507v34.2c0 .28.228.507.507.507h34.201c.28 0 .508-.228.508-.507v-34.2c0-.28-.228-.507-.508-.507z" fill="#bee75e"></path></g></g></svg>