<svg version="1.1" id="fi_946216" xmlns="http://www.w3.org/2000/svg" xmlns:xlink="http://www.w3.org/1999/xlink" x="0px" y="0px" viewBox="0 0 512 512" style="enable-background:new 0 0 512 512;" xml:space="preserve">
<path style="fill:#FCB043;" d="M494.932,136.529c9.426,0,17.068,7.642,17.068,17.067v307.199c0,9.426-7.642,17.068-17.068,17.068
	h-89.6H106.667h-89.6C7.642,477.864,0,470.223,0,460.796V153.597c0-9.426,7.642-17.067,17.067-17.067h477.865V136.529z"></path>
<path style="fill:#F7A12F;" d="M491.396,153.597v307.199c0,9.426-7.642,17.068-17.068,17.068h20.604
	c9.426,0,17.068-7.642,17.068-17.068V153.597c0-9.426-7.642-17.067-17.068-17.067h-20.604
	C483.754,136.529,491.396,144.171,491.396,153.597z"></path>
<path style="fill:#FFCE94;" d="M510.564,146.758c-2.243-5.117-6.919-8.912-12.566-9.938H14.001
	c-5.647,1.026-10.323,4.822-12.566,9.939c0.014,0.01,0.026,0.023,0.04,0.033l249.949,183.697c1.361,1,2.968,1.501,4.575,1.501
	c1.607,0,3.214-0.5,4.575-1.501l249.947-183.697C510.537,146.781,510.549,146.768,510.564,146.758z"></path>
<path style="fill:#FCB043;" d="M510.523,146.792c0.014-0.01,0.027-0.023,0.041-0.034c-0.152-0.349-0.319-0.69-0.495-1.027
	c-0.109-0.21-0.226-0.416-0.343-0.621c-0.118-0.206-0.242-0.407-0.369-0.608c-0.19-0.301-0.388-0.594-0.596-0.881
	c-0.139-0.193-0.279-0.383-0.426-0.57c-0.151-0.193-0.307-0.382-0.467-0.569c-0.157-0.182-0.32-0.357-0.484-0.533
	c-0.255-0.273-0.52-0.538-0.793-0.794c-0.142-0.133-0.285-0.264-0.432-0.393c-0.198-0.173-0.396-0.345-0.601-0.509
	c-0.271-0.216-0.549-0.423-0.833-0.623c-0.228-0.16-0.463-0.311-0.698-0.459c-0.133-0.084-0.269-0.165-0.404-0.245
	c-0.431-0.255-0.874-0.491-1.328-0.709c-0.108-0.053-0.215-0.107-0.326-0.157c-0.274-0.124-0.551-0.24-0.832-0.35
	c-0.108-0.042-0.218-0.079-0.328-0.119c-0.499-0.183-1.008-0.343-1.526-0.48c-0.124-0.033-0.248-0.066-0.373-0.096
	c-0.302-0.072-0.606-0.14-0.914-0.196l0,0h-20.604c7.961,1.446,14.002,8.4,14.002,16.778v7.25L510.523,146.792z"></path>
<path style="fill:#CAEBF9;" d="M113.285,443.732H40.314c-3.414,0-6.181-2.767-6.181-6.181v-72.971c0-3.414,2.767-6.181,6.181-6.181
	h72.971c3.414,0,6.181,2.767,6.181,6.181v72.971C119.466,440.965,116.699,443.732,113.285,443.732z"></path>
<path style="fill:#04A1EE;" d="M87.686,418.133H65.913c-3.414,0-6.181-2.767-6.181-6.181v-21.772c0-3.414,2.767-6.181,6.181-6.181
	h21.773c3.414,0,6.181,2.767,6.181,6.181v21.773C93.867,415.366,91.1,418.133,87.686,418.133z"></path>
<g>
	<path style="fill:#3B4F66;" d="M204.799,367.739h-51.2c-4.267,0-7.726,3.459-7.726,7.726s3.459,7.726,7.726,7.726h51.2
		c4.267,0,7.726-3.459,7.726-7.726C212.525,371.197,209.066,367.739,204.799,367.739z"></path>
	<path style="fill:#3B4F66;" d="M204.799,401.875h-51.198c-4.267,0-7.726,3.459-7.726,7.726c0,4.267,3.459,7.726,7.726,7.726h51.198
		c4.267,0,7.726-3.459,7.726-7.726C212.525,405.335,209.066,401.875,204.799,401.875z"></path>
	<path style="fill:#3B4F66;" d="M256,401.875h-25.6c-4.267,0-7.726,3.459-7.726,7.726c0,4.267,3.459,7.726,7.726,7.726H256
		c4.267,0,7.726-3.459,7.726-7.726C263.726,405.335,260.267,401.875,256,401.875z"></path>
</g>
<path style="fill:#CAEBF9;" d="M353.716,118.298l-15.279-3.82c-1.95-7.31-4.854-14.226-8.558-20.623l8.113-13.52
	c1.46-2.432,1.077-5.545-0.929-7.551l-17.311-17.311c-2.006-2.006-5.119-2.389-7.551-0.929l-13.52,8.112
	c-6.397-3.704-13.313-6.608-20.622-8.558l-3.82-15.28c-0.688-2.752-3.161-4.682-5.997-4.682H243.76
	c-2.836,0-5.309,1.931-5.997,4.682l-3.82,15.281c-7.309,1.951-14.224,4.854-20.621,8.558l-13.523-8.114
	c-2.432-1.46-5.545-1.077-7.55,0.929l-17.311,17.311c-2.006,2.006-2.389,5.119-0.929,7.55l8.114,13.523
	c-3.704,6.396-6.607,13.311-8.557,20.619l-15.283,3.821c-2.752,0.688-4.682,3.161-4.682,5.997v24.481
	c0,2.836,1.931,5.309,4.682,5.997l15.283,3.821c1.95,7.308,4.853,14.223,8.556,20.619l-8.115,13.524
	c-1.46,2.432-1.077,5.545,0.929,7.551l17.311,17.311c2.006,2.006,5.119,2.389,7.55,0.929l13.524-8.114
	c6.396,3.704,13.311,6.607,20.619,8.558l3.82,15.283c0.688,2.752,3.161,4.682,5.997,4.682h24.481c2.836,0,5.309-1.931,5.997-4.682
	l3.82-15.281c7.308-1.95,14.224-4.853,20.621-8.557l13.522,8.114c2.432,1.459,5.545,1.076,7.551-0.929l17.311-17.311
	c2.006-2.006,2.389-5.119,0.929-7.55l-8.113-13.521c3.705-6.397,6.608-13.313,8.559-20.622l15.28-3.82
	c2.752-0.688,4.682-3.161,4.682-5.997v-24.481C358.398,121.459,356.467,118.986,353.716,118.298z M256.001,153.597
	c-9.424,0-17.065-7.64-17.065-17.065s7.64-17.065,17.065-17.065c9.425,0,17.065,7.64,17.065,17.065S265.425,153.597,256.001,153.597
	z"></path>
<path style="fill:#3B4F66;" d="M256.001,93.869c-23.563,0-42.665,19.102-42.665,42.665s19.102,42.665,42.665,42.665
	c23.563,0,42.665-19.102,42.665-42.665S279.564,93.869,256.001,93.869z M256.001,153.597c-9.424,0-17.065-7.64-17.065-17.065
	s7.64-17.065,17.065-17.065c9.425,0,17.065,7.64,17.065,17.065S265.425,153.597,256.001,153.597z"></path>
<g>
	<path style="fill:#BCCED5;" d="M332.746,183.996l-12.997,12.997c-2.006,2.006-5.119,2.389-7.551,0.929l-13.522-8.114
		c-6.397,3.704-13.313,6.607-20.621,8.557l-3.82,15.281c-0.688,2.752-3.161,4.682-5.997,4.682h-24.481
		c-2.836,0-5.309-1.931-5.997-4.682l-3.82-15.283c-7.308-1.951-14.223-4.854-20.619-8.558l-13.524,8.114
		c-2.432,1.459-5.545,1.076-7.55-0.929l-12.997-12.997l-5.244,8.739c-1.46,2.432-1.077,5.545,0.929,7.551l17.311,17.311
		c2.006,2.006,5.119,2.389,7.55,0.929l13.524-8.114c6.396,3.704,13.311,6.607,20.619,8.558l3.82,15.283
		c0.688,2.752,3.161,4.682,5.997,4.682h24.481c2.836,0,5.309-1.931,5.997-4.682l3.82-15.281c7.308-1.95,14.224-4.853,20.621-8.557
		l13.522,8.114c2.432,1.459,5.545,1.076,7.551-0.929l17.311-17.311c2.006-2.006,2.389-5.119,0.929-7.55L332.746,183.996z"></path>
	<path style="fill:#BCCED5;" d="M173.565,137.986l-15.283-3.821c-2.752-0.688-4.682-3.161-4.682-5.997v20.604
		c0,2.836,1.931,5.309,4.682,5.997l15.283,3.821c0.033,0.125,0.071,0.247,0.105,0.372
		C172.123,148.056,173.565,137.986,173.565,137.986z"></path>
	<path style="fill:#BCCED5;" d="M353.716,134.169l-15.277,3.819c0.003,0.022,1.439,10.069-0.103,20.957
		c0.032-0.118,0.068-0.235,0.1-0.353l15.28-3.82c2.752-0.688,4.682-3.161,4.682-5.997v-20.604
		C358.398,131.009,356.467,133.481,353.716,134.169z"></path>
</g>
<g>
</g>
<g>
</g>
<g>
</g>
<g>
</g>
<g>
</g>
<g>
</g>
<g>
</g>
<g>
</g>
<g>
</g>
<g>
</g>
<g>
</g>
<g>
</g>
<g>
</g>
<g>
</g>
<g>
</g>
</svg>