<svg id="fi_6732718" enable-background="new 0 0 512 512" height="512" viewBox="0 0 512 512" width="512" xmlns="http://www.w3.org/2000/svg"><g><path d="m197.629 36.594c-53.409 19.439-97.028 56.734-124.36 105.931-4.445 8-1.193 18.093 7.103 21.958l.313.146c7.467 3.478 16.384.638 20.389-6.56 51.115-91.869 165.801-129.959 262.484-84.581 100.333 47.092 144.119 167.397 97.529 267.963-32.235 69.119-102.087 116.731-182.663 117.021-106.964.267-194.895-82.98-202.162-188.069-.152-2.201 2.525-3.404 4.085-1.844l12.747 12.746c6.293 6.294 16.498 6.294 22.791 0 6.294-6.293 6.294-16.498 0-22.791l-44.186-44.186c-6.293-6.294-16.498-6.294-22.791 0l-44.187 44.186c-6.294 6.293-6.294 16.498 0 22.791 3.147 3.147 7.271 4.72 11.396 4.72 4.124 0 8.249-1.573 11.396-4.72l12.74-12.739c1.461-1.461 3.956-.508 4.075 1.554 3.31 57.314 27.196 110.735 68.123 151.663 145.573 147.384 400.442 41.092 399.461-165.462 4.586-157.612-167.82-278.08-314.283-219.727z" fill="#a2e62e"></path><g fill="#95ce25"><path d="m87.297 146.021c-3.164 5.687-9.394 8.637-15.552 7.918 1.092 4.466 4.101 8.434 8.627 10.544l.313.146c7.534 3.513 16.435.531 20.483-6.729 37.067-66.471 107.437-104.726 180.143-103.518-77.781-12.543-153.554 18.92-194.014 91.639z"></path><path d="m267.328 458.186c-3.275.175-6.572.278-9.888.288-103.705.252-189.548-80.681-201.31-181.334-.419-3.588 2.413-6.734 6.026-6.734h14.107c7.025 101.424 89.178 182.506 191.065 187.78z"></path><path d="m265.501 21.889c119.174 5.741 229.097 108.163 225.421 234.432.646 136.012-109.643 228.542-226.614 233.806 124.402 5.625 248.287-89.678 247.602-233.806 3.891-133.656-119.497-240.593-246.409-234.432z"></path><path d="m59.449 223.072 35.447 35.442c6.134 6.133 5.646 17.757-.207 24.171 6.319 4.859 15.408 4.409 21.195-1.38 6.294-6.293 6.294-16.498 0-22.791l-44.186-44.186c-6.293-6.294-16.498-6.294-22.791 0l-4.444 4.444c5.223-1.19 10.919.233 14.986 4.3z"></path></g><path d="m311.752 205.135c0 12.587-2.935 24.483-8.158 35.051-12.937 26.162-39.892 44.156-71.049 44.156-5.057 0-10.012-.474-14.801-1.38-36.668-6.932-64.406-39.14-64.406-77.827 0-43.744 35.463-79.207 79.207-79.207s79.207 35.463 79.207 79.207z" fill="#fee97d"></path><path d="m303.595 240.186c-12.937 26.162-39.892 44.156-71.049 44.156-5.057 0-10.012-.474-14.801-1.38 12.927-26.162 39.882-44.156 71.049-44.156 5.057 0 10.001.473 14.801 1.38z" fill="#f9da55"></path><path d="m232.549 125.928c-5.573 0-11.01.582-16.258 1.677 35.945 7.5 62.949 39.358 62.949 77.53s-27.004 70.03-62.949 77.53c5.248 1.095 10.685 1.677 16.258 1.677 43.745 0 79.207-35.462 79.207-79.207s-35.462-79.207-79.207-79.207z" fill="#f9da55"></path><circle cx="321.305" cy="318.011" fill="#fee97d" r="79.207"></circle><path d="m321.305 238.804c-5.573 0-11.01.582-16.258 1.677 35.945 7.5 62.949 39.358 62.949 77.53s-27.004 70.03-62.949 77.53c5.248 1.095 10.684 1.677 16.258 1.677 43.745 0 79.207-35.462 79.207-79.207s-35.462-79.207-79.207-79.207z" fill="#f9da55"></path><circle cx="184.359" cy="340.07" fill="#fee97d" r="22.53"></circle><path d="m231.899 156.253c-4.228.126-7.488 3.815-7.488 8.045v2.153c-7.558 2.309-13.288 9.228-14.962 18.086-1.612 8.533.881 16.575 6.447 20.941 5.381 4.31 13.986 7.646 20.868 10.066 4.295 1.52 6.333 4.302 5.738 7.833-.62 3.681-4.144 7.662-10.423 7.703-6.318.051-8.189-.232-12.882-3.272-3.512-2.274-8.335-1.536-10.742 1.887-2.526 3.593-1.557 8.534 2.091 10.917 5.271 3.444 9.226 4.953 13.866 5.559v1.909c0 4.23 3.26 7.919 7.488 8.045 4.375.131 7.962-3.377 7.962-7.721v-3.04c8.454-2.52 16.138-9.095 17.876-19.419 3.163-22.197-16.883-23.314-32.245-32.573-3.039-3.508.461-13.983 7.013-12.782 9.931.182 11.08 8.585 18.688 1.852 3.046-3.302 2.642-8.542-.936-11.258-3.289-2.497-6.353-4.228-10.396-5.235v-1.972c-.001-4.347-3.588-7.854-7.963-7.724z" fill="#d77f4a"></path><g fill="#99e6fc"><path d="m346.807 156.079v-16.408c0-4.266-3.458-7.725-7.725-7.725s-7.725 3.459-7.725 7.725v16.408c0 4.266 3.458 7.725 7.725 7.725s7.725-3.459 7.725-7.725z"></path><path d="m391.605 145.866-20.342 20.343c-7.192 6.987 3.943 18.114 10.926 10.925l20.343-20.343c3.017-3.017 3.017-7.908 0-10.925-3.019-3.016-7.909-3.016-10.927 0z"></path><path d="m384.592 209.315c0 4.266 3.458 7.725 7.725 7.725h16.409c4.267 0 7.725-3.459 7.725-7.725s-3.458-7.725-7.725-7.725h-16.409c-4.267 0-7.725 3.459-7.725 7.725z"></path></g><path d="m320.647 269.13c-4.228.126-7.488 3.815-7.488 8.045v2.153c-7.558 2.309-13.288 9.228-14.962 18.086-1.612 8.533.881 16.575 6.447 20.941 5.381 4.31 13.986 7.646 20.868 10.066 4.295 1.52 6.333 4.302 5.738 7.833-.62 3.681-4.144 7.662-10.423 7.703-6.318.051-8.189-.232-12.882-3.272-3.512-2.274-8.335-1.536-10.742 1.887-2.526 3.593-1.557 8.534 2.091 10.917 5.271 3.444 9.226 4.953 13.866 5.559v1.909c0 4.23 3.26 7.919 7.488 8.045 4.375.131 7.962-3.377 7.962-7.721v-3.04c8.454-2.52 16.138-9.095 17.876-19.419 3.163-22.197-16.883-23.314-32.245-32.573-3.039-3.508.461-13.983 7.013-12.782 9.931.182 11.08 8.585 18.688 1.852 3.046-3.302 2.642-8.542-.936-11.258-3.289-2.497-6.353-4.228-10.396-5.235v-1.972c-.001-4.348-3.588-7.855-7.963-7.724z" fill="#d77f4a"></path><path d="m206.844 338.64c-.789-12.418-11.496-21.845-23.914-21.055-3.529.224-6.816 1.252-9.696 2.89 6.381 3.627 10.871 10.293 11.371 18.166.565 8.889-4.106 16.899-11.359 21.024 3.684 2.094 7.998 3.179 12.543 2.89 12.418-.79 21.845-11.497 21.055-23.915z" fill="#f9da55"></path></g></svg>