<svg version="1.1" id="fi_595545" xmlns="http://www.w3.org/2000/svg" xmlns:xlink="http://www.w3.org/1999/xlink" x="0px" y="0px" viewBox="0 0 512 512" style="enable-background:new 0 0 512 512;" xml:space="preserve">
<rect y="347.188" style="fill:#AAC191;" width="511.997" height="100.372"></rect>
<rect y="64.44" style="fill:#718A7A;" width="511.997" height="307.815"></rect>
<path style="fill:#C0D9A8;" d="M309.067,340.622h140.215c0-15.806,12.917-28.637,28.723-28.637V127.07
	c-15.806,0-28.723-12.832-28.723-28.637H309.067H202.844H62.63c0,15.806-12.831,28.637-28.637,28.637v129.331v15.674v39.908
	c15.806,0,28.637,12.831,28.637,28.637h140.215"></path>
<path style="fill:#718A7A;" d="M309.067,289.464c17.846-17.081,29.233-42.66,29.233-71.297c0-28.553-11.387-54.132-29.233-71.212
	l-106.224,0.085c-17.846,17.081-29.147,42.66-29.147,71.127c0,28.553,11.303,54.132,29.147,71.212"></path>
<path style="fill:#C6DBA3;" d="M323.82,248.848c-4.251,13.573-11.708,25.505-21.254,34.604h-93.221
	c-9.545-9.173-16.929-21.031-21.254-34.604c6.116-3.281,13.274-6.264,21.254-8.502h93.221
	C310.546,242.584,317.706,245.567,323.82,248.848z"></path>
<g>
	<path style="fill:#718A7A;" d="M104.099,213.815c-10.908,0-19.782-8.874-19.782-19.782c0-10.908,8.874-19.782,19.782-19.782
		s19.782,8.874,19.782,19.782c0,4.328,3.509,7.837,7.837,7.837s7.837-3.509,7.837-7.837c0-16.856-11.828-30.994-27.619-34.571
		v-4.731c0-4.328-3.509-7.837-7.837-7.837c-4.328,0-7.837,3.509-7.837,7.837v4.731c-15.79,3.578-27.619,17.715-27.619,34.571
		c0,19.55,15.905,35.455,35.455,35.455c10.908,0,19.782,8.874,19.782,19.782s-8.874,19.782-19.782,19.782
		s-19.782-8.874-19.782-19.782c0-4.328-3.509-7.837-7.837-7.837c-4.328,0-7.837,3.509-7.837,7.837
		c0,16.856,11.828,30.994,27.619,34.571v4.731c0,4.328,3.509,7.837,7.837,7.837c4.328,0,7.837-3.509,7.837-7.837v-4.731
		c15.79-3.578,27.619-17.715,27.619-34.571C139.555,229.719,123.649,213.815,104.099,213.815z"></path>
	<path style="fill:#718A7A;" d="M334.358,323.902H177.635c-4.328,0-7.837-3.509-7.837-7.837s3.509-7.837,7.837-7.837h156.723
		c4.328,0,7.837,3.509,7.837,7.837S338.686,323.902,334.358,323.902z"></path>
</g>
<rect x="202.887" y="64.44" style="fill:#CCAE02;" width="106.224" height="383.12"></rect>
<rect x="218.382" y="64.44" style="fill:#FDDD00;" width="75.243" height="383.12"></rect>
<g>
	<circle style="fill:#718A7A;" cx="410.026" cy="221.654" r="29.743"></circle>
	<path style="fill:#718A7A;" d="M443.718,286.289h-67.392c-4.328,0-7.837-3.509-7.837-7.837s3.509-7.837,7.837-7.837h67.392
		c4.328,0,7.837,3.509,7.837,7.837S448.046,286.289,443.718,286.289z"></path>
	<rect x="0.003" y="385.326" style="fill:#718A7A;" width="511.997" height="9.404"></rect>
	<rect x="0.003" y="405.179" style="fill:#718A7A;" width="511.997" height="9.404"></rect>
	<rect x="0.003" y="425.032" style="fill:#718A7A;" width="511.997" height="9.404"></rect>
</g>
<rect x="202.887" y="372.255" style="fill:#CCAE02;" width="106.224" height="75.305"></rect>
<rect x="218.382" y="372.255" style="fill:#D8B60E;" width="75.243" height="75.305"></rect>
<g>
</g>
<g>
</g>
<g>
</g>
<g>
</g>
<g>
</g>
<g>
</g>
<g>
</g>
<g>
</g>
<g>
</g>
<g>
</g>
<g>
</g>
<g>
</g>
<g>
</g>
<g>
</g>
<g>
</g>
</svg>