<svg id="fi_3034713" enable-background="new 0 0 512 512" height="512" viewBox="0 0 512 512" width="512" xmlns="http://www.w3.org/2000/svg"><g><g><g><g><g><path d="m485.58 449.275h-474.037c-6.375 0-11.543-5.168-11.543-11.543v-372.463c0-6.375 5.168-11.543 11.543-11.543h474.037c6.375 0 11.543 5.168 11.543 11.543v372.462c0 6.376-5.168 11.544-11.543 11.544z" fill="#eff5f6"></path><path d="m497.118 65.265v372.471c0 6.372-5.16 11.543-11.543 11.543h-41.627c6.372 0 11.543-5.171 11.543-11.543v-372.471c0-6.372-5.171-11.543-11.543-11.543h41.627c6.383 0 11.543 5.172 11.543 11.543z" fill="#cbe5e7"></path></g><g><g><g><path d="m89.213 165.525h-28.23c-6.375 0-11.543-5.168-11.543-11.543v-28.23c0-6.375 5.168-11.543 11.543-11.543h28.23c6.375 0 11.543 5.168 11.543 11.543v28.23c0 6.375-5.168 11.543-11.543 11.543z" fill="#1475cb"></path></g><g><path d="m175.945 165.525h-28.23c-6.375 0-11.543-5.168-11.543-11.543v-28.23c0-6.375 5.168-11.543 11.543-11.543h28.23c6.375 0 11.543 5.168 11.543 11.543v28.23c0 6.375-5.168 11.543-11.543 11.543z" fill="#1475cb"></path></g><g><path d="m262.676 165.525h-28.23c-6.375 0-11.543-5.168-11.543-11.543v-28.23c0-6.375 5.168-11.543 11.543-11.543h28.23c6.375 0 11.543 5.168 11.543 11.543v28.23c0 6.375-5.167 11.543-11.543 11.543z" fill="#1475cb"></path></g><g><path d="m349.408 165.525h-28.23c-6.375 0-11.543-5.168-11.543-11.543v-28.23c0-6.375 5.168-11.543 11.543-11.543h28.23c6.375 0 11.543 5.168 11.543 11.543v28.23c0 6.375-5.168 11.543-11.543 11.543z" fill="#1475cb"></path></g><g><path d="m436.14 165.525h-28.23c-6.375 0-11.543-5.168-11.543-11.543v-28.23c0-6.375 5.168-11.543 11.543-11.543h28.23c6.375 0 11.543 5.168 11.543 11.543v28.23c0 6.375-5.168 11.543-11.543 11.543z" fill="#fb4a59"></path></g></g><g><g><path d="m89.213 258.449h-28.23c-6.375 0-11.543-5.168-11.543-11.543v-28.23c0-6.375 5.168-11.543 11.543-11.543h28.23c6.375 0 11.543 5.168 11.543 11.543v28.23c0 6.375-5.168 11.543-11.543 11.543z" fill="#1475cb"></path></g><g><path d="m175.945 258.449h-28.23c-6.375 0-11.543-5.168-11.543-11.543v-28.23c0-6.375 5.168-11.543 11.543-11.543h28.23c6.375 0 11.543 5.168 11.543 11.543v28.23c0 6.375-5.168 11.543-11.543 11.543z" fill="#1475cb"></path></g><g><path d="m262.676 258.449h-28.23c-6.375 0-11.543-5.168-11.543-11.543v-28.23c0-6.375 5.168-11.543 11.543-11.543h28.23c6.375 0 11.543 5.168 11.543 11.543v28.23c0 6.375-5.167 11.543-11.543 11.543z" fill="#1475cb"></path></g><g><path d="m349.408 258.449h-28.23c-6.375 0-11.543-5.168-11.543-11.543v-28.23c0-6.375 5.168-11.543 11.543-11.543h28.23c6.375 0 11.543 5.168 11.543 11.543v28.23c0 6.375-5.168 11.543-11.543 11.543z" fill="#1475cb"></path></g><g><path d="m436.14 258.449h-28.23c-6.375 0-11.543-5.168-11.543-11.543v-28.23c0-6.375 5.168-11.543 11.543-11.543h28.23c6.375 0 11.543 5.168 11.543 11.543v28.23c0 6.375-5.168 11.543-11.543 11.543z" fill="#fb4a59"></path></g></g><g><g><path d="m89.213 351.373h-28.23c-6.375 0-11.543-5.168-11.543-11.543v-28.23c0-6.375 5.168-11.543 11.543-11.543h28.23c6.375 0 11.543 5.168 11.543 11.543v28.23c0 6.375-5.168 11.543-11.543 11.543z" fill="#1475cb"></path></g><g><path d="m175.945 351.373h-28.23c-6.375 0-11.543-5.168-11.543-11.543v-28.23c0-6.375 5.168-11.543 11.543-11.543h28.23c6.375 0 11.543 5.168 11.543 11.543v28.23c0 6.375-5.168 11.543-11.543 11.543z" fill="#1475cb"></path></g><g><path d="m262.676 351.373h-28.23c-6.375 0-11.543-5.168-11.543-11.543v-28.23c0-6.375 5.168-11.543 11.543-11.543h28.23c6.375 0 11.543 5.168 11.543 11.543v28.23c0 6.375-5.167 11.543-11.543 11.543z" fill="#1475cb"></path></g></g></g></g></g><g><path d="m62.457 408.065h-13.016c-4.268 0-7.726-3.459-7.726-7.726s3.459-7.726 7.726-7.726h13.016c4.268 0 7.726 3.459 7.726 7.726s-3.459 7.726-7.726 7.726z" fill="#90bac4"></path></g><g><path d="m108.67 408.065h-13.016c-4.268 0-7.726-3.459-7.726-7.726s3.459-7.726 7.726-7.726h13.016c4.268 0 7.726 3.459 7.726 7.726.001 4.267-3.458 7.726-7.726 7.726z" fill="#90bac4"></path></g><g><path d="m464.881 408.065h-241.978c-4.268 0-7.726-3.459-7.726-7.726s3.459-7.726 7.726-7.726h241.978c4.268 0 7.726 3.459 7.726 7.726.001 4.267-3.458 7.726-7.726 7.726z" fill="#90bac4"></path></g></g><g><g><path d="m500.457 485.249h-269.678v-50.922h269.678c6.375 0 11.543 5.168 11.543 11.543v27.836c0 6.375-5.168 11.543-11.543 11.543z" fill="#90bac4"></path></g><g><path d="m511.997 445.874v27.83c0 6.372-5.16 11.543-11.543 11.543h-34.571c6.372 0 11.543-5.171 11.543-11.543v-27.83c0-6.383-5.171-11.543-11.543-11.543h34.571c6.383 0 11.543 5.16 11.543 11.543z" fill="#7da2b0"></path></g></g><g><g><path d="m164.07 445.87v27.836c0 6.375 5.168 11.543 11.543 11.543h65.057c3.188 0 5.772-2.584 5.772-5.772v-39.379c0-3.188-2.584-5.772-5.772-5.772h-65.057c-6.375.001-11.543 5.169-11.543 11.544z" fill="#3f5959"></path></g><g><path d="m246.437 440.102v39.373c0 3.186-2.586 5.772-5.772 5.772h-33.371c3.186 0 5.772-2.586 5.772-5.772v-39.373c0-3.186-2.586-5.772-5.772-5.772h33.371c3.187.001 5.772 2.586 5.772 5.772z" fill="#384848"></path></g></g><g><path d="m336.725 467.682v17.565h-15.453v-17.565c0-4.275 3.451-7.726 7.726-7.726 4.266-.001 7.727 3.45 7.727 7.726z" fill="#7da2b0"></path></g><g><path d="m368.681 467.682v17.565h-15.453v-17.565c0-4.275 3.451-7.726 7.726-7.726 4.266-.001 7.727 3.45 7.727 7.726z" fill="#7da2b0"></path></g><g><path d="m400.637 467.682v17.565h-15.453v-17.565c0-4.275 3.451-7.726 7.726-7.726 4.266-.001 7.727 3.45 7.727 7.726z" fill="#7da2b0"></path></g><g><g><path d="m49.628 77.821c-7.624 0-13.805-6.181-13.805-13.805v-23.46c0-7.624 6.181-13.805 13.805-13.805 7.624 0 13.805 6.181 13.805 13.805v23.46c0 7.625-6.181 13.805-13.805 13.805z" fill="#3f5959"></path></g><g><path d="m106.466 77.821c-7.624 0-13.805-6.181-13.805-13.805v-23.46c0-7.624 6.181-13.805 13.805-13.805 7.624 0 13.805 6.181 13.805 13.805v23.46c0 7.625-6.18 13.805-13.805 13.805z" fill="#3f5959"></path></g><g><path d="m163.304 77.821c-7.624 0-13.805-6.181-13.805-13.805v-23.46c0-7.624 6.181-13.805 13.805-13.805 7.624 0 13.805 6.181 13.805 13.805v23.46c0 7.625-6.18 13.805-13.805 13.805z" fill="#3f5959"></path></g><g><path d="m220.142 77.821c-7.624 0-13.805-6.181-13.805-13.805v-23.46c0-7.624 6.181-13.805 13.805-13.805 7.624 0 13.805 6.181 13.805 13.805v23.46c.001 7.625-6.18 13.805-13.805 13.805z" fill="#3f5959"></path></g><g><path d="m276.981 77.821c-7.624 0-13.805-6.181-13.805-13.805v-23.46c0-7.624 6.181-13.805 13.805-13.805 7.624 0 13.805 6.181 13.805 13.805v23.46c0 7.625-6.181 13.805-13.805 13.805z" fill="#3f5959"></path></g><g><path d="m333.819 77.821c-7.624 0-13.805-6.181-13.805-13.805v-23.46c0-7.624 6.181-13.805 13.805-13.805 7.624 0 13.805 6.181 13.805 13.805v23.46c0 7.625-6.181 13.805-13.805 13.805z" fill="#3f5959"></path></g><g><path d="m390.657 77.821c-7.624 0-13.805-6.181-13.805-13.805v-23.46c0-7.624 6.181-13.805 13.805-13.805 7.624 0 13.805 6.181 13.805 13.805v23.46c0 7.625-6.181 13.805-13.805 13.805z" fill="#3f5959"></path></g><g><path d="m447.495 77.821c-7.624 0-13.805-6.181-13.805-13.805v-23.46c0-7.624 6.181-13.805 13.805-13.805 7.624 0 13.805 6.181 13.805 13.805v23.46c0 7.625-6.181 13.805-13.805 13.805z" fill="#3f5959"></path></g></g></g></svg>