<svg width="14" height="12" viewBox="0 0 14 12" fill="none" xmlns="http://www.w3.org/2000/svg">
<path d="M1.3125 10.0714C1.3125 10.4277 1.60645 10.7143 1.96875 10.7143H13.3438C13.7074 10.7143 14 11.0009 14 11.3571C14 11.7134 13.7074 12 13.3438 12H1.96875C0.881563 12 0 11.1375 0 10.0714V0.642857C0 0.287946 0.293945 0 0.65625 0C1.01855 0 1.3125 0.287946 1.3125 0.642857V10.0714ZM9.19023 7.28839C8.95781 7.56161 8.54219 7.56161 8.28516 7.28839L6.10039 5.19375L3.94023 7.28839C3.70781 7.56161 3.29219 7.56161 3.03516 7.28839C2.78086 7.06071 2.78086 6.65357 3.03516 6.40179L5.66016 3.83036C5.7832 3.70982 5.95 3.64286 6.10039 3.64286C6.3 3.64286 6.4668 3.70982 6.56523 3.83036L8.75 5.94911L12.0039 2.75893C12.2609 2.50982 12.6766 2.50982 12.909 2.75893C13.1879 3.01071 13.1879 3.41786 12.909 3.64554L9.19023 7.28839Z" fill="#137749"/>
</svg>
