<svg width="16" height="15" viewBox="0 0 16 15" fill="none" xmlns="http://www.w3.org/2000/svg">
<path d="M8.19231 3.12259V0.0126953H0V14.0127H16V3.12259H8.19231ZM3.27692 12.4559H1.63846V10.8992H3.27692V12.4559ZM3.27692 9.34603H1.63846V7.78926H3.27692V9.34603ZM3.27692 6.23613H1.63846V4.67936H3.27692V6.23613ZM3.27692 3.12259H1.63846V1.56582H3.27692V3.12259ZM6.55385 12.4559H4.91538V10.8992H6.55385V12.4559ZM6.55385 9.34603H4.91538V7.78926H6.55385V9.34603ZM6.55385 6.23613H4.91538V4.67936H6.55385V6.23613ZM6.55385 3.12259H4.91538V1.56582H6.55385V3.12259ZM14.3615 12.4559H8.19231V10.8992H9.83077V9.34603H8.19231V7.78926H9.83077V6.23249H8.19231V4.67936H14.3615V12.4559ZM12.9154 6.23613H11.2769V7.7929H12.9154V6.23613ZM12.9154 9.34603H11.2769V10.9028H12.9154V9.34603Z" fill="#137749"/>
</svg>
