<svg width="14" height="12" viewBox="0 0 14 12" fill="none" xmlns="http://www.w3.org/2000/svg">
<g clip-path="url(#clip0_1_7820)">
<path d="M5.96094 0.133594C6.15562 -0.0445313 6.44437 -0.0445313 6.63906 0.133594L11.5084 4.56094C11.2941 4.52109 11.0753 4.5 10.85 4.5C10.5394 4.5 10.2353 4.53984 9.94656 4.61484L6.3 1.30008L2.45 4.8V10.125C2.45 10.5398 2.76281 10.875 3.15 10.875H4.2V7.3125C4.2 6.79453 4.59156 6.375 5.075 6.375H7.525C7.55781 6.375 7.58844 6.37734 7.61906 6.37969C7.41125 6.72188 7.25156 7.09922 7.14437 7.5H5.25V10.875H7.62344C7.89031 11.3156 8.23594 11.6977 8.63625 12H3.15C2.18356 12 1.4 11.1609 1.4 10.125V5.75391L0.864718 6.24141C0.643561 6.44297 0.312374 6.4125 0.124687 6.17578C-0.0628915 5.93906 -0.0357447 5.58516 0.185346 5.38359L5.96094 0.133594ZM14 8.625C14 10.4883 12.5891 12 10.85 12C9.11094 12 7.7 10.4883 7.7 8.625C7.7 6.76172 9.11094 5.25 10.85 5.25C12.5891 5.25 14 6.76172 14 8.625ZM11.8278 7.61016L10.5 9.03281L9.87219 8.36016C9.73656 8.2125 9.51344 8.2125 9.37781 8.36016C9.24 8.50547 9.24 8.74453 9.37781 8.88984L10.2528 9.82734C10.3884 9.975 10.6116 9.975 10.7472 9.82734L12.3222 8.13984C12.46 7.99453 12.46 7.75547 12.3222 7.61016C12.1866 7.4625 11.9634 7.4625 11.8278 7.61016Z" fill="#137749"/>
</g>
<defs>
<clipPath id="clip0_1_7820">
<rect width="14" height="12" fill="white"/>
</clipPath>
</defs>
</svg>
