
<svg version="1.1" id="Layer_1" xmlns="http://www.w3.org/2000/svg" fill="#137749"
	 viewBox="0 0 496 496">
<g>
			<path d="M125.576,240H160v96h176v-96h34.424L248,158.384L125.576,240z M272,320h-48v-24c0-13.232,10.768-24,24-24
				s24,10.768,24,24V320z M320,320h-32v-24c0-22.056-17.944-40-40-40c-22.056,0-40,17.944-40,40v24h-32v-80h144V320z M178.424,224
				L248,177.616L317.576,224H178.424z" fill="#137749"/>
			<path d="M450.392,200.12c-5.12-21.736-13.656-42.312-25.44-61.352c8.032-8.848,12.472-20.16,12.472-32.192
				c0-12.824-4.992-24.872-14.064-33.944c-9.064-9.064-21.12-14.056-33.936-14.056c-12.032,0-23.352,4.44-32.192,12.472
				C338.184,59.256,317.6,50.72,295.88,45.608C294.624,20.256,273.664,0,248,0s-46.624,20.256-47.88,45.608
				c-21.72,5.112-42.304,13.648-61.352,25.44c-8.84-8.032-20.16-12.472-32.192-12.472c-12.824,0-24.872,4.992-33.936,14.056
				c-9.072,9.064-14.064,21.12-14.064,33.944c0,12.024,4.44,23.344,12.472,32.192c-11.784,19.04-20.32,39.616-25.44,61.352
				C20.256,201.376,0,222.336,0,248s20.256,46.624,45.608,47.88c5.12,21.736,13.656,42.312,25.44,61.352
				c-8.032,8.848-12.472,20.16-12.472,32.192c0,12.824,4.992,24.872,14.064,33.944c9.064,9.064,21.12,14.056,33.936,14.056
				c12.032,0,23.352-4.44,32.192-12.472c19.048,11.792,39.632,20.328,61.352,25.44C201.376,475.744,222.336,496,248,496
				s46.624-20.256,47.88-45.608c21.72-5.112,42.304-13.648,61.352-25.44c8.84,8.032,20.16,12.472,32.192,12.472
				c12.824,0,24.872-4.992,33.936-14.056c9.072-9.064,14.064-21.12,14.064-33.944c0-12.024-4.44-23.344-12.472-32.192
				c11.784-19.04,20.32-39.616,25.44-61.352C475.744,294.624,496,273.664,496,248S475.744,201.376,450.392,200.12z M366.8,83.944
				c6.04-6.04,14.072-9.368,22.624-9.368c8.544,0,16.576,3.328,22.624,9.368c6.048,6.048,9.376,14.08,9.376,22.632
				s-3.328,16.584-9.376,22.632c-12.096,12.088-33.16,12.088-45.248,0c-6.048-6.048-9.376-14.08-9.376-22.632
				S360.752,89.992,366.8,83.944z M248,16c17.648,0,32,14.352,32,32s-14.352,32-32,32s-32-14.352-32-32S230.352,16,248,16z
				 M83.952,83.952c6.048-6.04,14.08-9.368,22.624-9.368s16.576,3.328,22.624,9.368c6.048,6.048,9.376,14.08,9.376,22.632
				s-3.328,16.584-9.376,22.632c-12.096,12.088-33.16,12.088-45.248,0c-6.048-6.048-9.376-14.08-9.376-22.632
				S77.904,90,83.952,83.952z M16,248c0-17.648,14.352-32,32-32s32,14.352,32,32s-14.352,32-32,32S16,265.648,16,248z
				 M129.2,412.048c-12.088,12.088-33.152,12.088-45.248,0c-6.048-6.048-9.376-14.08-9.376-22.632s3.328-16.584,9.376-22.632
				c6.048-6.04,14.08-9.368,22.624-9.368s16.576,3.328,22.624,9.368c6.048,6.048,9.376,14.08,9.376,22.632
				S135.248,406,129.2,412.048z M248,480c-17.648,0-32-14.352-32-32s14.352-32,32-32s32,14.352,32,32S265.648,480,248,480z
				 M412.048,412.048c-12.096,12.088-33.16,12.088-45.248,0c-6.048-6.048-9.376-14.08-9.376-22.632s3.328-16.584,9.376-22.632
				c6.048-6.04,14.08-9.368,22.624-9.368s16.576,3.328,22.624,9.368c6.048,6.048,9.376,14.08,9.376,22.632
				S418.096,406,412.048,412.048z M412.168,347.136c-6.912-3.728-14.672-5.712-22.744-5.712c-12.824,0-24.872,4.992-33.936,14.056
				c-9.072,9.064-14.064,21.12-14.064,33.944c0,8.072,1.984,15.84,5.72,22.752c-16.6,10.056-34.408,17.44-53.176,22.048
				C288.024,414.448,269.68,400,248,400s-40.024,14.448-45.96,34.216c-18.768-4.608-36.584-12-53.176-22.048
				c3.728-6.912,5.72-14.68,5.72-22.752c0-12.824-4.992-24.872-14.064-33.944c-9.064-9.064-21.12-14.056-33.936-14.056
				c-8.072,0-15.832,1.984-22.744,5.712c-10.056-16.584-17.44-34.4-22.056-53.176C81.552,288.024,96,269.68,96,248
				s-14.448-40.024-34.224-45.96c4.616-18.776,12-36.592,22.056-53.176c6.912,3.728,14.672,5.712,22.744,5.712
				c12.824,0,24.872-4.992,33.936-14.056c9.072-9.064,14.064-21.12,14.064-33.944c0-8.072-1.984-15.84-5.72-22.752
				c16.6-10.056,34.408-17.44,53.176-22.048C207.976,81.552,226.32,96,248,96s40.024-14.448,45.96-34.216
				c18.768,4.608,36.584,12,53.176,22.048c-3.728,6.912-5.72,14.68-5.72,22.752c0,12.824,4.992,24.872,14.064,33.944
				c9.064,9.064,21.12,14.056,33.936,14.056c8.072,0,15.832-1.984,22.744-5.712c10.056,16.584,17.44,34.4,22.056,53.176
				C414.448,207.976,400,226.32,400,248s14.448,40.024,34.224,45.96C429.608,312.736,422.224,330.552,412.168,347.136z M448,280
				c-17.648,0-32-14.352-32-32s14.352-32,32-32s32,14.352,32,32S465.648,280,448,280z" fill="#137749"/>
		</g>
</svg>
