<svg width="18" height="18" viewBox="0 0 18 18" fill="none" xmlns="http://www.w3.org/2000/svg">
<path d="M9 0C4.02891 0 0 4.02891 0 9C0 13.9711 4.02891 18 9 18C13.9711 18 18 13.9711 18 9C18 4.02891 13.9711 0 9 0ZM14.2945 9.79453L10.6699 13.4191C10.2305 13.8586 9.51855 13.8586 9.0791 13.4191C8.63965 12.9797 8.63965 12.2678 9.0791 11.8283L10.7859 10.125H4.5C3.87773 10.125 3.375 9.62227 3.375 9C3.375 8.37773 3.87809 7.875 4.5 7.875H10.7859L9.04992 6.13898C8.61047 5.69953 8.61047 4.98762 9.04992 4.54816C9.48938 4.10871 10.2013 4.10871 10.6407 4.54816L14.2654 8.17277C14.5758 8.4832 14.625 8.82773 14.625 9C14.625 9.17227 14.5758 9.5168 14.2945 9.79453Z" fill="#137749"/>
</svg>
