<svg fill="none" height="512" viewBox="0 0 64 64" width="512" xmlns="http://www.w3.org/2000/svg"><g clip-rule="evenodd" fill="rgb(0,0,0)" fill-rule="evenodd"><path d="m32 49c-1.6569 0-3-1.3431-3-3v-14c0-1.6569 1.3431-3 3-3s3 1.3431 3 3v14c0 1.6569-1.3431 3-3 3zm-1-17v14c0 .5523.4477 1 1 1s1-.4477 1-1v-14c0-.5523-.4477-1-1-1s-1 .4477-1 1z"/><path d="m29 24c0 1.6569 1.3431 3 3 3s3-1.3431 3-3-1.3431-3-3-3-3 1.3431-3 3zm3-1c.5523 0 1 .4477 1 1s-.4477 1-1 1-1-.4477-1-1 .4477-1 1-1z"/><path d="m57 14c1.6569 0 3 1.3431 3 3v36c0 1.6569-1.3431 3-3 3h-50c-1.65686 0-3-1.3431-3-3v-42c0-1.65685 1.34315-3 3-3h18.1716c.7956 0 1.5587.31607 2.1213.87868l5.1213 5.12132zm-51-3c0-.5523.44772-1 1-1h18.1716c.2652 0 .5195.1054.7071.2929l3.7071 3.7071h-17.5858c-.5523 0-1 .4477-1 1s.4477 1 1 1h19.9997 25.0003c.5523 0 1 .4477 1 1v36c0 .5523-.4477 1-1 1h-50c-.55229 0-1-.4477-1-1z"/></g></svg>