<svg width="20" height="20" viewBox="0 0 20 20" fill="none" xmlns="http://www.w3.org/2000/svg">
<path d="M15.7132 8.36838V5.24773C15.7132 4.55974 15.1534 4 14.4654 4H5.54791C4.85991 4 4.30017 4.55974 4.30017 5.24773V8.36838C3.55145 8.57565 3 9.26264 3 10.0764V12.4475C3 12.6773 3.18628 12.8635 3.41602 12.8635H4.30017V13.6119C4.30017 13.8417 4.48645 14.028 4.7162 14.028C4.94594 14.028 5.13222 13.8417 5.13222 13.6119V12.8635H14.8811V13.6119C14.8811 13.8417 15.0674 14.028 15.2971 14.028C15.5269 14.028 15.7132 13.8417 15.7132 13.6119V12.8635H16.5973C16.8271 12.8635 17.0133 12.6773 17.0133 12.4475V10.0764C17.0133 9.26264 16.4619 8.57565 15.7132 8.36838ZM5.13222 5.24773C5.13222 5.01854 5.31871 4.83204 5.54791 4.83204H14.4655C14.6946 4.83204 14.8811 5.01854 14.8811 5.24773V8.30401H13.9064V7.46893C13.9064 6.74278 13.3156 6.15203 12.5895 6.15203H10.9076C10.5593 6.15203 10.2424 6.28814 10.0067 6.5097C9.77096 6.28817 9.45407 6.15203 9.10582 6.15203H7.42392C6.69777 6.15203 6.10702 6.74281 6.10702 7.46893V8.30401H5.13222V5.24773ZM13.0743 7.46893V8.30401H10.4227V7.46893C10.4227 7.20155 10.6402 6.98407 10.9075 6.98407H12.5894C12.8568 6.98407 13.0743 7.20158 13.0743 7.46893ZM9.59062 7.46893V8.30401H6.93898V7.46893C6.93898 7.20155 7.15651 6.98407 7.42384 6.98407H9.10574C9.37311 6.98407 9.59062 7.20158 9.59062 7.46893ZM16.1813 12.0315H3.83204V10.0764C3.83204 9.5579 4.25387 9.13605 4.77239 9.13605H15.241C15.7594 9.13605 16.1813 9.55787 16.1813 10.0764V12.0315Z" fill="#6B778C"/>
</svg>
