<svg width="40" height="40" viewBox="0 0 40 40" fill="none" xmlns="http://www.w3.org/2000/svg">
<g clip-path="url(#clip0_1818_8425)">
<path d="M20 0C14.7004 0.0152748 9.62216 2.12732 5.87474 5.87474C2.12732 9.62216 0.0152748 14.7004 0 20C0.0152748 25.2996 2.12732 30.3778 5.87474 34.1253C9.62216 37.8727 14.7004 39.9847 20 40C25.2996 39.9847 30.3778 37.8727 34.1253 34.1253C37.8727 30.3778 39.9847 25.2996 40 20C39.9847 14.7004 37.8727 9.62216 34.1253 5.87474C30.3778 2.12732 25.2996 0.0152748 20 0V0ZM22.2947 15.2316H22.9342V10.0842H24.25V15.2316H24.8447V16.5474H22.2947V15.2316ZM25.2632 20.3474C25.081 20.3474 24.9029 20.2934 24.7514 20.1921C24.6 20.0909 24.4819 19.9471 24.4122 19.7788C24.3425 19.6105 24.3243 19.4253 24.3598 19.2466C24.3953 19.068 24.4831 18.9038 24.6119 18.775C24.7407 18.6462 24.9048 18.5585 25.0835 18.523C25.2621 18.4874 25.4473 18.5057 25.6156 18.5754C25.7839 18.6451 25.9278 18.7631 26.029 18.9146C26.1302 19.0661 26.1842 19.2442 26.1842 19.4263C26.1842 19.6706 26.0872 19.9049 25.9144 20.0776C25.7417 20.2503 25.5074 20.3474 25.2632 20.3474ZM26.1842 22.7526C26.1863 22.9352 26.1341 23.1143 26.0341 23.2672C25.9342 23.42 25.7911 23.5397 25.623 23.611C25.4549 23.6824 25.2694 23.7021 25.09 23.6678C24.9107 23.6334 24.7456 23.5466 24.6157 23.4182C24.4858 23.2898 24.3971 23.1257 24.3606 22.9468C24.3242 22.7678 24.3419 22.5821 24.4113 22.4132C24.4806 22.2442 24.5987 22.0998 24.7504 21.9981C24.9021 21.8964 25.0805 21.8421 25.2632 21.8421C25.507 21.84 25.7417 21.9347 25.9158 22.1054C26.09 22.276 26.1893 22.5088 26.1921 22.7526H26.1842ZM21.7579 23.6842C21.5757 23.6842 21.3977 23.6302 21.2462 23.529C21.0947 23.4278 20.9767 23.2839 20.907 23.1156C20.8372 22.9473 20.819 22.7621 20.8545 22.5835C20.8901 22.4048 20.9778 22.2407 21.1066 22.1119C21.2354 21.9831 21.3995 21.8953 21.5782 21.8598C21.7569 21.8243 21.9421 21.8425 22.1104 21.9122C22.2787 21.9819 22.4225 22.1 22.5237 22.2514C22.6249 22.4029 22.6789 22.581 22.6789 22.7632C22.6789 23.0074 22.5819 23.2417 22.4092 23.4144C22.2364 23.5872 22.0022 23.6842 21.7579 23.6842ZM22.6789 26.0895C22.6789 26.2716 22.6249 26.4497 22.5237 26.6012C22.4225 26.7527 22.2787 26.8707 22.1104 26.9404C21.9421 27.0101 21.7569 27.0284 21.5782 26.9928C21.3995 26.9573 21.2354 26.8696 21.1066 26.7408C20.9778 26.6119 20.8901 26.4478 20.8545 26.2692C20.819 26.0905 20.8372 25.9053 20.907 25.737C20.9767 25.5687 21.0947 25.4249 21.2462 25.3236C21.3977 25.2224 21.5757 25.1684 21.7579 25.1684C22.0004 25.1684 22.2331 25.264 22.4055 25.4345C22.5779 25.6049 22.6762 25.8365 22.6789 26.0789V26.0895ZM21.7579 20.3579C21.5757 20.3579 21.3977 20.3039 21.2462 20.2027C21.0947 20.1015 20.9767 19.9576 20.907 19.7893C20.8372 19.621 20.819 19.4358 20.8545 19.2572C20.8901 19.0785 20.9778 18.9144 21.1066 18.7856C21.2354 18.6567 21.3995 18.569 21.5782 18.5335C21.7569 18.4979 21.9421 18.5162 22.1104 18.5859C22.2787 18.6556 22.4225 18.7737 22.5237 18.9251C22.6249 19.0766 22.6789 19.2547 22.6789 19.4368C22.6762 19.6793 22.5779 19.9109 22.4055 20.0813C22.2331 20.2518 22.0004 20.3474 21.7579 20.3474V20.3579ZM17.8789 12.6132H22.1447V13.9289H17.8789V12.6132ZM18.2421 23.6658C18.0599 23.6658 17.8819 23.6118 17.7304 23.5106C17.5789 23.4094 17.4609 23.2655 17.3912 23.0972C17.3215 22.9289 17.3032 22.7437 17.3388 22.5651C17.3743 22.3864 17.462 22.2223 17.5908 22.0935C17.7196 21.9646 17.8838 21.8769 18.0624 21.8414C18.2411 21.8058 18.4263 21.8241 18.5946 21.8938C18.7629 21.9635 18.9067 22.0816 19.0079 22.233C19.1091 22.3845 19.1632 22.5626 19.1632 22.7447C19.1656 22.8672 19.1436 22.989 19.0984 23.1029C19.0532 23.2168 18.9858 23.3205 18.9 23.408C18.8142 23.4954 18.7118 23.5649 18.5989 23.6124C18.4859 23.6598 18.3646 23.6842 18.2421 23.6842V23.6658ZM19.1632 26.0711C19.1632 26.2532 19.1091 26.4313 19.0079 26.5828C18.9067 26.7342 18.7629 26.8523 18.5946 26.922C18.4263 26.9917 18.2411 27.0099 18.0624 26.9744C17.8838 26.9389 17.7196 26.8511 17.5908 26.7223C17.462 26.5935 17.3743 26.4294 17.3388 26.2507C17.3032 26.0721 17.3215 25.8869 17.3912 25.7186C17.4609 25.5503 17.5789 25.4064 17.7304 25.3052C17.8819 25.204 18.0599 25.15 18.2421 25.15C18.3638 25.1496 18.4844 25.1735 18.5968 25.2201C18.7093 25.2668 18.8113 25.3353 18.897 25.4218C18.9827 25.5082 19.0504 25.6108 19.096 25.7236C19.1417 25.8365 19.1646 25.9572 19.1632 26.0789V26.0711ZM18.2421 20.3395C18.0599 20.3395 17.8819 20.2855 17.7304 20.1842C17.5789 20.083 17.4609 19.9392 17.3912 19.7709C17.3215 19.6026 17.3032 19.4174 17.3388 19.2387C17.3743 19.0601 17.462 18.896 17.5908 18.7671C17.7196 18.6383 17.8838 18.5506 18.0624 18.5151C18.2411 18.4795 18.4263 18.4978 18.5946 18.5675C18.7629 18.6372 18.9067 18.7552 19.0079 18.9067C19.1091 19.0582 19.1632 19.2363 19.1632 19.4184C19.1642 19.54 19.1411 19.6607 19.0953 19.7733C19.0495 19.886 18.9818 19.9884 18.8962 20.0748C18.8106 20.1612 18.7087 20.2297 18.5964 20.2765C18.4841 20.3233 18.3637 20.3474 18.2421 20.3474V20.3395ZM15.1342 15.2316H15.7737V10.0842H17.0895V15.2316H17.6816V16.5474H15.1342V15.2316ZM14.7368 23.6842C14.5547 23.6842 14.3766 23.6302 14.2251 23.529C14.0737 23.4278 13.9556 23.2839 13.8859 23.1156C13.8162 22.9473 13.7979 22.7621 13.8335 22.5835C13.869 22.4048 13.9567 22.2407 14.0856 22.1119C14.2144 21.9831 14.3785 21.8953 14.5572 21.8598C14.7358 21.8243 14.921 21.8425 15.0893 21.9122C15.2576 21.9819 15.4015 22.1 15.5027 22.2514C15.6039 22.4029 15.6579 22.581 15.6579 22.7632C15.6579 23.0074 15.5609 23.2417 15.3881 23.4144C15.2154 23.5872 14.9811 23.6842 14.7368 23.6842ZM15.6579 26.0895C15.6558 26.2712 15.6 26.4482 15.4976 26.5983C15.3951 26.7484 15.2506 26.8648 15.0821 26.9329C14.9136 27.001 14.7288 27.0177 14.5508 26.981C14.3728 26.9443 14.2097 26.8557 14.0819 26.7265C13.9542 26.5973 13.8675 26.4332 13.8328 26.2548C13.7981 26.0764 13.8169 25.8918 13.887 25.7241C13.957 25.5564 14.075 25.4132 14.2262 25.3124C14.3775 25.2117 14.5551 25.1579 14.7368 25.1579C14.98 25.1593 15.2126 25.257 15.3838 25.4297C15.555 25.6023 15.6507 25.8358 15.65 26.0789L15.6579 26.0895ZM14.7368 20.3474C14.5547 20.3474 14.3766 20.2934 14.2251 20.1921C14.0737 20.0909 13.9556 19.9471 13.8859 19.7788C13.8162 19.6105 13.7979 19.4253 13.8335 19.2466C13.869 19.068 13.9567 18.9038 14.0856 18.775C14.2144 18.6462 14.3785 18.5585 14.5572 18.523C14.7358 18.4874 14.921 18.5057 15.0893 18.5754C15.2576 18.6451 15.4015 18.7631 15.5027 18.9146C15.6039 19.0661 15.6579 19.2442 15.6579 19.4263C15.6579 19.6706 15.5609 19.9049 15.3881 20.0776C15.2154 20.2503 14.9811 20.3474 14.7368 20.3474ZM29.9289 27.5184C29.9289 28.9342 28.8763 30.0842 27.5605 30.0842H12.4395C11.1395 30.0842 10.0711 28.9342 10.0711 27.5184V15.1789C10.0711 13.7658 11.1237 12.6132 12.4395 12.6132H14.9842V13.9289H12.4395C11.8632 13.9289 11.3868 14.4895 11.3868 15.1789V27.5184C11.3868 28.2079 11.8553 28.7684 12.4395 28.7684H27.5605C28.1368 28.7684 28.6132 28.2079 28.6132 27.5184V15.1789C28.6132 14.4895 28.1447 13.9289 27.5605 13.9289H25.0395V12.6132H27.5605C28.8605 12.6132 29.9289 13.7658 29.9289 15.1789V27.5184Z" fill="#42526E"/>
</g>
<defs>
<clipPath id="clip0_1818_8425">
<rect width="40" height="40" fill="white"/>
</clipPath>
</defs>
</svg>
