<svg id="svg943" viewBox="0 0 6.3499999 6.3500001" width="15" height="15" xmlns="http://www.w3.org/2000/svg" xmlns:svg="http://www.w3.org/2000/svg">
<g id="layer1">
<path id="path4432" fill="#137749" d="m3.1750013.636912c-1.3990214.0000004-2.53886489 1.1403588-2.53886489 2.5393798 0 1.3990212 1.13984349 2.5367959 2.53886489 2.5367962 1.3990214.0000002 2.5388623-1.1377748 2.5388623-2.5367962s-1.1398409-2.5393801-2.5388623-2.5393798zm0 .5291667c.4707599-.0000001.9029965.1606035 1.2448831.4299479l-2.8313512 2.8158487c-.2652263-.3405034-.4232301-.768813-.4232301-1.2355835 0-1.1130383.8966597-2.0102128 2.0096982-2.0102131zm1.6138551.8092529c.2489174.3345991.3958405.7502327.3958405 1.2009602 0 1.1130386-.896657 2.0096967-2.0096956 2.0096964-.4546838 0-.873125-.1496573-1.2092305-.4025593z" stroke-linecap="round" stroke-linejoin="round" paint-order="stroke fill markers"/>
</g>
</svg>