<svg enable-background="new 0 0 512 512" height="512" viewBox="0 0 512 512" width="512" xmlns="http://www.w3.org/2000/svg"><g id="_x35_5_Schedule"><g><path d="m104.768 192.563h-32.693c-6.969 0-12.641 5.672-12.641 12.641v32.768c0 6.969 5.672 12.641 12.641 12.641h32.693c6.973 0 12.645-5.672 12.645-12.641v-32.768c0-6.969-5.672-12.641-12.645-12.641zm.611 45.408c0 .345-.262.607-.611.607h-32.693c-.345 0-.607-.262-.607-.607v-32.768c0-.345.262-.607.607-.607h32.693c.349 0 .611.262.611.607z"/><path d="m199.514 192.563h-32.693c-6.969 0-12.641 5.672-12.641 12.641v32.768c0 6.969 5.672 12.641 12.641 12.641h32.693c6.969 0 12.641-5.672 12.641-12.641v-32.768c0-6.969-5.673-12.641-12.641-12.641zm.607 45.408c0 .353-.255.607-.607.607h-32.693c-.345 0-.607-.262-.607-.607v-32.768c0-.345.262-.607.607-.607h32.693c.353 0 .607.255.607.607z"/><path d="m261.566 250.612h32.693c6.969 0 12.641-5.672 12.641-12.641v-32.768c0-6.969-5.672-12.641-12.641-12.641h-32.693c-6.969 0-12.641 5.672-12.641 12.641v32.768c.001 6.969 5.673 12.641 12.641 12.641zm-.607-45.409c0-.353.255-.607.607-.607h32.693c.345 0 .607.262.607.607v32.768c0 .345-.262.607-.607.607h-32.693c-.353 0-.607-.255-.607-.607z"/><path d="m356.312 250.612h32.693c6.969 0 12.641-5.672 12.641-12.641v-32.768c0-6.969-5.672-12.641-12.641-12.641h-32.693c-6.973 0-12.645 5.672-12.645 12.641v32.768c0 6.969 5.673 12.641 12.645 12.641zm-.611-45.409c0-.345.262-.607.611-.607h32.693c.345 0 .607.262.607.607v32.768c0 .345-.262.607-.607.607h-32.693c-.349 0-.611-.262-.611-.607z"/><path d="m104.768 275.486h-32.693c-6.969 0-12.641 5.672-12.641 12.641v32.768c0 6.969 5.672 12.641 12.641 12.641h32.693c6.973 0 12.645-5.672 12.645-12.641v-32.768c0-6.969-5.672-12.641-12.645-12.641zm.611 45.409c0 .345-.262.607-.611.607h-32.693c-.345 0-.607-.262-.607-.607v-32.768c0-.345.262-.607.607-.607h32.693c.349 0 .611.262.611.607z"/><path d="m199.514 275.486h-32.693c-6.969 0-12.641 5.672-12.641 12.641v32.768c0 6.969 5.672 12.641 12.641 12.641h32.693c6.969 0 12.641-5.672 12.641-12.641v-32.768c0-6.969-5.673-12.641-12.641-12.641zm.607 45.409c0 .353-.255.607-.607.607h-32.693c-.345 0-.607-.262-.607-.607v-32.768c0-.345.262-.607.607-.607h32.693c.353 0 .607.255.607.607z"/><path d="m104.768 358.41h-32.693c-6.969 0-12.641 5.672-12.641 12.641v32.768c0 6.969 5.672 12.641 12.641 12.641h32.693c6.973 0 12.645-5.672 12.645-12.641v-32.768c0-6.969-5.672-12.641-12.645-12.641zm.611 45.408c0 .345-.262.607-.611.607h-32.693c-.345 0-.607-.262-.607-.607v-32.768c0-.345.262-.607.607-.607h32.693c.349 0 .611.262.611.607z"/><path d="m199.514 358.41h-32.693c-6.969 0-12.641 5.672-12.641 12.641v32.768c0 6.969 5.672 12.641 12.641 12.641h32.693c6.969 0 12.641-5.672 12.641-12.641v-32.768c0-6.969-5.673-12.641-12.641-12.641zm.607 45.408c0 .353-.255.607-.607.607h-32.693c-.345 0-.607-.262-.607-.607v-32.768c0-.345.262-.607.607-.607h32.693c.353 0 .607.255.607.607z"/><path d="m459.793 276.404c0-66.424 0-125.547 0-191.913 0-17.729-14.427-32.156-32.156-32.156h-38.424v-17.965c0-11.735-9.438-21.643-21.643-21.643-11.936 0-21.643 9.711-21.643 21.643v17.964h-48.068v-17.964c0-11.735-9.438-21.643-21.643-21.643-11.936 0-21.643 9.711-21.643 21.643v17.964h-48.068v-17.964c0-11.735-9.438-21.643-21.643-21.643-11.936 0-21.643 9.711-21.643 21.643v17.964h-48.068v-17.964c0-11.735-9.438-21.643-21.643-21.643-11.936 0-21.643 9.711-21.643 21.643v17.964h-38.42c-17.733 0-32.16 14.427-32.16 32.156v352.926c0 17.733 14.427 32.16 32.16 32.16h274.058c21.548 18.466 49.461 29.696 79.988 29.696 67.944 0 123.22-55.315 123.22-123.306.002-40.918-20.127-77.14-50.918-99.562zm-92.223-251.643c5.399 0 9.609 4.352 9.609 9.609v62.507c0 5.299-4.307 9.606-9.605 9.608-5.298-.002-9.605-4.309-9.605-9.608 0-.808-.008-66.575-.008-62.507 0-5.3 4.309-9.609 9.609-9.609zm-100.962 9.609c0-5.3 4.309-9.609 9.609-9.609 5.399 0 9.609 4.352 9.609 9.609 0 .808-.021 66.65-.02 62.507 0 5.297-4.304 9.601-9.599 9.607-5.296-.006-9.599-4.31-9.599-9.607zm-81.745-9.609c5.399 0 9.609 4.352 9.609 9.609v62.507c0 5.296-4.304 9.6-9.597 9.606-5.294-.007-9.601-4.311-9.601-9.606 0-.805-.021-65.493-.02-62.507 0-5.3 4.309-9.609 9.609-9.609zm-100.962 9.609c0-5.3 4.309-9.609 9.609-9.609 5.399 0 9.609 4.352 9.609 9.609 0 .808-.008 66.65-.008 62.507 0 5.299-4.307 9.606-9.605 9.608-5.298-.002-9.605-4.309-9.605-9.608zm-70.581 50.12c0-11.097 9.029-20.123 20.127-20.123h38.412v32.509c0 11.932 9.711 21.643 21.643 21.643h.004s.002 0 .004 0c11.936 0 21.643-9.711 21.643-21.643v-32.508h48.068v32.509c0 11.932 9.707 21.643 21.643 21.643.004 0 .008-.001.012-.001s.008.001.012.001c11.936 0 21.643-9.711 21.643-21.643v-32.509h48.021v32.509c0 11.932 9.711 21.643 21.647 21.643.003 0 .006-.001.01-.001.003 0 .006.001.01.001 11.936 0 21.643-9.711 21.643-21.643v-32.509h48.068v32.509c0 11.932 9.707 21.643 21.643 21.643h.004s.002 0 .004 0c11.932 0 21.643-9.711 21.643-21.643v-32.509h38.416c11.097 0 20.123 9.025 20.123 20.123v61.171h-434.443zm20.127 373.053c-11.097 0-20.127-9.029-20.127-20.127v-279.721h434.44v110.779c-21.413-12.014-47.147-17.749-73.097-15.052-.099.011-.195.034-.294.045-25.661 2.731-49.708 13.721-68.329 30.15-1.827-4.736-6.397-8.119-11.768-8.119h-32.693c-6.969 0-12.641 5.672-12.641 12.641v32.764c0 6.973 5.672 12.645 12.641 12.645h10.266c-5.545 15.017-7.396 29.142-7.515 41.304-.288 31.594 11.573 60.952 30.839 82.692h-261.722zm261.431-162.772c-7.109 8.087-13.447 17.646-17.898 26.743h-15.402c-.353 0-.607-.259-.607-.611v-32.764c0-.353.255-.607.607-.607h32.693c.353 0 .607.255.607.607zm92.615 192.468c-61.078 0-111.795-50.203-111.135-112.274.512-56.507 43.627-103.552 99.379-109.548.06-.006.118-.021.178-.027 65.082-6.893 122.765 44.437 122.765 110.576 0 61.356-49.878 111.273-111.187 111.273z"/><path d="m387.493 296.78c-3.322 0-6.017 2.695-6.017 6.017v70.721l-30.809 30.809c-2.35 2.35-2.35 6.158 0 8.508s6.158 2.35 8.508 0l32.572-32.572c1.128-1.128 1.763-2.66 1.763-4.254v-73.213c0-3.321-2.695-6.016-6.017-6.016z"/></g></g></svg>