<?xml version="1.0" encoding="iso-8859-1"?>
<!-- Generator: Adobe Illustrator 19.0.0, SVG Export Plug-In . SVG Version: 6.00 Build 0)  -->
<svg version="1.1" id="Layer_1" xmlns="http://www.w3.org/2000/svg" xmlns:xlink="http://www.w3.org/1999/xlink" x="0px" y="0px"
	 viewBox="0 0 489.829 489.829" style="enable-background:new 0 0 489.829 489.829;" xml:space="preserve"
	 width="15" height="15"
	 >
<g>
	<g>
		<path d="M292.3,218.965c0-11.4-9.4-20.8-20.8-20.8H130c-11.4,0-20.8,9.4-20.8,20.8c0,11.4,9.4,20.8,20.8,20.8h141.5
			C282.9,239.765,292.3,230.365,292.3,218.965z"
			fill="#137749"
			/>
		<path
		 d="M488.9,185.665c-4.2-11.4-15.6-16.6-26-13.5c-21.1,6.7-41.2,15.8-60.3,26.3v-83.5c0-6.2-3.1-11.4-7.3-15.6l-109.2-93.7
			c-4.2-3.1-8.3-5.2-13.5-5.2H20.8c-11.4,0-20.8,9.4-20.8,20.8v447.3c0,11.4,9.4,20.8,20.8,20.8h361c11.4,0,20.8-9.4,20.8-19.8
			v-222.8c22.7-14.6,47.1-26.9,72.8-35.1C486.9,207.465,492.1,196.065,488.9,185.665z M293.3,66.865l41.9,35.6h-41.9V66.865z
			 M361,448.865H40.5v-406.8h211.2v79.1c0,11.4,9.4,20.8,20.8,20.8h88.4v83c-63.7,45.8-111.3,104.5-135.2,137.5l-20.8-31.2
			c-6.2-9.4-18.7-12.5-28.1-6.2c-9.4,6.2-12.5,18.7-6.2,28.1l37.5,57.2c13.7,18.4,30.2,5.2,34.3,0c0.7-0.7,46.7-73.4,118.6-133
			V448.865z"
			fill="#137749"
			/>
	</g>
</g>
<g>
</g>
<g>
</g>
<g>
</g>
<g>
</g>
<g>
</g>
<g>
</g>
<g>
</g>
<g>
</g>
<g>
</g>
<g>
</g>
<g>
</g>
<g>
</g>
<g>
</g>
<g>
</g>
<g>
</g>
</svg>
