<svg width="44" height="44" viewBox="0 0 44 44" fill="none" xmlns="http://www.w3.org/2000/svg">
<g clip-path="url(#clip0_447_1091)">
<path d="M0 16.4993L21.186 29.9826C21.428 30.1613 21.714 30.2493 22 30.2493C22.286 30.2493 22.572 30.1613 22.814 29.9826L44 16.4993L22.825 0.274312C22.3355 -0.0914375 21.6645 -0.0914375 21.175 0.274312L0 16.4993Z" fill="#4789BF"/>
<path d="M35.75 0H8.25C6.73475 0 5.5 1.23475 5.5 2.75V33C5.5 33.759 6.116 34.375 6.875 34.375H37.125C37.884 34.375 38.5 33.759 38.5 33V2.75C38.5 1.23475 37.268 0 35.75 0Z" fill="#F2F2F2"/>
<path d="M12.375 7.5H31.625C32.384 7.5 33 7.052 33 6.5C33 5.948 32.384 5.5 31.625 5.5H12.375C11.616 5.5 11 5.948 11 6.5C11 7.052 11.616 7.5 12.375 7.5Z" fill="#ABABAB"/>
<path d="M31.625 10.5H12.375C11.616 10.5 11 10.948 11 11.5C11 12.052 11.616 12.5 12.375 12.5H31.625C32.384 12.5 33 12.052 33 11.5C33 10.948 32.384 10.5 31.625 10.5Z" fill="#ABABAB"/>
<path d="M23.375 15.5H12.375C11.616 15.5 11 15.948 11 16.5C11 17.052 11.616 17.5 12.375 17.5H23.375C24.134 17.5 24.75 17.052 24.75 16.5C24.75 15.948 24.134 15.5 23.375 15.5Z" fill="#ABABAB"/>
<path d="M22.814 29.9832C22.572 30.162 22.286 30.25 22 30.25C21.714 30.25 21.428 30.162 21.186 29.9832L0 16.5V41.25C0 42.768 1.232 44 2.75 44H41.25C42.768 44 44 42.768 44 41.25V16.5L22.814 29.9832Z" fill="#137749" fill-opacity="0.94"/>
<path d="M41.25 44H2.75C1.20725 44 0 42.7927 0 41.25C0 40.8127 0.209 40.4003 0.561 40.1418L21.186 26.3918C21.428 26.213 21.714 26.125 22 26.125C22.286 26.125 22.572 26.213 22.814 26.3918L43.439 40.1418C43.791 40.4003 44 40.8127 44 41.25C44 42.7927 42.7928 44 41.25 44Z" fill="#135C98"/>
</g>
<defs>
<clipPath id="clip0_447_1091">
<rect width="44" height="44" fill="white"/>
</clipPath>
</defs>
</svg>
