<svg width="14" height="15" viewBox="0 0 14 15" fill="none" xmlns="http://www.w3.org/2000/svg">
<g clip-path="url(#clip0_171_8840)">
<g clip-path="url(#clip1_171_8840)">
<path d="M7.4375 13.625C6.71358 13.625 6.125 13.0364 6.125 12.3125V10.5625C6.125 10.321 6.321 10.125 6.5625 10.125C6.804 10.125 7 10.321 7 10.5625V12.3125C7 12.554 7.196 12.75 7.4375 12.75H10.9375C11.179 12.75 11.375 12.554 11.375 12.3125V10.5625C11.375 10.321 11.571 10.125 11.8125 10.125C12.054 10.125 12.25 10.321 12.25 10.5625V12.3125C12.25 13.0364 11.6614 13.625 10.9375 13.625H7.4375Z" fill="#6B778C"/>
<path d="M4.81217 10.125C4.6885 10.125 4.57008 10.0725 4.48725 9.98032C4.32566 9.80065 4.34025 9.52357 4.51992 9.36257L8.30985 5.95005C8.55193 5.73247 8.86343 5.6123 9.18776 5.6123C9.5121 5.6123 9.8236 5.73189 10.0657 5.94947L12.2497 7.91707V6.62498C12.2497 6.38348 12.4457 6.18747 12.6872 6.18747C12.9287 6.18747 13.1247 6.38348 13.1247 6.62498V8.70457L13.855 9.36198C13.9419 9.44015 13.9933 9.54748 13.9991 9.66415C14.0049 9.78082 13.9653 9.89282 13.8871 9.97973C13.8043 10.0713 13.6858 10.1244 13.5622 10.1244C13.4537 10.1244 13.3498 10.0841 13.2693 10.0118L9.47943 6.59932C9.39893 6.52698 9.2951 6.48673 9.18718 6.48673C9.07926 6.48673 8.97543 6.52698 8.89493 6.59932L5.105 10.0112C5.0245 10.0853 4.92067 10.125 4.81217 10.125Z" fill="#6B778C"/>
<path d="M0.875 14.5C0.392583 14.5 0 14.1074 0 13.625V1.375C0 0.892583 0.392583 0.5 0.875 0.5H13.125C13.6074 0.5 14 0.892583 14 1.375V3.125C14 3.60742 13.6074 4 13.125 4H3.5V13.625C3.5 14.1074 3.10742 14.5 2.625 14.5H0.875ZM0.875 13.625H2.625V11H2.1875C1.946 11 1.75 10.804 1.75 10.5625C1.75 10.321 1.946 10.125 2.1875 10.125H2.625V7.5H2.1875C1.946 7.5 1.75 7.304 1.75 7.0625C1.75 6.821 1.946 6.625 2.1875 6.625H2.625V4H0.875V13.625ZM13.125 3.125V1.375H3.5V3.125H6.125V2.6875C6.125 2.446 6.321 2.25 6.5625 2.25C6.804 2.25 7 2.446 7 2.6875V3.125H9.625V2.6875C9.625 2.446 9.821 2.25 10.0625 2.25C10.304 2.25 10.5 2.446 10.5 2.6875V3.125H13.125ZM2.625 3.125V1.375H0.875V3.125H2.625Z" fill="#6B778C"/>
</g>
</g>
<defs>
<clipPath id="clip0_171_8840">
<rect width="14" height="14" fill="white" transform="matrix(1 0 0 -1 0 14.5)"/>
</clipPath>
<clipPath id="clip1_171_8840">
<rect width="14" height="14" fill="white" transform="translate(0 0.5)"/>
</clipPath>
</defs>
</svg>
