<svg width="6" height="18" viewBox="0 0 6 18" fill="none" xmlns="http://www.w3.org/2000/svg">
<path d="M5 15.7496H4V7.87465C4 7.25273 3.55219 6.74965 3 6.74965H1C0.447812 6.74965 0 7.25273 0 7.87465C0 8.49656 0.447812 8.96801 1 8.96801H2V15.718H1C0.447812 15.718 0 16.2211 0 16.843C0 17.4649 0.447812 17.968 1 17.968H5C5.55219 17.968 6 17.4649 6 16.843C6 16.2211 5.55312 15.7496 5 15.7496ZM3 4.49965C3.82844 4.49965 4.5 3.74414 4.5 2.81215C4.5 1.88016 3.82812 1.125 3 1.125C2.17188 1.125 1.5 1.88051 1.5 2.8125C1.5 3.74449 2.17156 4.49965 3 4.49965Z" fill="#42526E"/>
</svg>
