<svg width="17" height="17" viewBox="0 0 17 17" fill="none" xmlns="http://www.w3.org/2000/svg">
<path fillRule="evenodd" clipRule="evenodd" d="M8.00123 2.35651C6.30385 2.35783 4.6765 3.03337 3.4772 4.23453C2.27789 5.43569 1.60487 7.06407 1.60618 8.76146C1.60683 9.60192 1.77301 10.434 2.09524 11.2103C2.41747 11.9865 2.88944 12.6917 3.48419 13.2855C4.07895 13.8793 4.78484 14.3502 5.56157 14.6712C6.3383 14.9923 7.17066 15.1572 8.01112 15.1565C8.85158 15.1559 9.68368 14.9897 10.4599 14.6674C11.2362 14.3452 11.9413 13.8733 12.5352 13.2785C13.129 12.6837 13.5999 11.9778 13.9209 11.2011C14.2419 10.4244 14.4068 9.59203 14.4062 8.75157C14.4049 7.05418 13.7293 5.42684 12.5282 4.22753C11.327 3.02823 9.69862 2.3552 8.00123 2.35651ZM2.34496 3.10403C3.84409 1.60258 5.87827 0.758154 8 0.756515C10.1217 0.754876 12.1572 1.59616 13.6587 3.09529C15.1601 4.59442 16.0045 6.6286 16.0062 8.75033C16.007 9.80091 15.8009 10.8414 15.3996 11.8123C14.9983 12.7832 14.4097 13.6656 13.6674 14.409C12.9251 15.1524 12.0436 15.7424 11.0734 16.1452C10.1031 16.548 9.06293 16.7557 8.01236 16.7565C6.96178 16.7573 5.92134 16.5512 4.95042 16.1499C3.97951 15.7486 3.09714 15.16 2.3537 14.4177C1.61025 13.6754 1.0203 12.794 0.617509 11.8237C0.214722 10.8534 0.00699197 9.81327 0.00618035 8.76269C0.00454127 6.64096 0.845824 4.60548 2.34496 3.10403ZM7.20371 5.55713C7.20337 5.1153 7.56126 4.75686 8.00309 4.75651L8.01109 4.75651C8.45292 4.75617 8.81136 5.11406 8.81171 5.55589C8.81205 5.99772 8.45415 6.35617 8.01232 6.35651L8.00432 6.35651C7.5625 6.35685 7.20405 5.99896 7.20371 5.55713ZM6.40618 8.75775C6.40584 8.31592 6.76373 7.95747 7.20556 7.95713L8.00556 7.95651C8.44739 7.95617 8.80584 8.31407 8.80618 8.75589L8.80803 11.1559C9.24986 11.1556 9.60831 11.5134 9.60865 11.9553C9.60899 12.3971 9.2511 12.7556 8.80927 12.7559L8.00927 12.7565C7.56744 12.7569 7.20899 12.399 7.20865 11.9571L7.2068 9.55713C6.76497 9.55747 6.40652 9.19958 6.40618 8.75775Z" fill="#137749"/>
</svg>
