<svg width="283" height="226" viewBox="0 0 283 226" fill="none" xmlns="http://www.w3.org/2000/svg">
<g clip-path="url(#clip0_1_5252)">
<path d="M262.493 96.9537H241.607V122.315H236.238V107.956H209.682V130.69H206.167V77.3349H183.089V91.9841H171.254V110.202H167.673V98.7471H146.696V132.943H140.555V105.142H121.371V84.0254H108.322V72.0029H93.2259V125.334H88.1536V103.083H63.2937V134.935H59.8518V108.934H34.6417V85.5048H20.5059V194.619H262.493V96.9537Z" fill="#EBEBEB"/>
<path d="M256.4 104.99H259.933V100.141H256.4V104.99Z" fill="white"/>
<path d="M250.271 104.99H253.804V100.141H250.271V104.99Z" fill="white"/>
<path d="M244.149 104.99H247.682V100.141H244.149V104.99Z" fill="white"/>
<path d="M256.4 112.285H259.933V107.436H256.4V112.285Z" fill="white"/>
<path d="M250.271 112.285H253.804V107.436H250.271V112.285Z" fill="white"/>
<path d="M244.149 112.285H247.682V107.436H244.149V112.285Z" fill="white"/>
<path d="M256.4 119.585H259.933V114.736H256.4V119.585Z" fill="white"/>
<path d="M250.271 119.585H253.804V114.736H250.271V119.585Z" fill="white"/>
<path d="M244.149 119.585H247.682V114.736H244.149V119.585Z" fill="white"/>
<path d="M256.4 126.88H259.933V122.031H256.4V126.88Z" fill="white"/>
<path d="M250.271 126.88H253.804V122.031H250.271V126.88Z" fill="white"/>
<path d="M244.149 126.88H247.682V122.031H244.149V126.88Z" fill="white"/>
<path d="M134.082 112.653H137.614V108.608H134.082V112.653Z" fill="white"/>
<path d="M127.953 112.653H131.485V108.608H127.953V112.653Z" fill="white"/>
<path d="M121.83 112.653H125.362V108.608H121.83V112.653Z" fill="white"/>
<path d="M134.082 118.74H137.614V114.694H134.082V118.74Z" fill="white"/>
<path d="M127.953 118.74H131.485V114.694H127.953V118.74Z" fill="white"/>
<path d="M121.83 118.74H125.362V114.694H121.83V118.74Z" fill="white"/>
<path d="M134.082 124.827H137.614V120.781H134.082V124.827Z" fill="white"/>
<path d="M127.953 124.827H131.485V120.781H127.953V124.827Z" fill="white"/>
<path d="M121.83 124.827H125.362V120.781H121.83V124.827Z" fill="white"/>
<path d="M134.082 130.907H137.614V126.861H134.082V130.907Z" fill="white"/>
<path d="M127.953 130.907H131.485V126.861H127.953V130.907Z" fill="white"/>
<path d="M121.83 130.907H125.362V126.861H121.83V130.907Z" fill="white"/>
<path d="M134.082 137.146H137.614V133.1H134.082V137.146Z" fill="white"/>
<path d="M127.953 137.146H131.485V133.1H127.953V137.146Z" fill="white"/>
<path d="M121.83 137.146H125.362V133.1H121.83V137.146Z" fill="white"/>
<path d="M134.082 143.383H137.614V139.337H134.082V143.383Z" fill="white"/>
<path d="M127.953 143.383H131.485V139.337H127.953V143.383Z" fill="white"/>
<path d="M121.83 143.383H125.362V139.337H121.83V143.383Z" fill="white"/>
<path d="M134.082 149.62H137.614V145.574H134.082V149.62Z" fill="white"/>
<path d="M127.953 149.62H131.485V145.574H127.953V149.62Z" fill="white"/>
<path d="M121.83 149.62H125.362V145.574H121.83V149.62Z" fill="white"/>
<path d="M134.082 155.853H137.614V151.807H134.082V155.853Z" fill="white"/>
<path d="M127.953 155.853H131.485V151.807H127.953V155.853Z" fill="white"/>
<path d="M121.83 155.853H125.362V151.807H121.83V155.853Z" fill="white"/>
<path d="M212.883 114.097H233.22V111.065H212.883V114.097Z" fill="white"/>
<path d="M212.883 119.984H233.22V116.953H212.883V119.984Z" fill="white"/>
<path d="M212.883 125.865H233.22V122.834H212.883V125.865Z" fill="white"/>
<path d="M212.883 131.753H233.22V128.722H212.883V131.753Z" fill="white"/>
<path d="M212.883 137.634H233.22V134.603H212.883V137.634Z" fill="white"/>
<path d="M212.883 143.516H233.22V140.484H212.883V143.516Z" fill="white"/>
<path d="M212.883 149.403H233.22V146.372H212.883V149.403Z" fill="white"/>
<path d="M212.883 155.284H233.22V152.253H212.883V155.284Z" fill="white"/>
<path d="M66.4457 108.939H85.1465V105.908H66.4457V108.939Z" fill="white"/>
<path d="M66.4457 114.821H85.1465V111.79H66.4457V114.821Z" fill="white"/>
<path d="M66.4457 120.709H85.1465V117.678H66.4457V120.709Z" fill="white"/>
<path d="M66.4457 126.59H85.1465V123.559H66.4457V126.59Z" fill="white"/>
<path d="M66.4457 132.478H85.1465V129.446H66.4457V132.478Z" fill="white"/>
<path d="M66.4457 138.358H85.1465V135.327H66.4457V138.358Z" fill="white"/>
<path d="M66.4457 144.24H85.1465V141.209H66.4457V144.24Z" fill="white"/>
<path d="M66.4457 150.128H85.1465V147.097H66.4457V150.128Z" fill="white"/>
<path d="M66.4457 155.72H85.1465V152.688H66.4457V155.72Z" fill="white"/>
<path d="M66.4457 161.305H85.1465V158.273H66.4457V161.305Z" fill="white"/>
<path d="M66.4457 166.896H85.1465V163.865H66.4457V166.896Z" fill="white"/>
<path d="M66.4457 172.488H85.1465V169.457H66.4457V172.488Z" fill="white"/>
<path d="M66.4457 178.073H85.1465V175.042H66.4457V178.073Z" fill="white"/>
<path d="M36.2173 116.041H55.9688V113.01H36.2173V116.041Z" fill="white"/>
<path d="M36.2173 121.929H55.9688V118.897H36.2173V121.929Z" fill="white"/>
<path d="M36.2173 127.815H55.9688V124.784H36.2173V127.815Z" fill="white"/>
<path d="M36.2173 133.697H55.9688V130.666H36.2173V133.697Z" fill="white"/>
<path d="M36.2173 139.585H55.9688V136.554H36.2173V139.585Z" fill="white"/>
<path d="M36.2173 145.466H55.9688V142.435H36.2173V145.466Z" fill="white"/>
<path d="M36.2173 151.348H55.9688V148.316H36.2173V151.348Z" fill="white"/>
<path d="M36.2173 157.235H55.9688V154.204H36.2173V157.235Z" fill="white"/>
<path d="M36.2173 162.5H55.9688V159.469H36.2173V162.5Z" fill="white"/>
<path d="M36.2173 167.766H55.9688V164.734H36.2173V167.766Z" fill="white"/>
<path d="M36.2173 173.031H55.9688V170H36.2173V173.031Z" fill="white"/>
<path d="M155.252 104.417H161.532V101.488H155.252V104.417Z" fill="white"/>
<path d="M155.252 110.099H161.532V107.17H155.252V110.099Z" fill="white"/>
<path d="M155.252 115.781H161.532V112.853H155.252V115.781Z" fill="white"/>
<path d="M155.252 121.463H161.532V118.534H155.252V121.463Z" fill="white"/>
<path d="M155.252 127.146H161.532V124.217H155.252V127.146Z" fill="white"/>
<path d="M155.252 132.827H161.532V129.899H155.252V132.827Z" fill="white"/>
<path d="M155.252 138.51H161.532V135.581H155.252V138.51Z" fill="white"/>
<path d="M155.252 144.192H161.532V141.264H155.252V144.192Z" fill="white"/>
<path d="M146.707 104.417H152.987V101.488H146.707V104.417Z" fill="white"/>
<path d="M146.707 110.099H152.987V107.17H146.707V110.099Z" fill="white"/>
<path d="M146.707 115.781H152.987V112.853H146.707V115.781Z" fill="white"/>
<path d="M146.707 121.463H152.987V118.534H146.707V121.463Z" fill="white"/>
<path d="M146.707 127.146H152.987V124.217H146.707V127.146Z" fill="white"/>
<path d="M146.707 132.827H152.987V129.899H146.707V132.827Z" fill="white"/>
<path d="M146.707 138.51H152.987V135.581H146.707V138.51Z" fill="white"/>
<path d="M146.707 144.192H152.987V141.264H146.707V144.192Z" fill="white"/>
<path d="M196.119 85.0273H202.665V80.4079H196.119V85.0273Z" fill="white"/>
<path d="M186.367 85.0273H192.913V80.4079H186.367V85.0273Z" fill="white"/>
<path d="M196.119 91.8086H202.665V87.1892H196.119V91.8086Z" fill="white"/>
<path d="M186.367 91.8086H192.913V87.1892H186.367V91.8086Z" fill="white"/>
<path d="M196.119 98.5957H202.665V93.9763H196.119V98.5957Z" fill="white"/>
<path d="M186.367 98.5957H192.913V93.9763H186.367V98.5957Z" fill="white"/>
<path d="M196.119 105.377H202.665V100.758H196.119V105.377Z" fill="white"/>
<path d="M186.367 105.377H192.913V100.758H186.367V105.377Z" fill="white"/>
<path d="M196.119 112.164H202.665V107.545H196.119V112.164Z" fill="white"/>
<path d="M186.367 112.164H192.913V107.545H186.367V112.164Z" fill="white"/>
<path d="M196.119 118.951H202.665V114.332H196.119V118.951Z" fill="white"/>
<path d="M186.367 118.951H192.913V114.332H186.367V118.951Z" fill="white"/>
<path d="M196.119 125.732H202.665V121.113H196.119V125.732Z" fill="white"/>
<path d="M186.367 125.732H192.913V121.113H186.367V125.732Z" fill="white"/>
<path d="M196.119 132.52H202.665V127.9H196.119V132.52Z" fill="white"/>
<path d="M186.367 132.52H192.913V127.9H186.367V132.52Z" fill="white"/>
<path d="M174.267 98.5957H180.812V93.9763H174.267V98.5957Z" fill="white"/>
<path d="M174.267 105.377H180.812V100.758H174.267V105.377Z" fill="white"/>
<path d="M174.267 112.164H180.812V107.545H174.267V112.164Z" fill="white"/>
<path d="M174.267 118.951H180.812V114.332H174.267V118.951Z" fill="white"/>
<path d="M174.267 125.732H180.812V121.113H174.267V125.732Z" fill="white"/>
<path d="M174.267 132.52H180.812V127.9H174.267V132.52Z" fill="white"/>
<path d="M196.119 139.223H202.665V134.603H196.119V139.223Z" fill="white"/>
<path d="M186.367 139.223H192.913V134.603H186.367V139.223Z" fill="white"/>
<path d="M174.267 139.223H180.812V134.603H174.267V139.223Z" fill="white"/>
<path d="M196.119 145.919H202.665V141.3H196.119V145.919Z" fill="white"/>
<path d="M186.367 145.919H192.913V141.3H186.367V145.919Z" fill="white"/>
<path d="M174.267 145.919H180.812V141.3H174.267V145.919Z" fill="white"/>
<path d="M196.119 152.621H202.665V148.002H196.119V152.621Z" fill="white"/>
<path d="M186.367 152.621H192.913V148.002H186.367V152.621Z" fill="white"/>
<path d="M174.267 152.621H180.812V148.002H174.267V152.621Z" fill="white"/>
<path d="M196.119 159.33H202.665V154.711H196.119V159.33Z" fill="white"/>
<path d="M186.367 159.33H192.913V154.711H186.367V159.33Z" fill="white"/>
<path d="M174.267 159.33H180.812V154.711H174.267V159.33Z" fill="white"/>
<path d="M196.119 166.033H202.665V161.414H196.119V166.033Z" fill="white"/>
<path d="M186.367 166.033H192.913V161.414H186.367V166.033Z" fill="white"/>
<path d="M174.267 166.033H180.812V161.414H174.267V166.033Z" fill="white"/>
<path d="M115.176 91.0479H118.708V87.0021H115.176V91.0479Z" fill="white"/>
<path d="M109.047 91.0479H112.579V87.0021H109.047V91.0479Z" fill="white"/>
<path d="M115.176 97.1289H118.708V93.0832H115.176V97.1289Z" fill="white"/>
<path d="M109.047 97.1289H112.579V93.0832H109.047V97.1289Z" fill="white"/>
<path d="M115.176 103.215H118.708V99.1691H115.176V103.215Z" fill="white"/>
<path d="M109.047 103.215H112.579V99.1691H109.047V103.215Z" fill="white"/>
<path d="M115.176 109.308H118.708V105.262H115.176V109.308Z" fill="white"/>
<path d="M109.047 109.308H112.579V105.262H109.047V109.308Z" fill="white"/>
<path d="M115.176 115.546H118.708V111.5H115.176V115.546Z" fill="white"/>
<path d="M109.047 115.546H112.579V111.5H109.047V115.546Z" fill="white"/>
<path d="M115.176 121.783H118.708V117.737H115.176V121.783Z" fill="white"/>
<path d="M109.047 121.783H112.579V117.737H109.047V121.783Z" fill="white"/>
<path d="M115.176 128.015H118.708V123.969H115.176V128.015Z" fill="white"/>
<path d="M109.047 128.015H112.579V123.969H109.047V128.015Z" fill="white"/>
<path d="M115.176 134.253H118.708V130.207H115.176V134.253Z" fill="white"/>
<path d="M109.047 134.253H112.579V130.207H109.047V134.253Z" fill="white"/>
<path d="M115.176 140.557H118.708V136.511H115.176V140.557Z" fill="white"/>
<path d="M109.047 140.557H112.579V136.511H109.047V140.557Z" fill="white"/>
<path d="M115.176 146.861H118.708V142.816H115.176V146.861Z" fill="white"/>
<path d="M109.047 146.861H112.579V142.816H109.047V146.861Z" fill="white"/>
<path d="M115.176 153.159H118.708V149.113H115.176V153.159Z" fill="white"/>
<path d="M109.047 153.159H112.579V149.113H109.047V153.159Z" fill="white"/>
<path d="M115.176 159.469H118.708V155.423H115.176V159.469Z" fill="white"/>
<path d="M109.047 159.469H112.579V155.423H109.047V159.469Z" fill="white"/>
<path d="M28.8933 92.4248H32.4258V87.6605H28.8933V92.4248Z" fill="white"/>
<path d="M22.7703 92.4248H26.3027V87.6605H22.7703V92.4248Z" fill="white"/>
<path d="M28.8933 99.5986H32.4258V94.8343H28.8933V99.5986Z" fill="white"/>
<path d="M22.7703 99.5986H26.3027V94.8343H22.7703V99.5986Z" fill="white"/>
<path d="M28.8933 106.76H32.4258V101.995H28.8933V106.76Z" fill="white"/>
<path d="M22.7703 106.76H26.3027V101.995H22.7703V106.76Z" fill="white"/>
<path d="M28.8933 113.934H32.4258V109.169H28.8933V113.934Z" fill="white"/>
<path d="M22.7703 113.934H26.3027V109.169H22.7703V113.934Z" fill="white"/>
<path d="M28.8933 121.282H32.4258V116.518H28.8933V121.282Z" fill="white"/>
<path d="M22.7703 121.282H26.3027V116.518H22.7703V121.282Z" fill="white"/>
<path d="M28.8933 128.631H32.4258V123.867H28.8933V128.631Z" fill="white"/>
<path d="M22.7703 128.631H26.3027V123.867H22.7703V128.631Z" fill="white"/>
<path d="M28.8933 135.974H32.4258V131.209H28.8933V135.974Z" fill="white"/>
<path d="M22.7703 135.974H26.3027V131.209H22.7703V135.974Z" fill="white"/>
<path d="M28.8933 143.328H32.4258V138.564H28.8933V143.328Z" fill="white"/>
<path d="M22.7703 143.328H26.3027V138.564H22.7703V143.328Z" fill="white"/>
<path d="M28.8933 150.756H32.4258V145.992H28.8933V150.756Z" fill="white"/>
<path d="M22.7703 150.756H26.3027V145.992H22.7703V150.756Z" fill="white"/>
<path d="M28.8933 158.177H32.4258V153.412H28.8933V158.177Z" fill="white"/>
<path d="M22.7703 158.177H26.3027V153.412H22.7703V158.177Z" fill="white"/>
<path d="M28.8933 165.604H32.4258V160.84H28.8933V165.604Z" fill="white"/>
<path d="M22.7703 165.604H26.3027V160.84H22.7703V165.604Z" fill="white"/>
<path d="M28.8933 173.031H32.4258V168.267H28.8933V173.031Z" fill="white"/>
<path d="M22.7703 173.031H26.3027V168.267H22.7703V173.031Z" fill="white"/>
<path d="M102.072 91.0479H105.604V87.0021H102.072V91.0479Z" fill="white"/>
<path d="M95.949 91.0479H99.4814V87.0021H95.949V91.0479Z" fill="white"/>
<path d="M102.072 84.8105H105.604V80.7648H102.072V84.8105Z" fill="white"/>
<path d="M95.949 84.8105H99.4814V80.7648H95.949V84.8105Z" fill="white"/>
<path d="M102.072 78.5664H105.604V74.5207H102.072V78.5664Z" fill="white"/>
<path d="M95.949 78.5664H99.4814V74.5207H95.949V78.5664Z" fill="white"/>
<path d="M102.072 97.1289H105.604V93.0832H102.072V97.1289Z" fill="white"/>
<path d="M95.949 97.1289H99.4814V93.0832H95.949V97.1289Z" fill="white"/>
<path d="M102.072 103.215H105.604V99.1691H102.072V103.215Z" fill="white"/>
<path d="M95.949 103.215H99.4814V99.1691H95.949V103.215Z" fill="white"/>
<path d="M102.072 109.308H105.604V105.262H102.072V109.308Z" fill="white"/>
<path d="M95.949 109.308H99.4814V105.262H95.949V109.308Z" fill="white"/>
<path d="M102.072 115.546H105.604V111.5H102.072V115.546Z" fill="white"/>
<path d="M95.949 115.546H99.4814V111.5H95.949V115.546Z" fill="white"/>
<path d="M102.072 121.783H105.604V117.737H102.072V121.783Z" fill="white"/>
<path d="M95.949 121.783H99.4814V117.737H95.949V121.783Z" fill="white"/>
<path d="M102.072 128.015H105.604V123.969H102.072V128.015Z" fill="white"/>
<path d="M95.949 128.015H99.4814V123.969H95.949V128.015Z" fill="white"/>
<path d="M102.072 134.253H105.604V130.207H102.072V134.253Z" fill="white"/>
<path d="M95.949 134.253H99.4814V130.207H95.949V134.253Z" fill="white"/>
<path d="M102.072 140.557H105.604V136.511H102.072V140.557Z" fill="white"/>
<path d="M95.949 140.557H99.4814V136.511H95.949V140.557Z" fill="white"/>
<path d="M102.072 146.861H105.604V142.816H102.072V146.861Z" fill="white"/>
<path d="M95.949 146.861H99.4814V142.816H95.949V146.861Z" fill="white"/>
<path d="M102.072 153.159H105.604V149.113H102.072V153.159Z" fill="white"/>
<path d="M95.949 153.159H99.4814V149.113H95.949V153.159Z" fill="white"/>
<path d="M102.072 159.469H105.604V155.423H102.072V159.469Z" fill="white"/>
<path d="M95.949 159.469H99.4814V155.423H95.949V159.469Z" fill="white"/>
<path d="M259.921 63.3073H194.906C194.906 63.3073 201.355 45.6992 211.276 45.6992C221.197 45.6992 224.301 57.8546 224.301 57.8546C224.301 57.8546 230.998 51.2485 236.498 51.2485C241.999 51.2485 246.764 59.974 246.764 59.974C246.764 59.974 254.547 55.2822 259.921 63.3073Z" fill="#EBEBEB"/>
<path d="M223.534 28.4841H193.148C193.148 28.4841 199.936 18.6475 205.286 18.6475C210.636 18.6475 212.218 25.2052 212.218 25.2052C212.218 25.2052 215.992 22.1437 219.464 22.6932C222.936 23.2427 223.534 28.4841 223.534 28.4841Z" fill="#EBEBEB"/>
<path d="M82.2658 58.0662H23.0898C23.0898 58.0662 31.1933 39.9509 39.8644 38.8398C48.5355 37.7288 52.6778 52.2813 52.6778 52.2813C52.6778 52.2813 58.2694 47.1306 62.6653 47.1306C67.0612 47.1306 70.4608 53.9178 70.4608 53.9178C70.4608 53.9178 79.2466 49.2682 82.2658 58.0662Z" fill="#EBEBEB"/>
<path d="M138.513 13.279H98.5332C98.5332 13.279 105.399 0.169554 112.85 -0.00556061C120.302 -0.180675 124.214 9.91557 124.214 9.91557C124.214 9.91557 135.802 0.598281 138.513 13.279Z" fill="#EBEBEB"/>
<path d="M165.814 226C220.186 226 264.263 223.083 264.263 219.484C264.263 215.886 220.186 212.969 165.814 212.969C111.442 212.969 67.3643 215.886 67.3643 219.484C67.3643 223.083 111.442 226 165.814 226Z" fill="#EBEBEB"/>
<path d="M137.088 101.222C147.305 111.85 177.998 159.149 180.39 160.562C180.39 160.562 180.39 191.497 163.295 185.319C146.2 179.142 130.531 123.643 127.185 105.95C125.422 96.6089 128.743 92.5511 137.088 101.222Z" fill="#D3766A"/>
<path d="M134.487 137.79L165.814 134.228C165.814 134.228 146.382 108.45 136.34 99.2471C125.87 89.6581 120.737 91.0047 125.592 109.168C130.471 127.441 134.487 137.79 134.487 137.79Z" fill="#137749"/>
<path d="M133.013 120.726C132.669 121.59 132.449 122.499 132.361 123.425C133.454 121.915 134.134 120.146 134.335 118.292C133.776 119.034 133.331 119.854 133.013 120.726ZM150.609 121.432C149.747 121.087 148.84 120.868 147.916 120.78C149.423 121.874 151.19 122.555 153.042 122.755C152.302 122.195 151.481 121.749 150.609 121.432ZM145.941 133.618C145.572 132.766 145.084 131.971 144.492 131.257C144.63 132.174 144.899 133.066 145.289 133.908C145.646 134.765 146.13 135.563 146.726 136.275C146.591 135.357 146.326 134.462 145.941 133.618ZM127.56 94.3682C127.403 94.0361 127.246 93.71 127.065 93.3839C126.85 93.3629 126.634 93.3629 126.419 93.3839C126.564 93.8247 126.727 94.2474 126.908 94.6701C127.271 95.5255 127.757 96.323 128.351 97.0372C128.215 96.1146 127.949 95.2159 127.56 94.3682ZM163.664 131.408L163.06 131.649C162.205 132.017 161.406 132.503 160.687 133.093C161.607 132.956 162.504 132.69 163.35 132.302C163.591 132.193 163.827 132.078 164.062 131.951L163.664 131.408ZM139.51 106.524C138.658 106.889 137.861 107.373 137.143 107.961C138.064 107.829 138.961 107.564 139.806 107.176C140.659 106.809 141.456 106.323 142.173 105.733C141.248 105.865 140.347 106.132 139.498 106.524H139.51ZM137.409 106.578C137.373 106.602 137.339 106.628 137.306 106.656H137.415C137.415 106.656 137.397 106.596 137.397 106.578H137.409Z" fill="white"/>
<path d="M135.99 132.157C136.721 131.988 137.488 131.921 138.23 131.819L140.537 131.498C142.089 131.281 143.647 131.088 145.205 130.895C148.321 130.532 151.436 130.152 154.558 129.844C155.416 129.759 156.279 129.675 157.137 129.608C157.994 129.542 158.948 129.542 159.854 129.476C159.908 129.476 159.908 129.554 159.854 129.56C159.087 129.675 158.326 129.85 157.559 129.971C156.792 130.092 155.977 130.2 155.186 130.297C153.634 130.496 152.07 130.677 150.512 130.852C147.445 131.184 144.371 131.535 141.292 131.806L138.72 132.024C137.82 132.102 136.908 132.235 136.002 132.229C135.995 132.227 135.989 132.222 135.984 132.216C135.98 132.211 135.976 132.204 135.975 132.196C135.974 132.189 135.975 132.181 135.977 132.175C135.98 132.168 135.984 132.161 135.99 132.157Z" fill="#263238"/>
<path opacity="0.1" d="M149.684 136.064L134.492 137.791C134.492 137.791 130.476 127.441 125.591 109.169C123.532 101.464 123.273 96.7842 124.456 94.6768L149.684 136.064Z" fill="black"/>
<path d="M143.176 202.221H95.527C95.1345 200.687 94.7541 199.202 94.3737 197.692C93.9389 195.984 93.5102 194.317 93.0996 192.693C93.009 192.33 92.9124 191.968 92.8218 191.612C92.5078 190.368 92.1999 189.16 91.898 187.989C91.7168 187.27 91.5357 186.564 91.3606 185.863C91.1854 185.163 90.9983 184.45 90.8231 183.768C90.7748 183.587 90.7326 183.405 90.6843 183.23L90.5393 182.627L90.3582 181.92C90.2918 181.672 90.2314 181.431 90.171 181.189C90.0502 180.73 89.9355 180.278 89.8268 179.837C89.6577 179.185 89.4947 178.545 89.3377 177.923C89.2713 177.651 89.1988 177.379 89.1324 177.113C89.0177 176.679 88.909 176.256 88.8063 175.839C88.7339 175.562 88.6674 175.29 88.601 175.024C88.3192 173.929 88.0576 172.903 87.816 171.945C87.7496 171.691 87.6892 171.443 87.6228 171.202C87.5202 170.785 87.4175 170.387 87.3209 169.994C87.2525 169.753 87.1921 169.517 87.1397 169.288C86.9284 168.466 86.7352 167.718 86.5721 167.059C86.5238 166.884 86.4816 166.715 86.4393 166.552C86.3306 166.117 86.2279 165.731 86.1434 165.387C86.1072 165.248 86.077 165.115 86.0408 164.994L85.9441 164.614C85.9441 164.529 85.9019 164.445 85.8838 164.372L85.7992 164.046C85.7992 163.994 85.7871 163.946 85.763 163.901L85.6543 163.473H132.035C132.035 163.473 133.563 168.738 136.008 177.228C136.503 178.955 137.041 180.851 137.614 182.802C139.239 188.466 141.135 195.072 143.176 202.221Z" fill="#37474F"/>
<path d="M103.328 202.22H102.12C100.357 194.922 98.6481 187.609 96.9936 180.283C96.5911 178.499 96.1885 176.716 95.7859 174.933L95.6772 174.431C95.6752 174.414 95.6795 174.397 95.6894 174.382C95.6993 174.368 95.714 174.357 95.7309 174.353C95.7478 174.349 95.7658 174.35 95.7814 174.358C95.7971 174.366 95.8094 174.379 95.8161 174.395C95.8161 174.45 95.8463 174.504 95.8644 174.558C96.3998 176.474 96.9332 178.393 97.4646 180.313C99.5056 187.595 101.46 194.898 103.328 202.22Z" fill="#263238"/>
<path d="M130.531 163.479L128.484 173.744L126.806 182.149L123.95 196.473L123.654 197.94L123.165 200.386L122.784 202.221H95.521C95.1345 200.681 94.7481 199.202 94.3737 197.692C93.9389 195.984 93.5102 194.317 93.0996 192.693C93.009 192.33 92.9124 191.968 92.8218 191.612C92.5078 190.368 92.1999 189.16 91.898 187.989C91.7168 187.27 91.5357 186.564 91.3606 185.863C91.1854 185.163 90.9983 184.45 90.8231 183.768C90.7748 183.587 90.7326 183.405 90.6843 183.23L90.5393 182.627L90.3582 181.92C90.2918 181.672 90.2314 181.431 90.171 181.189C90.0502 180.73 89.9355 180.278 89.8268 179.837C89.6577 179.185 89.4947 178.545 89.3377 177.923C89.2652 177.645 89.1988 177.379 89.1324 177.113C89.0177 176.679 88.909 176.256 88.8063 175.839C88.7339 175.562 88.6674 175.29 88.601 175.024C88.3192 173.929 88.0576 172.903 87.816 171.945C87.7496 171.691 87.6892 171.443 87.6228 171.202C87.5202 170.785 87.4175 170.387 87.3209 169.994C87.2525 169.753 87.1921 169.517 87.1397 169.288C86.9284 168.466 86.7352 167.718 86.5721 167.059C86.5238 166.884 86.4816 166.715 86.4393 166.552C86.3306 166.117 86.2279 165.731 86.1434 165.387C86.1072 165.248 86.077 165.115 86.0408 164.994L85.9441 164.614C85.9441 164.529 85.9019 164.445 85.8838 164.372L85.7992 164.046C85.7992 163.994 85.7871 163.946 85.763 163.901L85.6543 163.473L130.531 163.479Z" fill="#263238"/>
<path d="M130.537 163.46C130.537 163.714 130.344 166.48 129.897 170.707C129.77 171.914 129.619 173.291 129.444 174.74C129.172 177.029 128.84 179.571 128.417 182.222C127.705 186.877 126.775 191.956 125.567 196.919C125.138 198.731 124.667 200.476 124.166 202.209H64.2959C65.0024 193.085 65.6485 184.83 66.1618 178.327C66.8803 169.173 67.3694 163.442 67.3694 163.442H121.678L130.537 163.46Z" fill="#37474F"/>
<path d="M130.41 168.961C130.344 171.104 130.253 173.242 130.114 175.373C129.969 177.686 129.758 179.993 129.456 182.3C129.456 182.384 129.456 182.469 129.426 182.553C129.144 184.715 128.82 186.871 128.454 189.02C128.109 191.025 127.85 193.187 126.968 195.059C126.633 195.777 126.157 196.419 125.567 196.949C125.028 197.442 124.367 197.784 123.653 197.939C123.536 197.968 123.417 197.989 123.297 197.999H123.194C123.216 198.012 123.234 198.031 123.246 198.053C123.258 198.076 123.263 198.101 123.261 198.126C123.261 198.845 123.261 199.575 123.176 200.288C123.176 200.318 123.176 200.348 123.176 200.379C123.104 200.982 122.989 201.616 122.874 202.232H121.848V202.196C122.029 201.52 122.18 200.837 122.349 200.155C122.518 199.473 122.759 198.778 122.923 198.072C122.932 198.045 122.948 198.022 122.971 198.005C122.319 198.037 121.674 197.868 121.121 197.521C120.568 197.175 120.135 196.667 119.879 196.067C119.622 195.149 119.605 194.18 119.831 193.253C120.018 192.046 120.199 190.802 120.386 189.576C120.737 187.323 121.189 185.095 121.594 182.855L121.775 181.835C122.578 177.276 123.418 172.717 124.426 168.2C124.462 168.013 124.505 167.825 124.547 167.638C124.589 167.451 124.776 167.548 124.764 167.668C124.734 167.97 124.704 168.272 124.668 168.58C124.49 170.315 124.289 172.042 124.064 173.761C123.774 175.784 123.575 177.819 123.291 179.842C123.194 180.53 123.098 181.219 122.995 181.907C122.53 185.234 122.047 188.549 121.479 191.876C121.214 193.416 120.272 196.176 122.47 196.653C122.977 196.765 123.509 196.699 123.973 196.466C124.952 195.876 125.683 194.951 126.032 193.863C126.576 192.051 126.97 190.197 127.21 188.32C127.572 186.307 127.894 184.276 128.176 182.227C128.538 179.687 128.917 177.149 129.311 174.613C129.508 173.32 129.71 172.028 129.915 170.736L130.205 168.924C130.211 168.798 130.41 168.834 130.41 168.961Z" fill="#263238"/>
<path d="M77.4293 184.879C79.9227 184.853 82.4032 184.518 84.8142 183.882C85.9253 183.598 87.0243 183.242 88.1172 182.886C89.2001 182.587 90.2136 182.078 91.1002 181.388C92.7788 179.939 93.5578 177.663 94.2884 175.634C95.0816 173.349 95.725 171.015 96.2147 168.647C96.2147 168.533 96.4079 168.575 96.4139 168.684C96.4719 171.362 96.1321 174.034 95.4055 176.612C94.8017 178.804 93.9925 181.243 92.2233 182.777C90.4541 184.311 87.8394 184.963 85.4543 185.253C82.7798 185.564 80.0763 185.528 77.4112 185.144C77.376 185.142 77.3431 185.126 77.3199 185.099C77.2967 185.072 77.285 185.038 77.2874 185.002C77.2898 184.967 77.3061 184.934 77.3327 184.911C77.3593 184.888 77.3941 184.876 77.4293 184.879Z" fill="#263238"/>
<path d="M73.2697 168.719C73.1369 172.069 72.996 175.422 72.847 178.779C72.5049 186.593 72.1285 194.407 71.7179 202.22H70.5947C71.11 194.391 71.6514 186.565 72.219 178.743C72.4646 175.398 72.7182 172.054 72.9799 168.713C72.9807 168.675 72.9967 168.638 73.0245 168.612C73.0522 168.585 73.0894 168.571 73.1278 168.571C73.1662 168.572 73.2028 168.588 73.2294 168.616C73.256 168.644 73.2705 168.681 73.2697 168.719Z" fill="#263238"/>
<path d="M140.845 188.26L59.623 182.101C59.623 182.101 75.9629 117.339 108.226 93.5294C116.474 87.4487 125.502 91.3495 129.565 95.8964C139.891 107.478 141.087 188 140.845 188.26Z" fill="#137749"/>
<path d="M111.982 96.476C111.641 97.3393 111.421 98.2457 111.33 99.1692C111.886 98.4317 112.333 97.6183 112.658 96.7538C112.999 95.8906 113.218 94.9842 113.31 94.0607C112.756 94.7996 112.309 95.6127 111.982 96.476ZM103.166 131.414C102.818 132.277 102.601 133.187 102.52 134.114C103.607 132.601 104.285 130.833 104.488 128.981C103.934 129.725 103.488 130.544 103.166 131.414ZM74.1453 146.396C73.8017 147.26 73.5821 148.169 73.4931 149.095C74.586 147.585 75.2665 145.816 75.4677 143.962C74.918 144.709 74.473 145.528 74.1453 146.396ZM97.5681 168.466C97.2175 169.326 96.9977 170.234 96.916 171.159C98.0037 169.647 98.6819 167.879 98.8845 166.027C98.3307 166.772 97.8873 167.594 97.5681 168.466ZM133.013 120.714C132.669 121.579 132.449 122.487 132.361 123.413C133.454 121.903 134.135 120.134 134.336 118.281C133.776 119.026 133.33 119.85 133.013 120.726V120.714ZM118.557 164.644C118.206 165.504 117.984 166.412 117.899 167.337C118.454 166.6 118.9 165.786 119.222 164.922C119.565 164.059 119.785 163.152 119.874 162.228C119.321 162.966 118.877 163.779 118.557 164.644ZM89.2895 119.072C88.9452 119.934 88.7256 120.841 88.6374 121.765C89.7318 120.256 90.4106 118.486 90.6059 116.632C90.0498 117.376 89.6062 118.198 89.2895 119.072ZM121.74 107.478C120.879 107.13 119.971 106.911 119.047 106.826C119.785 107.378 120.598 107.821 121.462 108.142C122.325 108.491 123.234 108.711 124.161 108.794C123.422 108.241 122.606 107.798 121.74 107.478ZM130.942 136.589C130.081 136.243 129.174 136.023 128.249 135.937C128.986 136.491 129.799 136.935 130.664 137.254C131.526 137.602 132.433 137.824 133.357 137.912C132.62 137.364 131.806 136.927 130.942 136.613V136.589ZM133.412 171.383C132.55 171.038 131.643 170.819 130.719 170.731C131.455 171.287 132.269 171.732 133.134 172.053C133.997 172.396 134.903 172.615 135.827 172.705C135.087 172.162 134.274 171.725 133.412 171.407V171.383ZM75.5945 168.52C74.7326 168.176 73.8256 167.956 72.9014 167.868C74.4087 168.962 76.1761 169.643 78.028 169.843C77.2831 169.296 76.4636 168.859 75.5945 168.545V168.52ZM96.4933 146.178C95.6314 145.832 94.7246 145.61 93.8002 145.52C94.5379 146.076 95.3512 146.523 96.2155 146.849C97.0788 147.189 97.9851 147.409 98.9086 147.501C98.1697 146.953 97.3564 146.514 96.4933 146.196V146.178ZM127.561 94.3505C127.476 94.1694 127.392 93.9943 127.301 93.8191C127.005 93.5957 126.697 93.3783 126.365 93.167C126.515 93.6732 126.696 94.1693 126.909 94.6524C127.271 95.5078 127.757 96.3053 128.352 97.0195C128.214 96.1031 127.948 95.2106 127.561 94.3686V94.3505ZM103.824 113.13C103.46 112.275 102.974 111.478 102.381 110.763C102.671 112.605 103.442 114.338 104.615 115.787C104.482 114.867 104.216 113.972 103.824 113.13ZM124.783 184.583C124.419 183.729 123.935 182.932 123.346 182.216C123.48 183.134 123.744 184.029 124.131 184.873C124.475 185.667 124.919 186.413 125.453 187.095H125.55C125.411 186.226 125.153 185.381 124.783 184.583ZM117.072 142.501C116.705 141.648 116.219 140.851 115.629 140.134C115.929 141.972 116.696 143.702 117.857 145.158C117.723 144.239 117.459 143.345 117.072 142.501ZM61.7485 174.589C61.7123 174.716 61.6761 174.843 61.6338 174.963C61.7123 175.048 61.7847 175.139 61.8572 175.223C61.833 175.016 61.7967 174.81 61.7485 174.607V174.589ZM85.902 158.479C85.5354 157.627 85.0495 156.832 84.4588 156.118C84.7507 157.957 85.5212 159.688 86.693 161.135C86.549 160.222 86.2766 159.334 85.8839 158.497L85.902 158.479ZM91.0829 181.727C90.7165 180.873 90.2306 180.076 89.6397 179.359C89.9387 181.201 90.7083 182.933 91.8739 184.389C91.7319 183.476 91.4594 182.587 91.0648 181.751L91.0829 181.727ZM131.703 153.757C130.85 154.124 130.053 154.61 129.336 155.2C130.255 155.064 131.149 154.798 131.993 154.409C132.849 154.044 133.648 153.558 134.366 152.965C133.438 153.104 132.535 153.376 131.685 153.775L131.703 153.757ZM67.6359 157.283L67.328 158.116C67.9792 157.802 68.5879 157.406 69.1395 156.939C68.6211 157.007 68.1111 157.128 67.6178 157.301L67.6359 157.283ZM109.047 177.403C108.193 177.766 107.396 178.25 106.68 178.84C107.6 178.706 108.497 178.441 109.343 178.055C110.196 177.685 110.993 177.197 111.71 176.606C110.781 176.743 109.877 177.018 109.029 177.421L109.047 177.403ZM72.0137 182.789L71.5971 182.989L73.0161 183.097C73.6092 182.798 74.1646 182.429 74.6706 181.998C73.7451 182.14 72.8444 182.412 71.9956 182.807L72.0137 182.789ZM86.2401 133.135C85.3895 133.507 84.5932 133.993 83.8731 134.578C85.7136 134.281 87.4462 133.514 88.903 132.35C87.9751 132.486 87.072 132.757 86.222 133.153L86.2401 133.135ZM107.06 156.262C106.207 156.631 105.41 157.119 104.693 157.712C106.535 157.416 108.269 156.646 109.723 155.477C108.796 155.616 107.893 155.886 107.042 156.281L107.06 156.262ZM117.929 124.47C117.078 124.84 116.281 125.326 115.562 125.913C117.403 125.622 119.135 124.853 120.586 123.685C119.655 123.822 118.748 124.093 117.893 124.488L117.929 124.47Z" fill="white"/>
<path d="M124.964 109.429C120.278 108.734 115.52 99.2779 114.699 92.8289C114.644 92.382 121.945 78.4514 123.086 75.5469C123.321 74.9431 139.601 87.2373 139.601 87.2373C139.601 87.2373 135.374 92.6236 133.399 97.714C133.26 98.1367 129.493 110.093 124.964 109.429Z" fill="#D3766A"/>
<path d="M139.625 87.2369C139.625 87.2369 135.398 92.6232 133.418 97.7075C133.382 97.8102 133.14 98.5589 132.742 99.6277C124.372 95.4009 120.961 87.8528 119.584 82.8711C121.166 79.701 122.639 76.724 123.11 75.5465C123.346 74.9487 139.625 87.2369 139.625 87.2369Z" fill="#263238"/>
<path d="M126.848 52.9206C122.084 58.4337 117.319 78.3182 120.043 84.4291C123.998 93.2814 134.535 98.6012 143.061 92.9432C151.351 87.4543 157.1 61.4287 153.676 55.4628C148.64 46.6708 133.876 44.7808 126.848 52.9206Z" fill="#D3766A"/>
<path d="M139.576 69.0737C138.973 69.122 138.369 69.0737 137.765 69.0737C137.124 69.161 136.472 69.0336 135.911 68.7114C135.755 68.5755 135.647 68.3918 135.606 68.1888C135.564 67.9857 135.591 67.7746 135.682 67.5883C135.918 67.2477 136.24 66.9764 136.616 66.8023C136.992 66.6282 137.407 66.5576 137.819 66.598C138.666 66.5481 139.501 66.815 140.162 67.3467C140.302 67.4785 140.401 67.6476 140.448 67.8341C140.494 68.0206 140.486 68.2164 140.424 68.3984C140.363 68.5804 140.25 68.7408 140.1 68.8605C139.949 68.9803 139.768 69.0543 139.576 69.0737Z" fill="#263238"/>
<path d="M139.046 71.9896C139.046 71.9353 138.925 72.0319 138.913 72.0923C138.689 73.4509 138.2 74.9726 136.89 75.1779C136.848 75.1779 136.836 75.2504 136.89 75.2564C138.418 75.341 139.046 73.3181 139.046 71.9896Z" fill="#263238"/>
<path d="M138.115 70.3358C135.971 69.7319 134.933 74.0736 136.907 74.6231C138.882 75.1726 139.908 70.837 138.115 70.3358Z" fill="#263238"/>
<path d="M146.835 73.6624C146.835 73.6141 146.925 73.753 146.913 73.8073C146.551 75.1358 146.358 76.7239 147.463 77.4304C147.499 77.4304 147.463 77.5209 147.433 77.5028C146.002 76.9714 146.279 74.8701 146.835 73.6624Z" fill="#263238"/>
<path d="M148.368 72.5515C150.566 72.9017 149.703 77.2675 147.668 76.9414C145.633 76.6154 146.527 72.2556 148.368 72.5515Z" fill="#263238"/>
<path d="M150.596 70.4016C150.041 70.1438 149.501 69.8555 148.978 69.5381C148.364 69.3114 147.844 68.8864 147.499 68.3304C147.423 68.1361 147.414 67.9222 147.473 67.7223C147.532 67.5223 147.656 67.3475 147.825 67.2254C148.567 66.7423 149.425 66.9658 150.186 67.3401C150.962 67.6934 151.579 68.3216 151.919 69.1034C151.99 69.2872 152.006 69.488 151.965 69.6808C151.923 69.8736 151.826 70.05 151.685 70.1881C151.545 70.3263 151.366 70.4202 151.173 70.4581C150.979 70.4961 150.779 70.4764 150.596 70.4016Z" fill="#263238"/>
<path d="M134.552 83.6139C134.794 84.0064 135.011 84.5136 135.488 84.6706C135.992 84.7792 136.513 84.7792 137.016 84.6706C137.026 84.6696 137.037 84.6719 137.045 84.6772C137.054 84.6824 137.061 84.6903 137.065 84.6997C137.069 84.7091 137.07 84.7195 137.068 84.7295C137.065 84.7394 137.06 84.7484 137.052 84.7551C136.798 84.9723 136.49 85.1167 136.16 85.173C135.831 85.2294 135.492 85.1956 135.18 85.0752C134.923 84.9397 134.712 84.7305 134.575 84.4745C134.437 84.2185 134.379 83.9273 134.408 83.638C134.408 83.5595 134.516 83.5535 134.552 83.6139Z" fill="#263238"/>
<path d="M136.92 79.9364C137.135 80.5479 137.474 81.1085 137.916 81.5833C138.357 82.0581 138.892 82.4368 139.486 82.696C140.003 82.9291 140.549 83.0877 141.111 83.167C141.216 83.1906 141.323 83.2027 141.431 83.2032C141.533 83.2096 141.636 83.2096 141.738 83.2032C141.813 83.2077 141.887 83.187 141.949 83.1442C142.01 83.1015 142.055 83.0393 142.077 82.9677C142.08 82.9194 142.08 82.871 142.077 82.8228V82.702C142.348 81.6755 142.626 80.0813 142.626 80.0813C142.958 80.3591 144.673 81.6875 144.776 81.1381C145.579 76.6092 146.467 71.5732 146.31 66.8934C146.31 66.8598 146.296 66.8275 146.272 66.8037C146.249 66.78 146.216 66.7666 146.183 66.7666C146.149 66.7666 146.117 66.78 146.093 66.8037C146.069 66.8275 146.056 66.8598 146.056 66.8934C145.114 71.2169 144.939 75.6793 144.057 80.0391C143.467 79.5539 142.81 79.1554 142.107 78.8555C141.95 78.8555 141.63 81.9472 141.467 82.394C141.468 82.4101 141.468 82.4263 141.467 82.4423C139.655 82.2491 138.496 81.4098 137.089 79.8458C136.998 79.7432 136.866 79.8096 136.92 79.9364Z" fill="#263238"/>
<path d="M140.627 82.4969C139.883 83.0972 138.997 83.4964 138.055 83.6563C137.539 83.7282 137.013 83.6374 136.551 83.3966C135.549 82.8592 135.754 81.8689 136.153 81.0719C136.37 80.6517 136.635 80.2586 136.944 79.9004C137.863 81.1373 139.154 82.0472 140.627 82.4969Z" fill="#263238"/>
<path d="M138.055 83.6567C137.539 83.7285 137.013 83.6378 136.551 83.397C135.549 82.8596 135.754 81.8693 136.153 81.0723C137.276 81.4648 138.224 82.5215 138.055 83.6567Z" fill="#FF97B8"/>
<path d="M155.5 63.2039C147.046 66.7424 138.496 56.9542 138.496 56.9542C137.527 58.4397 136.104 59.5726 134.439 60.1841C132.775 60.7956 130.957 60.853 129.257 60.3477C129.257 60.3477 125.199 72.5876 121.89 71.8509C116.86 70.7761 118.871 53.3492 121.147 50.3179C123.424 47.2866 127.892 47.2987 127.892 47.2987C127.892 47.2987 128.744 44.7565 132.355 43.0235C136.34 41.1033 147.451 47.1236 147.451 47.1236C148.459 45.6773 149.793 44.488 151.345 43.6515C151.72 43.4409 152.134 43.3086 152.561 43.2625C152.988 43.2165 153.421 43.2576 153.832 43.3835C154.243 43.5094 154.624 43.7174 154.952 43.995C155.28 44.2725 155.549 44.6137 155.741 44.9981C154.916 45.7916 154.283 46.762 153.887 47.8361C152.529 51.3867 155.53 52.0087 156.2 48.6694C156.491 47.4302 156.329 46.1275 155.741 44.9981C157.673 43.1262 160.24 42.9209 161.466 44.3942C163.718 47.0934 162.534 60.2692 155.5 63.2039Z" fill="#263238"/>
<path d="M134.764 78.711C133.724 78.3775 132.798 77.7586 132.093 76.9248C131.387 76.091 130.93 75.0758 130.772 73.9948C130.615 72.9138 130.765 71.8104 131.204 70.8103C131.644 69.8102 132.355 68.9536 133.257 68.3379C134.16 67.7223 135.217 67.3724 136.308 67.328C137.4 67.2837 138.482 67.5468 139.431 68.0872C140.38 68.6277 141.159 69.4238 141.678 70.385C142.197 71.3462 142.435 72.4338 142.366 73.524C142.309 74.4093 142.051 75.2699 141.612 76.0406C141.172 76.8113 140.563 77.4717 139.83 77.9717C139.098 78.4717 138.26 78.7981 137.383 78.9262C136.505 79.0543 135.609 78.9807 134.764 78.711ZM138.097 68.3551C137.706 68.2283 137.3 68.1492 136.89 68.1196C135.603 68.0283 134.329 68.4314 133.329 69.2469C132.329 70.0624 131.678 71.2286 131.509 72.5077C131.339 73.7869 131.664 75.0825 132.417 76.1302C133.17 77.1779 134.295 77.8987 135.561 78.1457C136.828 78.3927 138.141 78.1471 139.232 77.4591C140.324 76.7711 141.112 75.6925 141.435 74.4435C141.759 73.1944 141.594 71.8689 140.973 70.7375C140.353 69.6061 139.324 68.754 138.097 68.3551Z" fill="#137749"/>
<path d="M147.632 81.1507C145.543 80.3657 144.456 77.5276 145.217 74.5627C145.541 73.1443 146.303 71.864 147.396 70.9034C147.838 70.4584 148.387 70.1355 148.991 69.9663C149.595 69.7972 150.232 69.7876 150.841 69.9386C151.449 70.0895 152.008 70.3957 152.463 70.8273C152.917 71.2589 153.252 71.8012 153.435 72.401C153.947 73.7634 154.02 75.2516 153.646 76.6581C152.873 79.7739 150.355 81.8451 148.03 81.2654C147.894 81.2392 147.761 81.2008 147.632 81.1507ZM150.899 70.7948L150.615 70.7102C150.127 70.6117 149.623 70.6321 149.144 70.7698C148.666 70.9075 148.228 71.1584 147.867 71.5013C146.903 72.3573 146.229 73.493 145.941 74.7499C145.271 77.4551 146.267 80.0396 148.181 80.5106C150.096 80.9816 152.185 79.1701 152.855 76.4709C153.191 75.2249 153.128 73.9049 152.674 72.6969C152.528 72.273 152.295 71.8846 151.989 71.5569C151.683 71.2292 151.311 70.9695 150.899 70.7948Z" fill="#137749"/>
<path d="M142.046 74.1517L141.672 73.4694C142.68 72.9078 144.878 72.3281 145.983 74.0732L145.319 74.4838C144.335 72.9199 142.137 74.0974 142.046 74.1517Z" fill="#137749"/>
<path d="M116.275 70.5891L115.671 70.1061C115.9 69.8223 117.935 67.3284 119.692 67.3888C121.341 67.4492 131.401 70.408 131.83 70.5589L131.606 71.3077C128.72 70.4503 120.942 68.21 119.668 68.1677C118.497 68.1255 116.824 69.9008 116.275 70.5891Z" fill="#137749"/>
<path d="M124.046 70.7165C124.046 70.7165 122.421 62.939 119.064 63.2711C115.707 63.6032 115.139 73.6089 117.826 76.1631C118.147 76.5142 118.536 76.7968 118.969 76.9938C119.401 77.1909 119.87 77.2982 120.345 77.3095C120.821 77.3208 121.294 77.2358 121.736 77.0595C122.178 76.8832 122.579 76.6194 122.916 76.2839L124.046 70.7165Z" fill="#D3766A"/>
<path d="M118.973 66.1453C118.925 66.1151 118.883 66.1815 118.919 66.2238C120.773 68.0836 121.056 70.6621 120.966 73.162C120.652 72.0509 119.939 71.2055 118.49 71.5256C118.418 71.5256 118.436 71.6524 118.49 71.6705C118.937 71.7118 119.36 71.8917 119.7 72.1851C120.04 72.4784 120.28 72.8706 120.386 73.3069C120.563 74.035 120.662 74.7799 120.682 75.529C120.682 75.7766 121.105 75.8249 121.129 75.529C121.126 75.509 121.126 75.4887 121.129 75.4686C122.421 72.6789 121.914 67.7395 118.973 66.1453Z" fill="#263238"/>
<path d="M165.445 125.303C166.973 121.282 202.394 128.564 200.981 134.729C195.794 157.313 181.338 177.493 177.685 182.107C172.89 188.145 163.35 186.805 159.872 183.145C154.83 177.838 163.935 129.289 165.445 125.303Z" fill="#D3766A"/>
<path d="M162.951 136.39C162.164 138.554 161.54 140.774 161.085 143.032C160.572 145.266 160.125 147.513 159.763 149.771C159.046 154.339 158.643 158.951 158.555 163.575C158.488 166.159 158.555 168.738 158.555 171.322C158.555 171.383 158.652 171.376 158.652 171.322C158.652 169.034 158.79 166.727 158.978 164.444C159.165 162.162 159.394 159.837 159.69 157.549C160.264 153.05 160.898 148.557 161.713 144.095C161.938 142.843 162.174 141.595 162.419 140.351C162.679 139.059 162.975 137.773 163.144 136.462C163.144 136.366 162.993 136.281 162.951 136.39Z" fill="#263238"/>
<path d="M156.901 61.6522C156.668 64.7273 156.208 67.781 155.524 70.7883C155.409 71.3016 155.283 71.8269 155.156 72.3462C154.649 74.4114 154.045 76.4886 153.344 78.4873C153.183 78.9704 153.014 79.4474 152.837 79.9184C150.694 85.7093 147.862 90.691 144.673 92.8044C143.864 93.3474 143.004 93.8124 142.107 94.1932C137.537 91.5276 133.72 87.7428 131.015 83.1951C128.311 78.6475 126.808 73.4864 126.649 68.1978L125.683 67.9321C125.834 67.6966 125.991 67.4551 126.142 67.2015C126.292 66.9479 126.48 66.6279 126.643 66.3259C126.885 58.5516 130.025 51.1488 135.447 45.5719C143.037 43.5309 152.125 46.4474 155.947 53.1078C156.877 54.7563 157.161 57.8601 156.901 61.6522Z" fill="#D3766A"/>
<path d="M140.989 67.5213C140.348 67.5545 139.705 67.5545 139.063 67.5213C138.321 67.5213 137.729 67.5756 137.095 67.1348C136.924 66.9904 136.807 66.7924 136.763 66.5731C136.72 66.3538 136.751 66.1261 136.853 65.9271C137.318 65.1059 138.224 64.8946 139.118 64.8765C140.014 64.8234 140.899 65.1053 141.599 65.6675C141.755 65.8052 141.866 65.9853 141.92 66.1856C141.974 66.386 141.969 66.5978 141.904 66.7949C141.839 66.992 141.718 67.1659 141.555 67.295C141.393 67.424 141.196 67.5027 140.989 67.5213Z" fill="#263238"/>
<path d="M140.428 70.6433C140.428 70.589 140.301 70.6916 140.289 70.746C140.054 72.1892 139.535 73.8014 138.146 74.0188C138.103 74.0188 138.091 74.0973 138.146 74.1034C139.764 74.1637 140.428 72.0201 140.428 70.6433Z" fill="#263238"/>
<path d="M139.444 68.8617C137.173 68.2277 136.074 72.8169 138.176 73.4026C140.277 73.9884 141.346 69.3931 139.444 68.8617Z" fill="#263238"/>
<path d="M148.682 72.3827C148.682 72.3344 148.779 72.4793 148.76 72.5397C148.374 73.9467 148.157 75.6254 149.364 76.4043C149.401 76.4043 149.364 76.5009 149.334 76.4828C147.8 75.885 148.09 73.6629 148.682 72.3827Z" fill="#263238"/>
<path d="M150.306 71.2047C152.631 71.5791 151.713 76.2045 149.558 75.8604C147.402 75.5162 148.356 70.8907 150.306 71.2047Z" fill="#263238"/>
<path d="M152.662 68.9283C152.058 68.6686 151.533 68.3244 150.953 68.0165C150.306 67.7788 149.755 67.3355 149.383 66.7544C149.304 66.5494 149.295 66.324 149.357 66.1132C149.419 65.9024 149.55 65.7181 149.728 65.589C150.519 65.0757 151.424 65.3112 152.227 65.7098C153.041 66.0861 153.687 66.7509 154.039 67.5756C154.107 67.7668 154.12 67.9735 154.075 68.1715C154.029 68.3694 153.928 68.5502 153.783 68.6925C153.638 68.8348 153.456 68.9326 153.257 68.9744C153.059 69.0162 152.852 69.0002 152.662 68.9283Z" fill="#263238"/>
<path d="M135.67 82.9255C135.93 83.3361 136.159 83.8735 136.666 84.0426C137.197 84.1602 137.748 84.1602 138.279 84.0426C138.289 84.0422 138.3 84.045 138.309 84.0506C138.318 84.0561 138.325 84.0643 138.33 84.0739C138.334 84.0836 138.336 84.0943 138.334 84.1048C138.333 84.1154 138.328 84.1252 138.321 84.1331C138.051 84.3639 137.724 84.5172 137.374 84.5767C137.025 84.6362 136.665 84.5998 136.334 84.4713C136.063 84.3269 135.841 84.1052 135.696 83.8343C135.551 83.5634 135.489 83.2555 135.519 82.9496C135.513 82.8651 135.628 82.8651 135.67 82.9255Z" fill="#263238"/>
<path d="M138.182 79.0246C138.407 79.6734 138.764 80.2686 139.231 80.7726C139.698 81.2767 140.263 81.6786 140.893 81.9532C141.44 82.1999 142.02 82.3667 142.614 82.4484C142.727 82.474 142.842 82.4881 142.958 82.4906C143.065 82.4973 143.172 82.4973 143.278 82.4906C143.358 82.4957 143.436 82.4741 143.502 82.4292C143.568 82.3844 143.616 82.3188 143.64 82.2431C143.647 82.195 143.647 82.1462 143.64 82.0981V81.9713C143.93 80.8844 144.244 79.1936 144.244 79.1936C144.595 79.4895 146.412 80.8965 146.515 80.3168C147.366 75.4861 148.326 70.1783 148.145 65.2207C148.145 65.1855 148.131 65.1517 148.106 65.1268C148.081 65.1019 148.048 65.0879 148.012 65.0879C147.977 65.0879 147.943 65.1019 147.918 65.1268C147.893 65.1517 147.879 65.1855 147.879 65.2207C146.877 69.7979 146.672 74.5259 145.76 79.1091C145.114 78.6093 144.4 78.2028 143.64 77.9014C143.477 77.9014 143.133 81.1742 142.964 81.6513C142.967 81.6673 142.967 81.6836 142.964 81.6996C141.074 81.4943 139.818 80.6127 138.333 78.9461C138.26 78.8253 138.121 78.8917 138.182 79.0246Z" fill="#263238"/>
<path d="M142.107 81.7423C141.318 82.3726 140.38 82.7886 139.384 82.95C138.838 83.0283 138.282 82.931 137.796 82.6722C136.727 82.1046 136.95 81.054 137.373 80.2146C137.601 79.7686 137.88 79.3511 138.206 78.9707C139.177 80.2876 140.544 81.2589 142.107 81.7423Z" fill="#263238"/>
<path d="M139.377 82.9678C138.831 83.0461 138.275 82.9488 137.789 82.69C136.72 82.1224 136.943 81.0718 137.366 80.2324C138.55 80.6491 139.558 81.7601 139.377 82.9678Z" fill="#FF97B8"/>
<path d="M157.854 61.3084C157.534 61.4413 157.214 61.556 156.9 61.6526C148.253 64.3337 139.842 54.6843 139.842 54.6843C138.821 56.2627 137.316 57.4684 135.553 58.1214C133.79 58.7744 131.863 58.8396 130.06 58.3073C129.122 61.0705 127.974 63.7574 126.624 66.3445C126.787 61.2098 128.214 56.1946 130.78 51.7441C133.346 47.2935 136.971 43.5453 141.333 40.8322C144.088 41.7987 146.768 42.9652 149.352 44.3224C150.423 42.7906 151.837 41.5311 153.483 40.645C153.879 40.4216 154.317 40.281 154.769 40.2317C155.221 40.1824 155.679 40.2254 156.114 40.358C156.549 40.4907 156.953 40.7103 157.301 41.0035C157.649 41.2967 157.934 41.6575 158.138 42.064C157.267 42.9111 156.596 43.9428 156.176 45.0832C154.739 48.8391 157.915 49.4973 158.621 45.9648C158.933 44.6507 158.762 43.2681 158.138 42.07C160.185 40.0955 162.903 39.8781 164.177 41.4662C166.556 44.2559 165.312 58.1986 157.854 61.3084Z" fill="#263238"/>
<path d="M141.726 67.105C140.721 66.2675 139.475 65.7725 138.17 65.692C137.777 65.6665 137.382 65.6807 136.992 65.7342C136.013 65.8608 135.079 66.2202 134.268 66.7823C133.457 67.3444 132.793 68.0928 132.33 68.9648C132.197 69.2086 132.084 69.4631 131.992 69.7256C131.783 70.2835 131.658 70.8698 131.624 71.4647C131.54 72.835 131.913 74.1944 132.686 75.3291C133.459 76.4637 134.587 77.3093 135.893 77.7326C136.383 77.8867 136.89 77.9819 137.403 78.0164H137.789C139.269 78.0192 140.702 77.4914 141.826 76.5286C142.951 75.5659 143.693 74.2321 143.918 72.769C143.918 72.5939 143.96 72.4188 143.972 72.2376C143.984 72.0565 143.972 71.9719 143.972 71.8451C143.97 70.9383 143.768 70.0432 143.38 69.2237C142.991 68.4042 142.427 67.6807 141.726 67.105ZM137.451 77.1891C136.153 77.106 134.929 76.5527 134.009 75.6328C133.09 74.7128 132.537 73.4892 132.454 72.1909C132.371 70.8927 132.764 69.6087 133.559 68.5792C134.354 67.5497 135.498 66.8453 136.775 66.5977C137.218 66.5118 137.671 66.4834 138.121 66.5132C138.564 66.5421 139.003 66.6253 139.426 66.7608C139.965 66.9341 140.472 67.193 140.929 67.5277C141.868 68.2072 142.56 69.1734 142.902 70.2806C143.243 71.3878 143.216 72.5761 142.823 73.6663C142.431 74.7566 141.695 75.6897 140.726 76.3251C139.757 76.9605 138.607 77.2637 137.451 77.1891Z" fill="#137749"/>
<path d="M155.632 71.0478L155.523 70.7881C155.154 69.9391 154.518 69.2334 153.712 68.7773C153.452 68.6326 153.174 68.523 152.885 68.4513C152.464 68.3489 152.028 68.3243 151.598 68.3788C150.723 68.5012 149.902 68.8769 149.237 69.4597C148.738 69.885 148.306 70.3838 147.957 70.9391C147.691 71.3505 147.467 71.7874 147.287 72.2434C147.164 72.5373 147.063 72.8401 146.985 73.1491C146.963 73.2104 146.945 73.273 146.931 73.3363C146.573 74.7055 146.611 76.1482 147.04 77.4968C147.218 78.1214 147.534 78.6984 147.963 79.1861C148.392 79.6738 148.925 80.06 149.521 80.3168C149.648 80.3651 149.775 80.4013 149.908 80.4375C150.408 80.551 150.925 80.5636 151.43 80.4744C151.935 80.3852 152.418 80.1961 152.848 79.9182C154.386 78.9131 155.47 77.3461 155.868 75.5524C156.262 74.0632 156.179 72.4879 155.632 71.0478ZM155.028 75.3532C154.754 76.531 154.168 77.6133 153.331 78.4871C152.938 78.946 152.431 79.2934 151.86 79.4947C151.29 79.6961 150.677 79.7442 150.083 79.6344C148.054 79.1332 146.997 76.3978 147.71 73.5356C148.014 72.2049 148.726 71.002 149.745 70.0937C150.128 69.7309 150.593 69.4653 151.101 69.3192C151.608 69.1732 152.143 69.1509 152.661 69.2544C152.762 69.2782 152.861 69.3085 152.957 69.3449C153.394 69.5314 153.788 69.807 154.112 70.1544C154.437 70.5017 154.685 70.9129 154.841 71.3618C154.97 71.6794 155.067 72.0091 155.131 72.346C155.324 73.3422 155.297 74.3684 155.052 75.3532H155.028Z" fill="#137749"/>
<path d="M143.604 72.9021L143.212 72.1775C144.281 71.5736 146.612 70.9698 147.777 72.8417L147.076 73.2765C146.032 71.5978 143.707 72.8478 143.604 72.9021Z" fill="#137749"/>
<path d="M132.777 69.0974L132.542 69.8885L131.992 69.7254C130.634 69.3269 128.629 68.7472 126.63 68.1917L125.664 67.926C125.815 67.6905 125.972 67.4489 126.123 67.1953L126.612 67.3342C129.027 67.9984 131.364 68.6808 132.33 68.9646L132.777 69.0974Z" fill="#137749"/>
<g opacity="0.3">
<path opacity="0.3" d="M164.449 97.6893C158.432 99.0144 152.159 98.5256 146.42 96.2848C140.682 94.044 135.737 90.1519 132.211 85.1007C128.685 80.0494 126.736 74.066 126.61 67.9069C126.484 61.7479 128.188 55.6899 131.506 50.4992C134.823 45.3084 139.605 41.2181 145.247 38.7453C150.89 36.2726 157.138 35.5285 163.203 36.6073C169.269 37.686 174.877 40.5391 179.321 44.8057C183.765 49.0724 186.843 54.5609 188.167 60.5772C189.047 64.5715 189.132 68.6999 188.416 72.7268C187.7 76.7537 186.198 80.6002 183.995 84.0465C181.793 87.4928 178.933 90.4714 175.579 92.8123C172.225 95.1532 168.443 96.8104 164.449 97.6893Z" fill="white"/>
<path opacity="0.3" d="M130.435 82.2246C134.38 89.4266 141.008 94.7803 148.879 97.122C156.75 99.4637 165.227 98.6041 172.468 94.7302L130.435 82.2246Z" fill="#EBEBEB"/>
<path opacity="0.3" d="M131.328 50.8074L188.898 67.9384C188.948 65.4647 188.705 62.9939 188.173 60.5775C187.571 57.8054 186.586 55.1308 185.245 52.631L142.747 39.9805C138.077 42.5535 134.146 46.2812 131.328 50.8074Z" fill="#EBEBEB"/>
<path opacity="0.3" d="M126.836 70.9093L181.67 87.213C182.977 85.6439 184.128 83.9511 185.106 82.1589L126.715 64.7803C126.547 66.8221 126.587 68.8757 126.836 70.9093Z" fill="#EBEBEB"/>
<path opacity="0.3" d="M129.335 54.5752L188.511 72.1893C188.571 71.8149 188.626 71.4405 188.668 71.0661L129.806 53.5547C129.643 53.8868 129.48 54.225 129.335 54.5752Z" fill="#EBEBEB"/>
<path opacity="0.3" d="M152.602 36.5628L178.868 44.3765C178.186 43.7424 177.468 43.1688 176.725 42.565L155.391 36.2246C154.456 36.2894 153.525 36.4023 152.602 36.5628Z" fill="#EBEBEB"/>
</g>
<path d="M168.729 136.192L176.726 134.431L168.981 99.2662L160.985 101.027L168.729 136.192Z" fill="#EBEBEB"/>
<path d="M191.573 59.8287C190.1 53.141 186.677 47.0401 181.737 42.2976C176.797 37.5551 170.562 34.3839 163.82 33.1851C157.078 31.9863 150.132 32.8137 143.86 35.5626C137.588 38.3116 132.272 42.8587 128.584 48.6289C124.896 54.3991 123.002 61.1333 123.142 67.9798C123.281 74.8264 125.448 81.4778 129.368 87.0931C133.287 92.7083 138.784 97.0352 145.162 99.5265C151.541 102.018 158.515 102.562 165.203 101.089C174.17 99.1119 181.984 93.6549 186.929 85.9179C191.874 78.1808 193.544 68.7968 191.573 59.8287ZM164.448 97.6896C158.432 99.0158 152.158 98.5282 146.419 96.2883C140.68 94.0484 135.735 90.157 132.208 85.1061C128.68 80.0553 126.73 74.0719 126.604 67.9126C126.478 61.7534 128.181 55.6951 131.498 50.5038C134.815 45.3125 139.597 41.2214 145.239 38.7481C150.881 36.2747 157.13 35.5301 163.195 36.6084C169.26 37.6867 174.87 40.5395 179.314 44.806C183.758 49.0725 186.836 54.561 188.161 60.5775C189.041 64.5713 189.126 68.6994 188.41 72.726C187.695 76.7526 186.193 80.5988 183.991 84.045C181.789 87.4912 178.93 90.47 175.577 92.8111C172.224 95.1523 168.442 96.81 164.448 97.6896Z" fill="#455A64"/>
<path d="M172.038 160.936L184.133 158.273L177.268 127.103L165.173 129.765L172.038 160.936Z" fill="#263238"/>
<path d="M177.316 63.1919C177.303 63.1565 177.293 63.1201 177.286 63.0832C177.141 62.5639 177.443 63.5844 177.334 63.2462C177.226 62.9081 177.069 62.431 176.918 62.0385C176.389 60.6377 175.743 59.2842 174.986 57.9928C174.883 57.8116 174.768 57.6305 174.665 57.4493C174.629 57.3889 174.931 57.872 174.665 57.4916L174.454 57.1655C174.176 56.7489 173.893 56.3383 173.597 55.9578C172.943 55.0742 172.231 54.235 171.465 53.4459L170.91 52.8903C170.656 52.6428 171.205 53.1621 170.855 52.842L170.505 52.522C170.052 52.1295 169.587 51.7491 169.104 51.3868C168.621 51.0245 168.047 50.6259 167.498 50.2817C167.244 50.1247 166.991 49.9738 166.731 49.8288C166.284 49.5692 166.924 49.9194 166.592 49.7503L166.115 49.5088C164.673 48.799 163.164 48.2327 161.611 47.8181H161.532L161.363 47.7818L160.669 47.6309C160.216 47.5403 159.769 47.4618 159.31 47.3954C158.351 47.2581 157.386 47.1695 156.418 47.1297C156.149 47.0991 155.889 47.016 155.652 46.8849C155.415 46.7538 155.207 46.5774 155.038 46.3657C154.698 45.9382 154.541 45.3931 154.603 44.8502C154.665 44.3073 154.939 43.8111 155.367 43.4708C155.794 43.1305 156.34 42.974 156.882 43.0356C163.052 43.2265 168.952 45.6092 173.524 49.7564C176.562 52.6009 178.937 56.0787 180.48 59.9432C180.834 60.8059 181.128 61.6916 181.362 62.5941C181.445 63.1336 181.312 63.6842 180.991 64.1255C180.669 64.5668 180.186 64.8629 179.647 64.9491C179.109 65.0214 178.564 64.8835 178.126 64.564C177.687 64.2446 177.388 63.7682 177.292 63.2341L177.316 63.1919Z" fill="white"/>
<path d="M178.161 69.261C178.223 69.6581 178.4 70.0281 178.672 70.324C178.944 70.6199 179.297 70.8285 179.688 70.9234C180.078 71.0182 180.488 70.995 180.865 70.8566C181.242 70.7183 181.57 70.4711 181.807 70.1464C182.043 69.8216 182.178 69.434 182.194 69.0325C182.21 68.6311 182.106 68.2339 181.896 67.8914C181.686 67.5489 181.379 67.2764 181.014 67.1085C180.649 66.9406 180.243 66.8849 179.846 66.9483C179.317 67.033 178.842 67.3238 178.527 67.7571C178.211 68.1905 178.08 68.7312 178.161 69.261Z" fill="white"/>
<path d="M198.601 141.788C198.601 141.788 207.248 127.574 196.482 114.012C192.05 108.432 181.591 98.4265 160.372 99.8213C155.336 100.153 148.398 104.193 156.816 106.639C162.794 108.378 167.111 107.671 170.408 109.314C170.408 109.314 162.19 115.503 162.721 120.533C162.957 122.779 163.132 127.689 164.43 132.362C164.43 132.362 166.133 133.57 167.516 133.365C167.516 133.365 171.241 144.113 184.641 147.416L198.601 141.788Z" fill="#D3766A"/>
<path d="M191.935 112.187C188.469 110.805 181.066 108.003 174.213 107.81C166.598 107.598 151.871 109.247 151.78 114.869C151.708 118.993 157.384 118.854 157.384 118.854C157.384 118.854 151.442 120.816 152.197 124.554C152.879 127.96 157.263 127.573 157.263 127.573C157.263 127.573 153.863 129.385 155.155 132.537C156.707 136.329 163.573 131.933 168.44 134.397C169.563 134.976 191.935 112.187 191.935 112.187Z" fill="#D3766A"/>
<path d="M175.317 115.889C171.845 115.128 163.506 115.418 157.456 118.721C157.317 118.794 157.299 118.939 157.456 118.896C163.269 117.201 169.267 116.215 175.317 115.962C175.372 115.962 175.372 115.931 175.317 115.889Z" fill="#263238"/>
<path d="M174.895 123.57C171.827 123.22 163.247 123.902 157.232 127.459C157.094 127.537 157.087 127.682 157.232 127.634C162.954 125.64 168.883 124.301 174.907 123.642C174.916 123.641 174.925 123.635 174.931 123.628C174.936 123.62 174.938 123.61 174.937 123.6C174.935 123.591 174.93 123.582 174.922 123.576C174.914 123.571 174.904 123.568 174.895 123.57Z" fill="#263238"/>
<path d="M187.256 148.34C184.182 147.61 181.215 146.488 178.428 145.001C175.621 143.482 173.137 141.431 171.115 138.962C170.511 138.207 169.908 137.422 169.382 136.619C168.857 135.816 168.277 134.904 167.655 134.107C167.607 134.047 167.492 134.107 167.528 134.162C168.228 135.838 169.09 137.441 170.101 138.95C171.007 140.361 172.091 141.649 173.325 142.784C175.762 144.952 178.649 146.553 181.779 147.47C183.556 147.965 185.376 148.295 187.213 148.454C187.304 148.479 187.34 148.358 187.256 148.34Z" fill="#263238"/>
<path d="M99.1131 102.853C83.5583 123.74 57.5994 178.176 53.7831 186.183C51.1927 191.618 79.5911 205.929 80.7927 201.98C82.3386 196.919 107.73 130.122 111.286 105.77C113.231 92.4186 104.493 95.625 99.1131 102.853Z" fill="#D3766A"/>
<path d="M81.56 199.262C80.9018 204.184 77.5566 214.099 75.0687 215.614C72.5809 217.13 59.5079 216.822 52.92 216.822C46.3322 216.822 45.0702 214.98 45.1487 212.716C45.2272 210.452 59.0792 210.017 59.0792 210.017C59.0792 210.017 40.6138 215.282 35.9703 216.17C31.3268 217.058 20.6329 219.733 19.0629 215.886C18.3685 214.147 21.2971 212.39 21.2971 212.39C21.2971 212.39 16.8106 213.7 16.092 211.472C15.2829 208.93 18.8516 207.535 18.8516 207.535C18.8516 207.535 16.0437 208.097 15.9773 206.025C15.8565 201.376 33.4161 199.105 33.4161 199.105C33.4161 199.105 19.9747 205.651 19.5279 201.871C18.924 196.648 46.4831 190.917 49.3514 188.641C51.4382 186.901 53.3902 185.006 55.1905 182.971L81.56 199.262Z" fill="#D3766A"/>
<path d="M45.2453 213.838C45.1987 213.518 45.2292 213.19 45.3342 212.884C45.4392 212.577 45.6157 212.3 45.8492 212.075C46.3227 211.641 46.8656 211.29 47.4554 211.037C48.6736 210.519 49.9369 210.115 51.2293 209.829C53.8258 209.171 56.4888 208.706 59.1396 208.017C56.4071 207.976 53.6803 208.281 51.024 208.923C49.6668 209.234 48.3598 209.734 47.1414 210.409C46.5105 210.755 45.9576 211.228 45.517 211.797C45.3004 212.086 45.1617 212.425 45.1141 212.782C45.0665 213.14 45.1117 213.503 45.2453 213.838Z" fill="#263238"/>
<path d="M21.3398 212.365C23.2419 211.9 25.1138 211.368 26.9797 210.825C28.8455 210.282 30.7053 209.714 32.5652 209.152L38.1265 207.413C39.9803 206.809 41.8341 206.254 43.7059 205.692C41.7627 205.906 39.836 206.251 37.9393 206.725C36.0312 207.16 34.1593 207.703 32.2934 208.271C30.4276 208.838 28.5798 209.478 26.7563 210.155C24.9327 210.831 23.091 211.544 21.3398 212.365Z" fill="#263238"/>
<path d="M39.2254 201.073C37.4343 201.186 35.654 201.432 33.8996 201.81C32.1391 202.16 30.3994 202.608 28.6885 203.15C26.9734 203.682 25.29 204.311 23.6465 205.034C21.997 205.739 20.4007 206.563 18.8701 207.498C20.5669 206.894 22.2214 206.26 23.9061 205.687C25.5908 205.113 27.2695 204.545 28.9663 204.026C30.663 203.507 32.3598 202.993 34.0687 202.492C35.7775 201.991 37.4924 201.556 39.2254 201.073Z" fill="#263238"/>
<path d="M36.508 196.678C33.6231 196.91 30.7811 197.519 28.0543 198.489C25.301 199.401 22.6799 200.672 20.2588 202.269C22.9881 201.297 25.645 200.271 28.3562 199.365C31.0675 198.459 33.7545 197.565 36.508 196.678Z" fill="#263238"/>
<path d="M105.725 138.654L74.2051 137.785C74.2051 137.785 91.3842 110.443 100.587 100.413C110.194 89.9665 115.423 90.8662 112.144 109.374C108.841 128.009 105.725 138.654 105.725 138.654Z" fill="#137749"/>
<path d="M86.2215 133.153C85.3709 133.525 84.5746 134.01 83.8545 134.596C85.695 134.299 87.4276 133.532 88.8844 132.368C87.9636 132.5 87.0667 132.765 86.2215 133.153ZM103.823 113.13C103.459 112.275 102.973 111.478 102.38 110.763C102.671 112.605 103.441 114.337 104.614 115.787C104.482 114.867 104.215 113.972 103.823 113.13ZM89.289 119.072C88.9447 119.934 88.7251 120.84 88.6369 121.765C89.7313 120.256 90.4102 118.486 90.6054 116.632C90.0493 117.376 89.6058 118.198 89.289 119.072ZM103.177 131.414C102.83 132.277 102.612 133.187 102.531 134.113C103.619 132.601 104.297 130.833 104.5 128.981C103.941 129.724 103.492 130.543 103.165 131.414H103.177ZM112.416 95.5156C112.265 95.8296 112.126 96.1497 111.993 96.4757C111.652 97.339 111.433 98.2453 111.341 99.1689C111.897 98.4314 112.344 97.618 112.67 96.7535C112.7 96.675 112.724 96.6025 112.748 96.524C112.662 96.1788 112.547 95.8415 112.404 95.5156H112.416Z" fill="white"/>
<path d="M103.751 133.171C103.002 133.063 102.236 133.063 101.487 133.026L99.162 132.9C97.6001 132.823 96.0321 132.761 94.4581 132.712C91.3182 132.616 88.1843 132.507 85.0503 132.465C84.1869 132.465 83.3234 132.465 82.4599 132.465C81.5964 132.465 80.6484 132.555 79.7426 132.561C79.6883 132.561 79.6943 132.646 79.7426 132.646C80.5155 132.694 81.2885 132.809 82.0674 132.857C82.8464 132.906 83.6555 132.954 84.4526 132.984C86.0225 133.045 87.5925 133.099 89.1625 133.135C92.2481 133.208 95.3397 133.292 98.4253 133.298H101.046C101.946 133.298 102.857 133.346 103.763 133.268C103.787 133.25 103.799 133.177 103.751 133.171Z" fill="#263238"/>
<path d="M111.837 118.154C111.837 118.094 111.764 118.058 111.734 118.118C111.149 119.195 110.649 120.315 110.237 121.469C110.345 120.92 110.472 120.37 110.575 119.815C110.919 118.04 111.233 116.252 111.583 114.477C111.579 114.466 111.572 114.457 111.563 114.45C111.554 114.444 111.543 114.44 111.532 114.44C111.52 114.44 111.509 114.444 111.5 114.45C111.491 114.457 111.484 114.466 111.48 114.477C110.665 117.532 109.717 120.558 108.993 123.637C108.268 126.717 107.537 129.796 106.861 132.888C106.493 134.597 106.161 136.728 105.786 138.431C104.874 138.54 103.703 138.431 102.719 138.558C102.634 138.558 102.658 138.709 102.719 138.709C103.757 138.739 104.995 138.975 106.088 138.908C106.227 138.908 108.872 127.924 109.971 122.665C110.647 121.167 111.275 119.67 111.837 118.154Z" fill="#263238"/>
<path d="M134.257 101.077C133.816 102.52 133.315 103.945 132.741 105.34C132.262 106.597 131.675 107.809 130.984 108.963C129.68 111.022 127.675 112.725 125.133 112.719C122.718 112.719 120.508 111.318 118.962 109.531C117.271 107.581 116.148 105.135 115.14 102.78C114.536 101.325 113.932 99.8393 113.449 98.3357C113.201 97.5749 112.942 96.814 112.724 96.0411C112.507 95.2682 112.32 94.4893 112.054 93.7345C112.054 93.6741 111.921 93.6801 111.939 93.7345C112.386 95.4735 113.684 100.981 114.204 102.381C115.158 104.948 116.232 107.599 117.953 109.76C119.584 111.801 121.8 113.347 124.451 113.601C127.102 113.854 129.372 112.46 130.833 110.358C131.692 109.035 132.363 107.598 132.826 106.089C133.387 104.435 133.858 102.738 134.287 101.041C134.311 101.065 134.257 101.059 134.257 101.077Z" fill="#263238"/>
<path d="M233.201 218.283H189.9L187.962 180.217H233.201V218.283Z" fill="#DBDBDB"/>
<path d="M233.201 180.216L248.75 160.742L261.135 180.216L259.202 218.282H233.201V180.216Z" fill="#CADEFC"/>
<path d="M203.083 154.565H249.306L265.972 181.756H260.604L249.306 162.929L236.263 184.009H184.152L203.083 154.565Z" fill="#656F7E"/>
<path d="M208.438 163.164H198.499L193.197 169.516H204.67L208.438 163.164Z" fill="#798597"/>
<path d="M200.902 168.43V176.165H195.371V168.43L198.137 164.976L200.902 168.43Z" fill="#A2B2CA"/>
<path d="M200.902 168.43H205.256L200.902 176.165V168.43Z" fill="#CADEFC"/>
<path d="M199.568 168.55H196.422V173.858H199.568V168.55Z" fill="#FBFAFF"/>
<path d="M197.823 168.919H196.809V170.628H197.823V168.919Z" fill="#A2B2CA"/>
<path d="M199.181 168.919H198.167V170.628H199.181V168.919Z" fill="#A2B2CA"/>
<path d="M197.823 170.936H196.809V173.466H197.823V170.936Z" fill="#A2B2CA"/>
<path d="M199.181 170.936H198.167V173.466H199.181V170.936Z" fill="#A2B2CA"/>
<path d="M232.773 163.164H222.834L217.858 169.516H228.981L232.773 163.164Z" fill="#798597"/>
<path d="M225.243 168.43V176.165H219.712V168.43L222.477 164.976L225.243 168.43Z" fill="#A2B2CA"/>
<path d="M225.243 168.43H229.591L225.243 176.165V168.43Z" fill="#CADEFC"/>
<path d="M223.903 168.55H220.757V173.858H223.903V168.55Z" fill="#FBFAFF"/>
<path d="M222.157 168.919H221.143V170.628H222.157V168.919Z" fill="#CADEFC"/>
<path d="M223.516 168.919H222.502V170.628H223.516V168.919Z" fill="#CADEFC"/>
<path d="M222.157 170.936H221.143V173.466H222.157V170.936Z" fill="#CADEFC"/>
<path d="M223.516 170.936H222.502V173.466H223.516V170.936Z" fill="#CADEFC"/>
<path d="M241.01 153.46H235.479V160.742H241.01V153.46Z" fill="#CADEFC"/>
<path d="M241.009 153.46H245.362V154.631L241.009 160.742V153.46Z" fill="#A2B2CA"/>
<path d="M241.015 150.984H234.862V153.46H241.015V150.984Z" fill="#798597"/>
<path d="M245.833 150.984H241.009V153.46H245.833V150.984Z" fill="#656F7E"/>
<path d="M201.325 187.118H194.478V198.682H201.325V187.118Z" fill="#FBFAFF"/>
<path d="M197.521 187.922H195.317V191.648H197.521V187.922Z" fill="#EBEBEB"/>
<path d="M200.479 187.922H198.275V191.648H200.479V187.922Z" fill="#EBEBEB"/>
<path d="M197.521 192.323H195.317V197.842H197.521V192.323Z" fill="#EBEBEB"/>
<path d="M200.479 192.323H198.275V197.842H200.479V192.323Z" fill="#EBEBEB"/>
<path d="M226.759 187.118H219.911V198.682H226.759V187.118Z" fill="#FBFAFF"/>
<path d="M222.955 187.922H220.751V191.648H222.955V187.922Z" fill="#EBEBEB"/>
<path d="M225.913 187.922H223.709V191.648H225.913V187.922Z" fill="#EBEBEB"/>
<path d="M222.955 192.323H220.751V197.842H222.955V192.323Z" fill="#EBEBEB"/>
<path d="M225.913 192.323H223.709V197.842H225.913V192.323Z" fill="#EBEBEB"/>
<path d="M201.325 203.187H194.478V214.75H201.325V203.187Z" fill="#FBFAFF"/>
<path d="M197.521 203.989H195.317V207.715H197.521V203.989Z" fill="#EBEBEB"/>
<path d="M200.479 203.989H198.275V207.715H200.479V203.989Z" fill="#EBEBEB"/>
<path d="M197.521 208.392H195.317V213.911H197.521V208.392Z" fill="#EBEBEB"/>
<path d="M200.479 208.392H198.275V213.911H200.479V208.392Z" fill="#EBEBEB"/>
<path d="M226.759 203.187H219.911V214.75H226.759V203.187Z" fill="#FBFAFF"/>
<path d="M222.955 203.989H220.751V207.715H222.955V203.989Z" fill="#EBEBEB"/>
<path d="M225.913 203.989H223.709V207.715H225.913V203.989Z" fill="#EBEBEB"/>
<path d="M222.955 208.392H220.751V213.911H222.955V208.392Z" fill="#EBEBEB"/>
<path d="M225.913 208.392H223.709V213.911H225.913V208.392Z" fill="#EBEBEB"/>
<path d="M214.006 187.118H207.158V198.682H214.006V187.118Z" fill="#FBFAFF"/>
<path d="M210.201 187.922H207.997V191.648H210.201V187.922Z" fill="#EBEBEB"/>
<path d="M213.16 187.922H210.956V191.648H213.16V187.922Z" fill="#EBEBEB"/>
<path d="M210.201 192.323H207.997V197.842H210.201V192.323Z" fill="#EBEBEB"/>
<path d="M213.16 192.323H210.956V197.842H213.16V192.323Z" fill="#EBEBEB"/>
<path d="M214.006 203.265H207.158V214.828H214.006V203.265Z" fill="#FBFAFF"/>
<path d="M210.201 204.068H207.997V207.794H210.201V204.068Z" fill="#EBEBEB"/>
<path d="M213.16 204.068H210.956V207.794H213.16V204.068Z" fill="#EBEBEB"/>
<path d="M210.201 208.464H207.997V213.983H210.201V208.464Z" fill="#EBEBEB"/>
<path d="M213.16 208.464H210.956V213.983H213.16V208.464Z" fill="#EBEBEB"/>
<path d="M245.502 198.682H252.35V187.118H245.502V198.682Z" fill="#FBFAFF"/>
<path d="M251.51 187.922H249.306V191.648H251.51V187.922Z" fill="#EBEBEB"/>
<path d="M248.551 187.922H246.347V191.648H248.551V187.922Z" fill="#EBEBEB"/>
<path d="M251.51 192.323H249.306V197.842H251.51V192.323Z" fill="#EBEBEB"/>
<path d="M248.551 192.323H246.347V197.842H248.551V192.323Z" fill="#EBEBEB"/>
<path d="M245.502 180.809H252.35V171.02H245.502V180.809Z" fill="#FBFAFF"/>
<path d="M251.51 171.823H249.306V175.549H251.51V171.823Z" fill="#EBEBEB"/>
<path d="M248.551 171.823H246.347V175.549H248.551V171.823Z" fill="#EBEBEB"/>
<path d="M251.51 176.261H249.306V179.986H251.51V176.261Z" fill="#EBEBEB"/>
<path d="M248.551 176.261H246.347V179.986H248.551V176.261Z" fill="#EBEBEB"/>
<path d="M244.527 218.359L252.83 218.398L252.901 203.321L244.598 203.282L244.527 218.359Z" fill="#FBFAFF"/>
<path d="M247.85 204.32L247.84 206.578L249.627 206.587L249.638 204.328L247.85 204.32Z" fill="#EBEBEB"/>
<path d="M245.515 204.307L245.504 206.565L247.291 206.574L247.302 204.316L245.515 204.307Z" fill="#EBEBEB"/>
<path d="M246.807 214.777L250.581 214.795L250.584 214.251L246.81 214.234L246.807 214.777Z" fill="#EBEBEB"/>
<path d="M248.968 203.168V205.427H250.755V203.168H248.968Z" fill="#EBEBEB"/>
<path d="M247.838 207.171L247.827 209.43L249.614 209.438L249.625 207.18L247.838 207.171Z" fill="#EBEBEB"/>
<path d="M245.49 207.153L245.479 209.411L247.267 209.42L247.277 207.161L245.49 207.153Z" fill="#EBEBEB"/>
<path d="M250.18 207.183L250.169 209.441L251.956 209.45L251.967 207.192L250.18 207.183Z" fill="#EBEBEB"/>
<path d="M247.826 210.035L247.815 212.293L249.603 212.301L249.613 210.043L247.826 210.035Z" fill="#EBEBEB"/>
<path d="M245.484 210.023L245.474 212.281L247.261 212.29L247.272 210.031L245.484 210.023Z" fill="#EBEBEB"/>
<path d="M250.168 210.04L250.157 212.299L251.945 212.307L251.955 210.049L250.168 210.04Z" fill="#EBEBEB"/>
<path d="M114.022 218.392H75.5637L73.8428 199.745H114.022V218.392Z" fill="#A2B2CA"/>
<path d="M114.017 199.727L127.832 182.427L138.828 199.727L137.113 218.367H114.017V199.727Z" fill="#A2B2CA"/>
<path d="M87.043 176.956H128.822L144.299 203.108H140.078L128.249 183.423L116.897 203.108H70.6006L87.043 176.956Z" fill="#656F7E"/>
<path d="M85.8054 206.665H79.7188V215.36H85.8054V206.665Z" fill="#FBFAFF"/>
<path d="M82.4232 207.377H80.4668V210.686H82.4232V207.377Z" fill="#CADEFC"/>
<path d="M85.0502 207.377H83.0938V210.686H85.0502V207.377Z" fill="#CADEFC"/>
<path d="M82.4232 211.32H80.4668V214.629H82.4232V211.32Z" fill="#CADEFC"/>
<path d="M85.0502 211.32H83.0938V214.629H85.0502V211.32Z" fill="#CADEFC"/>
<path d="M108.153 206.665H102.066V215.36H108.153V206.665Z" fill="#FBFAFF"/>
<path d="M104.772 207.377H102.815V210.686H104.772V207.377Z" fill="#CADEFC"/>
<path d="M107.399 207.377H105.442V210.686H107.399V207.377Z" fill="#CADEFC"/>
<path d="M104.772 211.32H102.815V214.629H104.772V211.32Z" fill="#CADEFC"/>
<path d="M107.399 211.32H105.442V214.629H107.399V211.32Z" fill="#CADEFC"/>
<path d="M97.0123 206.2H90.3037V218.386H97.0123V206.2Z" fill="#FBFAFF"/>
<path d="M94.3856 207.039H92.9424V208.863H94.3856V207.039Z" fill="#CADEFC"/>
<path d="M96.2762 207.039H94.833V208.863H96.2762V207.039Z" fill="#CADEFC"/>
<path d="M95.189 215.04H92.1396V215.481H95.189V215.04Z" fill="#CADEFC"/>
<path d="M92.49 207.039H91.0469V208.863H92.49V207.039Z" fill="#CADEFC"/>
<path d="M94.3856 209.346H92.9424V211.169H94.3856V209.346Z" fill="#CADEFC"/>
<path d="M96.2762 209.346H94.833V211.169H96.2762V209.346Z" fill="#CADEFC"/>
<path d="M92.49 209.346H91.0469V211.169H92.49V209.346Z" fill="#CADEFC"/>
<path d="M94.3856 211.652H92.9424V213.476H94.3856V211.652Z" fill="#CADEFC"/>
<path d="M96.2762 211.652H94.833V213.476H96.2762V211.652Z" fill="#CADEFC"/>
<path d="M92.49 211.652H91.0469V213.476H92.49V211.652Z" fill="#CADEFC"/>
<path d="M95.8771 175.911H90.9619V182.378H95.8771V175.911Z" fill="#CADEFC"/>
<path d="M95.877 175.911H99.7415V176.95L95.877 182.378V175.911Z" fill="#A2B2CA"/>
<path d="M95.8768 173.713H90.4121V175.911H95.8768V173.713Z" fill="#798597"/>
<path d="M100.164 173.713H95.877V175.911H100.164V173.713Z" fill="#656F7E"/>
<path d="M129.233 218.392H141.709L142.892 205.542H129.233V218.392Z" fill="#C7C7C7"/>
<path d="M129.234 205.542L123.068 202.752L123.207 218.391H129.234V205.542Z" fill="#DBDBDB"/>
<path d="M138.785 208.862H133.538V218.385H138.785V208.862Z" fill="#FBFAFF"/>
<path d="M136.727 209.521H135.598V210.946H136.727V209.521Z" fill="#DBDBDB"/>
<path d="M138.206 209.521H137.077V210.946H138.206V209.521Z" fill="#DBDBDB"/>
<path d="M137.355 215.131H134.97V215.475H137.355V215.131Z" fill="#DBDBDB"/>
<path d="M135.247 209.521H134.118V210.946H135.247V209.521Z" fill="#DBDBDB"/>
<path d="M122.12 202.111H140.247L146.111 206.568H128.702L122.12 202.111Z" fill="#A6A6A6"/>
<path d="M128.702 206.568H122.12V202.111L128.702 206.568Z" fill="#C7C7C7"/>
<path d="M124.813 195.596C124.813 196.211 124.996 196.813 125.338 197.324C125.68 197.836 126.166 198.235 126.735 198.47C127.303 198.705 127.929 198.766 128.532 198.646C129.136 198.525 129.69 198.228 130.124 197.793C130.559 197.357 130.855 196.803 130.974 196.199C131.093 195.595 131.031 194.97 130.795 194.402C130.558 193.834 130.159 193.348 129.647 193.007C129.134 192.667 128.533 192.485 127.917 192.486C127.093 192.488 126.304 192.816 125.722 193.399C125.14 193.982 124.813 194.772 124.813 195.596Z" fill="#FBFAFF"/>
<path d="M125.508 195.596C125.508 196.236 125.762 196.851 126.215 197.304C126.668 197.757 127.283 198.011 127.923 198.011C128.127 198.013 128.33 197.986 128.527 197.933C129.089 197.78 129.578 197.429 129.902 196.945C130.226 196.46 130.364 195.875 130.29 195.297C130.217 194.719 129.937 194.187 129.502 193.799C129.067 193.411 128.506 193.194 127.923 193.187C127.719 193.186 127.516 193.212 127.319 193.265C127.038 193.333 126.774 193.456 126.54 193.627C126.223 193.849 125.964 194.143 125.784 194.486C125.605 194.828 125.51 195.209 125.508 195.596Z" fill="#CADEFC"/>
<path d="M127.579 198.435H128.249V192.71H127.579V198.435Z" fill="#FBFAFF"/>
<path d="M130.779 195.905V195.234H125.055V195.905H130.779Z" fill="#FBFAFF"/>
<path d="M147.01 218.391H127.567L126.244 204.014H147.01V218.391Z" fill="#CADEFC"/>
<path opacity="0.2" d="M147.01 218.391H127.567L126.244 204.014H147.01V218.391Z" fill="black"/>
<path d="M147.01 204.014L157.667 190.675L166.145 204.014L164.823 218.391H147.01V204.014Z" fill="#CADEFC"/>
<path d="M148.29 205.771H121.921L137.965 185.597H157.777L169.684 205.771H166.659L157.777 191.949L148.29 205.771Z" fill="#CADEFC"/>
<path opacity="0.4" d="M148.29 205.771H121.921L137.965 185.597H157.777L169.684 205.771H166.659L157.777 191.949L148.29 205.771Z" fill="black"/>
<path d="M174.913 167.753H169.418V174.987H174.913V167.753Z" fill="#CADEFC"/>
<path opacity="0.2" d="M174.913 167.753H169.418V174.987H174.913V167.753Z" fill="black"/>
<path d="M179.237 167.753H174.913V174.987H179.237V167.753Z" fill="#CADEFC"/>
<path d="M174.914 165.289H168.803V167.747H174.914V165.289Z" fill="#CADEFC"/>
<path opacity="0.5" d="M174.914 165.289H168.803V167.747H174.914V165.289Z" fill="black"/>
<path d="M179.708 165.289H174.913V167.747H179.708V165.289Z" fill="#CADEFC"/>
<path opacity="0.4" d="M179.708 165.289H174.913V167.747H179.708V165.289Z" fill="black"/>
<path d="M194.218 218.373H151.195L149.274 197.522H194.218V218.373Z" fill="#CADEFC"/>
<path opacity="0.2" d="M194.218 218.373H151.195L149.274 197.522H194.218V218.373Z" fill="black"/>
<path d="M194.218 197.522L209.676 178.169L221.976 197.522L220.056 218.373H194.218V197.522Z" fill="#CADEFC"/>
<path d="M209.489 179.395L222.187 199.044H226.626L209.869 172.028H164.098L140.917 201.284H196.814L209.489 179.395Z" fill="#CADEFC"/>
<path opacity="0.5" d="M209.489 179.395L222.187 199.044H226.626L209.869 172.028H164.098L140.917 201.284H196.814L209.489 179.395Z" fill="black"/>
<path d="M205.655 200.451H212.46V190.723H205.655V200.451Z" fill="#FBFAFF"/>
<path d="M211.626 191.521H209.435V195.222H211.626V191.521Z" fill="#CADEFC"/>
<path d="M208.686 191.521H206.494V195.222H208.686V191.521Z" fill="#CADEFC"/>
<path d="M211.626 195.929H209.435V199.63H211.626V195.929Z" fill="#CADEFC"/>
<path d="M208.686 195.929H206.494V199.63H208.686V195.929Z" fill="#CADEFC"/>
<path d="M162.649 205.258H155.844V214.986H162.649V205.258Z" fill="#FBFAFF"/>
<path d="M158.876 206.055H156.684V209.756H158.876V206.055Z" fill="#CADEFC"/>
<path d="M161.81 206.055H159.618V209.756H161.81V206.055Z" fill="#CADEFC"/>
<path d="M158.876 210.463H156.684V214.164H158.876V210.463Z" fill="#CADEFC"/>
<path d="M161.81 210.463H159.618V214.164H161.81V210.463Z" fill="#CADEFC"/>
<path d="M175.149 205.258H168.344V214.986H175.149V205.258Z" fill="#FBFAFF"/>
<path d="M171.375 206.055H169.183V209.756H171.375V206.055Z" fill="#CADEFC"/>
<path d="M174.316 206.055H172.124V209.756H174.316V206.055Z" fill="#CADEFC"/>
<path d="M171.375 210.463H169.183V214.164H171.375V210.463Z" fill="#CADEFC"/>
<path d="M174.316 210.463H172.124V214.164H174.316V210.463Z" fill="#CADEFC"/>
<path d="M187.648 205.258H180.843V214.986H187.648V205.258Z" fill="#FBFAFF"/>
<path d="M183.875 206.055H181.683V209.756H183.875V206.055Z" fill="#CADEFC"/>
<path d="M186.815 206.055H184.623V209.756H186.815V206.055Z" fill="#CADEFC"/>
<path d="M183.875 210.463H181.683V214.164H183.875V210.463Z" fill="#CADEFC"/>
<path d="M186.815 210.463H184.623V214.164H186.815V210.463Z" fill="#CADEFC"/>
<path d="M205.305 218.373H212.811V204.744H205.305V218.373Z" fill="#FBFAFF"/>
<path d="M209.869 205.681H208.251V207.722H209.869V205.681Z" fill="#CADEFC"/>
<path d="M207.75 205.681H206.132V207.722H207.75V205.681Z" fill="#CADEFC"/>
<path d="M207.351 215.124H210.763V214.629H207.351V215.124Z" fill="#CADEFC"/>
<path d="M211.989 205.681H210.371V207.722H211.989V205.681Z" fill="#CADEFC"/>
<path d="M209.869 208.259H208.251V210.3H209.869V208.259Z" fill="#CADEFC"/>
<path d="M207.75 208.259H206.132V210.3H207.75V208.259Z" fill="#CADEFC"/>
<path d="M211.989 208.259H210.371V210.3H211.989V208.259Z" fill="#CADEFC"/>
<path d="M209.869 210.844H208.251V212.885H209.869V210.844Z" fill="#CADEFC"/>
<path d="M207.75 210.844H206.132V212.885H207.75V210.844Z" fill="#CADEFC"/>
<path d="M211.989 210.844H210.371V212.885H211.989V210.844Z" fill="#CADEFC"/>
<path d="M181.821 179.033H171.943L166.864 185.374H178.047L181.821 179.033Z" fill="#CADEFC"/>
<path opacity="0.4" d="M181.821 179.033H171.943L166.864 185.374H178.047L181.821 179.033Z" fill="black"/>
<path d="M174.334 184.262V191.949H168.839V184.262L171.586 180.832L174.334 184.262Z" fill="#CADEFC"/>
<path opacity="0.2" d="M174.334 184.262V191.949H168.839V184.262L171.586 180.832L174.334 184.262Z" fill="black"/>
<path d="M174.334 184.262H178.657L174.334 191.949V184.262Z" fill="#CADEFC"/>
<path d="M173.006 184.383H169.884V189.654H173.006V184.383Z" fill="#FBFAFF"/>
<path d="M171.272 184.751H170.264V186.448H171.272V184.751Z" fill="#CADEFC"/>
<path d="M172.625 184.751H171.616V186.448H172.625V184.751Z" fill="#CADEFC"/>
<path d="M171.272 186.756H170.264V189.274H171.272V186.756Z" fill="#CADEFC"/>
<path d="M172.625 186.756H171.616V189.274H172.625V186.756Z" fill="#CADEFC"/>
</g>
<defs>
<clipPath id="clip0_1_5252">
<rect width="283" height="226" fill="white"/>
</clipPath>
</defs>
</svg>
