<svg width="14" height="17" viewBox="0 0 14 17" fill="none" xmlns="http://www.w3.org/2000/svg">
<g clip-path="url(#clip0_438_7326)">
<path d="M9.33594 2.125C9.33594 0.95127 8.29141 0 7.0026 0C5.7138 0 4.66927 0.95127 4.66927 2.125C3.38047 2.125 2.33594 3.07627 2.33594 4.25V4.78125C2.33594 5.07344 2.59698 5.3125 2.91927 5.3125H11.0859C11.4068 5.3125 11.6693 5.07344 11.6693 4.78125V4.25C11.6693 3.07627 10.6229 2.125 9.33594 2.125ZM7.0026 2.92188C6.51771 2.92188 6.1276 2.56494 6.1276 2.125C6.1276 1.68473 6.51953 1.32812 7.0026 1.32812C7.48568 1.32812 7.8776 1.68473 7.8776 2.125C7.8776 2.56494 7.4875 2.92188 7.0026 2.92188ZM3.5026 11.4219C3.01953 11.4219 2.6276 11.7788 2.6276 12.2188C2.6276 12.6587 3.01953 13.0156 3.5026 13.0156C3.98568 13.0156 4.3776 12.6587 4.3776 12.2188C4.3776 11.7788 3.9875 11.4219 3.5026 11.4219ZM3.5026 8.23438C3.01953 8.23438 2.6276 8.59131 2.6276 9.03125C2.6276 9.47119 3.01953 9.82812 3.5026 9.82812C3.98568 9.82812 4.3776 9.47285 4.3776 9.03125C4.3776 8.58965 3.9875 8.23438 3.5026 8.23438Z" fill="#595959"/>
<path opacity="0.4" d="M12.25 2.125H9.33333C10.6221 2.125 11.6667 3.07627 11.6667 4.25V4.78125C11.6667 5.07344 11.4042 5.3125 11.0833 5.3125H2.91667C2.59437 5.3125 2.33333 5.07344 2.33333 4.78125V4.25C2.33333 3.07627 3.37786 2.125 4.66667 2.125H1.75C0.78349 2.125 0 2.83854 0 3.71875V15.4062C0 16.2861 0.78349 17 1.75 17H12.25C13.2165 17 14 16.2865 14 15.4062V3.71875C14 2.83854 13.2161 2.125 12.25 2.125ZM3.5 13.0156C3.01693 13.0156 2.625 12.6587 2.625 12.2188C2.625 11.7788 3.01693 11.4219 3.5 11.4219C3.98307 11.4219 4.375 11.7788 4.375 12.2188C4.375 12.6587 3.9849 13.0156 3.5 13.0156ZM3.5 9.82812C3.01693 9.82812 2.625 9.47119 2.625 9.03125C2.625 8.59131 3.01693 8.23438 3.5 8.23438C3.98307 8.23438 4.375 8.59297 4.375 9.03125C4.375 9.46953 3.9849 9.82812 3.5 9.82812ZM11.0833 12.75H6.41667C6.09583 12.75 5.83333 12.5109 5.83333 12.2188C5.83333 11.9266 6.09583 11.6875 6.41667 11.6875H11.0833C11.4042 11.6875 11.6667 11.9265 11.6667 12.2188C11.6667 12.5109 11.4042 12.75 11.0833 12.75ZM11.0833 9.5625H6.41667C6.09583 9.5625 5.83333 9.32344 5.83333 9.03125C5.83333 8.73906 6.09583 8.5 6.41667 8.5H11.0833C11.4042 8.5 11.6667 8.73906 11.6667 9.03125C11.6667 9.32344 11.4042 9.5625 11.0833 9.5625Z" fill="#595959"/>
</g>
<defs>
<clipPath id="clip0_438_7326">
<rect width="14" height="17" fill="white"/>
</clipPath>
</defs>
</svg>
