<svg width="36" height="37" viewBox="0 0 36 37" fill="none" xmlns="http://www.w3.org/2000/svg">
<circle cx="18" cy="18.0945" r="18" fill="#137749"/>
<path d="M18 6.06323C15.8783 6.06323 13.8434 6.99929 12.3431 8.66548C10.8429 10.3317 10 12.5915 10 14.9478C10 19.6405 17.1273 29.5671 17.4327 29.9952C17.5009 30.0895 17.5872 30.1656 17.6854 30.2179C17.7836 30.2703 17.8911 30.2974 18 30.2974C18.1089 30.2974 18.2164 30.2703 18.3146 30.2179C18.4128 30.1656 18.4991 30.0895 18.5673 29.9952C18.8727 29.5671 26 19.6405 26 14.9478C26 12.5915 25.1571 10.3317 23.6569 8.66548C22.1566 6.99929 20.1217 6.06323 18 6.06323ZM18 10.9094C18.5754 10.9094 19.1378 11.0989 19.6162 11.4539C20.0946 11.8089 20.4675 12.3134 20.6876 12.9038C20.9078 13.4941 20.9654 14.1437 20.8532 14.7704C20.7409 15.3972 20.4639 15.9728 20.057 16.4247C19.6502 16.8765 19.1318 17.1842 18.5675 17.3088C18.0032 17.4335 17.4183 17.3695 16.8867 17.125C16.3552 16.8805 15.9008 16.4664 15.5812 15.9351C15.2615 15.4038 15.0909 14.7791 15.0909 14.1402C15.0909 13.2833 15.3974 12.4615 15.943 11.8557C16.4885 11.2498 17.2285 10.9094 18 10.9094Z" fill="#E4002B"/>
<path d="M18 6.06323V10.9094C18.7715 10.9094 19.5115 11.2498 20.057 11.8557C20.6026 12.4615 20.9091 13.2833 20.9091 14.1402C20.9091 14.997 20.6026 15.8188 20.057 16.4247C19.5115 17.0305 18.7715 17.3709 18 17.3709V30.294C18.1087 30.2944 18.216 30.2678 18.3142 30.2161C18.4123 30.1643 18.4988 30.0889 18.5673 29.9952C18.8727 29.5671 26 19.6405 26 14.9478C26 12.5915 25.1571 10.3317 23.6569 8.66548C22.1566 6.99929 20.1217 6.06323 18 6.06323Z" fill="#D31D3F"/>
</svg>
