<svg width="14" height="14" viewBox="0 0 14 14" fill="none" xmlns="http://www.w3.org/2000/svg">
<path opacity="0.4" d="M12.7559 2.28875L7.50586 0.101254C7.37256 0.0457188 7.14602 0 7.00164 0C6.85639 0 6.63113 0.0457188 6.49688 0.101254L1.24715 2.28875C0.757422 2.49082 0.4375 2.96934 0.4375 3.4752C0.4375 10.5326 5.61094 13.9998 6.99727 13.9998C8.39727 13.9998 13.5625 10.4943 13.5625 3.4752C13.5625 2.96934 13.2426 2.49082 12.7559 2.28875ZM10.3469 5.25254C10.3469 5.36452 10.3042 5.47646 10.2187 5.5618L6.43672 9.36778C6.35127 9.4532 6.2393 9.49591 6.12746 9.49591C6.01562 9.49591 5.90352 9.45254 5.81875 9.36778L3.78437 7.33614C3.69961 7.25137 3.65586 7.13926 3.65586 7.00254C3.65586 6.89057 3.69857 6.77862 3.78405 6.69328L4.0933 6.38403C4.18086 6.32168 4.26836 6.28067 4.40234 6.28067C4.53633 6.28067 4.62656 6.32168 4.71406 6.40645L6.12828 7.82067L9.29195 4.657C9.3774 4.57157 9.48938 4.52886 9.60121 4.52886C9.71305 4.52886 9.82513 4.57157 9.91047 4.657L10.2197 4.96625C10.3059 5.05293 10.3469 5.16504 10.3469 5.25254Z" fill="#595959"/>
</svg>
