<svg width="14" height="12" viewBox="0 0 14 12" fill="none" xmlns="http://www.w3.org/2000/svg">
<g clip-path="url(#clip0_438_7311)">
<path d="M9.62817 7.29212C9.52427 7.44262 9.35747 7.50443 9.18794 7.50443C9.01841 7.50443 8.85216 7.44144 8.72391 7.31547L7.65669 6.26549V9.22443C7.65669 9.58052 7.36274 9.86943 7.00044 9.86943C6.63813 9.86943 6.34419 9.58052 6.34419 9.22443V6.26549L5.25317 7.29212C4.99682 7.54407 4.58161 7.54407 4.32512 7.29212C4.06864 7.04016 4.06878 6.63207 4.32512 6.37998L6.51262 4.22998C6.76897 3.97803 7.18419 3.97803 7.44067 4.22998L9.62817 6.37998C9.90708 6.65518 9.90708 7.06368 9.62817 7.29212Z" fill="#595959"/>
<path opacity="0.4" d="M12.6875 1.70047H7.4375L5.6875 -0.0195312H1.3125C0.587891 -0.0195312 0 0.558281 0 1.27047V10.7305C0 11.4427 0.587891 12.0205 1.3125 12.0205H12.6875C13.4121 12.0205 14 11.4427 14 10.7305V2.99047C14 2.27828 13.4121 1.70047 12.6875 1.70047ZM9.62773 7.29316C9.52383 7.44366 9.35703 7.50547 9.1875 7.50547C9.01797 7.50547 8.85172 7.44247 8.72348 7.31651L7.65625 6.26653V9.22547C7.65625 9.58156 7.3623 9.87047 7 9.87047C6.6377 9.87047 6.34375 9.58156 6.34375 9.22547V6.26653L5.25273 7.29316C4.99639 7.54511 4.58117 7.54511 4.32469 7.29316C4.0682 7.0412 4.06834 6.63311 4.32469 6.38102L6.51219 4.23102C6.76854 3.97907 7.18375 3.97907 7.44023 4.23102L9.62773 6.38102C9.90664 6.65622 9.90664 7.06472 9.62773 7.29316Z" fill="#595959"/>
</g>
<defs>
<clipPath id="clip0_438_7311">
<rect width="14" height="12" fill="white"/>
</clipPath>
</defs>
</svg>
