<svg width="14" height="12" viewBox="0 0 14 12" fill="none" xmlns="http://www.w3.org/2000/svg">
<path d="M5.63544 10.875C6.94084 10.875 8.11636 10.2937 8.95067 9.36094C9.15319 9.13594 9.46798 9.12891 9.69912 9.34219C9.91045 9.55781 9.91706 9.89297 9.71673 10.1391C8.69091 11.2852 7.24022 12 5.63544 12C2.52274 12 0 9.31406 0 6C0 2.68594 2.52274 0 5.63544 0C7.91603 0 9.87963 1.44352 10.7668 3.51797C10.8878 3.79922 10.7712 4.13438 10.5048 4.26094C10.2385 4.38984 9.92586 4.26562 9.80479 3.98203C9.08495 2.29594 7.48677 1.125 5.61563 1.125C3.1061 1.125 1.03683 3.30703 1.03683 6C1.03683 8.69297 3.1061 10.875 5.61563 10.875H5.63544ZM6.16376 6.16641C6.16376 6.49922 5.92822 6.72891 5.63544 6.72891C5.34266 6.72891 5.10712 6.49922 5.10712 6.16641V3.54141C5.10712 3.25078 5.34266 2.97891 5.63544 2.97891C5.92822 2.97891 6.16376 3.25078 6.16376 3.54141V6.16641ZM4.93101 8.25C4.93101 7.83516 5.2458 7.47891 5.63544 7.47891C6.02508 7.47891 6.33987 7.83516 6.33987 8.25C6.33987 8.66484 6.02508 9 5.63544 9C5.2458 9 4.93101 8.66484 4.93101 8.25ZM13.82 4.03594C14.06 4.29141 14.06 4.70859 13.82 4.96406L11.0023 7.96406C10.7624 8.21953 10.3705 8.21953 10.1306 7.96406L8.72173 6.46406C8.48178 6.20859 8.48178 5.79141 8.72173 5.53594C8.96167 5.28047 9.35351 5.28047 9.59346 5.53594L10.5665 6.57187L12.9483 4.03594C13.1883 3.78047 13.5801 3.78047 13.82 4.03594Z" fill="#137749"/>
</svg>
