<svg width="32" height="29" viewBox="0 0 32 29" fill="none" xmlns="http://www.w3.org/2000/svg">
<path d="M27.9433 0.523438H3.94334C1.78959 0.523438 -0.000976562 2.31406 -0.000976562 4.52344V24.5234C-0.000976562 26.7328 1.78965 28.5234 3.94277 28.5234H27.9428C30.1521 28.5234 31.9428 26.7328 31.9428 24.5234V4.52344C31.9433 2.31406 30.2058 0.523438 27.9433 0.523438ZM6.94334 4.52344C8.60022 4.52344 9.94334 5.86656 9.94334 7.52344C9.94334 9.18031 8.65584 10.5234 6.94334 10.5234C5.23084 10.5234 3.94334 9.18031 3.94334 7.52344C3.94334 5.86656 5.34209 4.52344 6.94334 4.52344ZM27.8808 23.9984C27.7058 24.3234 27.3683 24.5234 26.9996 24.5234H5.12522C4.7489 24.5234 4.40459 24.3122 4.23397 23.9766C4.06334 23.6411 4.09553 23.2384 4.31734 22.9341L8.69234 16.9341C8.88084 16.6734 9.18084 16.5234 9.49959 16.5234C9.81834 16.5234 10.1193 16.676 10.3077 16.9343L12.3365 19.7162L18.1677 11.0224C18.3558 10.6922 18.6683 10.5234 18.9996 10.5234C19.3308 10.5234 19.6465 10.6904 19.8315 10.9688L27.8315 22.9688C28.0371 23.2734 28.0558 23.6672 27.8808 23.9984Z" fill="#DFE1E6"/>
</svg>
