<svg width="14" height="16" viewBox="0 0 14 16" fill="none" xmlns="http://www.w3.org/2000/svg">
<path d="M9.625 4.50015C10.1099 4.50015 10.5 4.83453 10.5 5.25017C10.5 5.66581 10.1099 6.0002 9.625 6.0002H4.375C3.8901 6.0002 3.5 5.66581 3.5 5.25017C3.5 4.83453 3.8901 4.50015 4.375 4.50015H9.625ZM9.625 10.0003C10.1099 10.0003 10.5 10.3347 10.5 10.7504C10.5 11.166 10.1099 11.5004 9.625 11.5004H4.375C3.8901 11.5004 3.5 11.166 3.5 10.7504C3.5 10.3347 3.8901 10.0003 4.375 10.0003H9.625ZM3.5 8.00026C3.5 7.58462 3.8901 7.25024 4.375 7.25024H9.625C10.1099 7.25024 10.5 7.58462 10.5 8.00026C10.5 8.4159 10.1099 8.75029 9.625 8.75029H4.375C3.8901 8.75029 3.5 8.4159 3.5 8.00026ZM2.91667 1.26223L4.38958 0.180568C4.71771 -0.0601895 5.19896 -0.0601895 5.52708 0.180568L7 1.26223L8.47292 0.180568C8.80104 -0.0601895 9.28229 -0.0601895 9.61042 0.180568L11.0833 1.26223L12.5562 0.180568C12.8151 -0.0100441 13.1797 -0.0537518 13.4896 0.0686273C13.7995 0.191038 14 0.457202 14 0.750025V15.2505C14 15.5443 13.7995 15.8099 13.4896 15.9318C13.1797 16.0537 12.8151 16.0099 12.5562 15.8193L11.0833 14.738L9.61042 15.8193C9.28229 16.0599 8.80104 16.0599 8.47292 15.8193L7 14.738L5.52708 15.8193C5.19896 16.0599 4.71771 16.0599 4.38958 15.8193L2.91667 14.738L1.44448 15.8193C1.1849 16.0099 0.819948 16.0537 0.509323 15.9318C0.198917 15.8099 0 15.5443 0 15.2505V0.750025C0 0.457202 0.198917 0.191006 0.509323 0.0686273C0.819948 -0.0537518 1.1849 -0.0100441 1.44448 0.180568L2.91667 1.26223ZM2.34719 13.1817C2.67495 12.941 3.15839 12.941 3.48615 13.1817L4.95833 14.263L6.43125 13.1817C6.75937 12.941 7.24062 12.941 7.56875 13.1817L9.04167 14.263L10.5146 13.1817C10.8427 12.941 11.324 12.941 11.6521 13.1817L12.25 13.6192V2.3807L11.6521 2.81947C11.324 3.06041 10.8427 3.06041 10.5146 2.81947L9.04167 1.73787L7.56875 2.81947C7.24062 3.06041 6.75937 3.06041 6.43125 2.81947L4.95833 1.73787L3.48615 2.81947C3.15839 3.06041 2.67495 3.06041 2.34719 2.81947L1.75 2.3807V13.6192L2.34719 13.1817Z" fill="#6B778C"/>
</svg>
