<svg width="14" height="14" viewBox="0 0 14 14" fill="none" xmlns="http://www.w3.org/2000/svg">
<path d="M14 7C14 10.8664 10.8664 14 7 14C3.13359 14 0 10.8664 0 7C0 3.13359 3.13359 0 7 0C10.8664 0 14 3.13359 14 7ZM2.54105 3.46992C1.77188 4.43789 1.3125 5.66563 1.3125 7C1.3125 10.1418 3.8582 12.6875 7 12.6875C8.33438 12.6875 9.56211 12.2281 10.5301 11.4598L2.54105 3.46992ZM12.6875 7C12.6875 3.8582 10.1418 1.3125 7 1.3125C5.66563 1.3125 4.43789 1.77188 3.46992 2.54105L11.4598 10.5301C12.2281 9.56211 12.6875 8.33438 12.6875 7Z" fill="#137749"/>
</svg>
