<svg width="14" height="15" viewBox="0 0 14 15" fill="none" xmlns="http://www.w3.org/2000/svg">
<g clip-path="url(#clip0_438_7372)">
<path d="M0.875 0.5C0.389648 0.5 0 0.889648 0 1.375V14.0625C0 14.3031 0.198242 14.5 0.4375 14.5H1.3125C1.55176 14.5 1.75 14.3031 1.75 14.0625V1.375C1.75 0.889648 1.36035 0.5 0.875 0.5Z" fill="#137749"/>
<path opacity="0.4" d="M13.8469 9.91992C14.0114 10.1156 14.0477 10.388 13.94 10.6196C13.8323 10.8512 13.598 11 13.3191 11H1.75V1.375H13.3191C13.5741 1.375 13.8067 1.52282 13.9141 1.75453C14.0216 1.98624 13.9855 2.25875 13.821 2.45426L10.7023 6.1875L13.8469 9.91992Z" fill="#E4002B"/>
</g>
<defs>
<clipPath id="clip0_438_7372">
<rect width="14" height="14" fill="white" transform="translate(0 0.5)"/>
</clipPath>
</defs>
</svg>
