<svg enable-background="new 0 0 52 60" height="18" viewBox="0 0 52 60" width="18" xmlns="http://www.w3.org/2000/svg"><path d="m4 4h11v2h-11z"/><path d="m5 22h9c.552 0 1-.448 1-1v-4c0-.552-.448-1-1-1h-9c-.552 0-1 .448-1 1v4c0 .552.448 1 1 1zm1-4h7v2h-7z"/><path d="m18 22h21c.552 0 1-.448 1-1v-4c0-.552-.448-1-1-1h-21c-.552 0-1 .448-1 1v4c0 .552.448 1 1 1zm1-4h19v2h-19z"/><path d="m5 14h9c.552 0 1-.448 1-1v-4c0-.552-.448-1-1-1h-9c-.552 0-1 .448-1 1v4c0 .552.448 1 1 1zm1-4h7v2h-7z"/><path d="m18 14h21c.552 0 1-.448 1-1v-4c0-.552-.448-1-1-1h-21c-.552 0-1 .448-1 1v4c0 .552.448 1 1 1zm1-4h19v2h-19z"/><path d="m4 24h12v2h-12z"/><path d="m49.768 20.435c-1.725-.601-3.614.32-4.212 2.047l-.76 2.19v.001l-.796 2.3v-25.973c0-.552-.448-1-1-1h-42c-.552 0-1 .448-1 1v58c0 .553.448 1 1 1h42c.552 0 1-.447 1-1v-11.753l7.065-20.41s0 0 0-.001.001-.001.001-.002l.745-2.176c.127-.353.189-.713.189-1.098 0-1.41-.898-2.666-2.232-3.125zm-1.656 1.948c.312-.153.667-.174 1.003-.057.529.182.885.678.885 1.234 0 .153-.022.287-.076.436l-.425 1.242-1.243-.428-1.243-.428.432-1.244c.116-.334.352-.602.667-.755zm-10.112 21.934-.582 1.683h-31.418v-16h32zm4 13.683h-40v-56h40v30.752l-2 5.782v-9.534c0-.552-.448-1-1-1h-34c-.552 0-1 .448-1 1v18c0 .553.448 1 1 1h31.727l-.753 2.184c-.062.179-.053.359-.016.531l-.018.004.927 4.4c.072.344.32.624.652.739.106.037.217.055.327.055.231 0 .459-.08.642-.233l3.447-2.889-.009-.011c.024-.02.052-.034.074-.056zm-3.739-5.969 1.039.359-.819.686zm2.411-1.283-2.481-.857 8.168-23.62 2.489.858z"/><path d="m5 50h22v2h-22z"/></svg>