<svg width="14" height="14" viewBox="0 0 14 14" fill="none" xmlns="http://www.w3.org/2000/svg">
<g clip-path="url(#clip0_1_8855)">
<path d="M5.21921 0C4.18695 0 3.17787 0.306109 2.31957 0.879603C1.46128 1.4531 0.792319 2.26822 0.397289 3.22191C0.00225913 4.1756 -0.101096 5.22501 0.100289 6.23744C0.301673 7.24987 0.798749 8.17984 1.52867 8.90976C2.25859 9.63968 3.18856 10.1368 4.20099 10.3381C5.21342 10.5395 6.26283 10.4362 7.21652 10.0411C8.1702 9.64611 8.98533 8.97715 9.55882 8.11886C10.1323 7.26056 10.4384 6.25148 10.4384 5.21922C10.4384 3.835 9.88854 2.50747 8.90975 1.52868C7.93095 0.549888 6.60343 0 5.21921 0ZM5.21921 9.44319C4.38379 9.44319 3.56713 9.19545 2.8725 8.73131C2.17788 8.26718 1.63647 7.60748 1.31677 6.83565C0.99707 6.06383 0.91342 5.21453 1.0764 4.39516C1.23939 3.57579 1.64168 2.82315 2.23242 2.23242C2.82315 1.64168 3.57579 1.2394 4.39516 1.07641C5.21453 0.913432 6.06382 0.997082 6.83565 1.31678C7.60748 1.63649 8.26718 2.17788 8.73131 2.8725C9.19545 3.56713 9.44318 4.3838 9.44318 5.21922C9.44229 6.33921 8.99699 7.41308 8.20504 8.20504C7.41308 8.99699 6.3392 9.4423 5.21921 9.44319Z" fill="#6B778C"/>
<path d="M7.94727 9.44433L12.2145 13.7116C12.4015 13.8965 12.6538 14.0003 12.9168 14.0003C13.1798 14.0003 13.4322 13.8965 13.6192 13.7116L13.7057 13.625C13.8907 13.4381 13.9944 13.1857 13.9944 12.9227C13.9944 12.6597 13.8907 12.4073 13.7057 12.2204L9.43846 7.95312" fill="#6B778C"/>
</g>
<defs>
<clipPath id="clip0_1_8855">
<rect width="14" height="14" fill="white"/>
</clipPath>
</defs>
</svg>
