<svg width="13" height="14" viewBox="0 0 13 14" fill="none" xmlns="http://www.w3.org/2000/svg">
<path d="M3.97057 7C3.97057 5.52617 5.07991 4.375 6.50018 4.375C7.89673 4.375 9.02978 5.52617 9.02978 7C9.02978 8.44922 7.89673 9.625 6.50018 9.625C5.07991 9.625 3.97057 8.44922 3.97057 7ZM6.50018 5.6875C5.8019 5.6875 5.23538 6.27539 5.23538 7C5.23538 7.72461 5.8019 8.3125 6.50018 8.3125C7.19845 8.3125 7.76498 7.72461 7.76498 7C7.76498 6.27539 7.19845 5.6875 6.50018 5.6875ZM7.47776 8.20313e-06C8.06273 8.20313e-06 8.57129 0.415352 8.70831 1.00461L8.91384 1.89246C9.13782 2.00594 9.35125 2.13473 9.55415 2.27719L10.4 2.01879C10.9612 1.84734 11.562 2.09645 11.8545 2.62145L12.8321 4.37773C13.1219 4.90273 13.0297 5.56719 12.6081 5.98555L11.9678 6.59258C11.9757 6.74297 11.981 6.87148 11.981 7C11.981 7.12852 11.9757 7.25703 11.9678 7.38281L12.6081 8.01445C13.0297 8.43281 13.1219 9.09727 12.8321 9.62227L11.8545 11.3777C11.562 11.9027 10.9612 12.1516 10.4 11.982L9.55415 11.7223C9.35125 11.8645 9.13782 11.993 8.91384 12.1078L8.70831 12.9965C8.57129 13.5844 8.06273 14 7.47776 14H5.52259C4.93762 14 4.42907 13.5844 4.29205 12.9965L4.08651 12.1078C3.86254 11.993 3.6491 11.8645 3.44621 11.7223L2.57666 11.982C2.03991 12.1516 1.43939 11.9027 1.14717 11.3777L0.169583 9.62227C-0.122639 9.09727 -0.0302032 8.43281 0.393031 8.01445L1.03176 7.38281C1.02359 7.25703 1.01937 7.12852 1.01937 6.97539C1.01937 6.87148 1.02359 6.74297 1.03176 6.59258L0.393031 5.98555C-0.0302295 5.56719 -0.122639 4.90273 0.169583 4.37773L1.14717 2.62145C1.43939 2.09645 2.03991 1.84734 2.57666 2.01879L3.44621 2.27719C3.6491 2.13473 3.86254 2.00594 4.08651 1.89246L4.29205 1.00461C4.42907 0.415078 4.93762 0 5.52259 0L7.47776 8.20313e-06ZM5.1695 2.83281L4.87438 2.96133C4.53974 3.10625 4.22881 3.29492 3.94686 3.51914L3.69126 3.72148L2.24254 3.27852L1.26469 5.03398L2.35822 6.11406L2.3179 6.44219C2.29577 6.62539 2.28417 6.81133 2.28417 7C2.28417 7.18867 2.29577 7.37461 2.3179 7.55781L2.35822 7.88594L1.26495 8.96602L2.24254 10.7215L3.69126 10.2785L3.94686 10.4809C4.22881 10.7051 4.53974 10.8938 4.87438 11.0387L5.1695 11.1672L5.52259 12.6875H7.47776L7.83085 11.1672L8.12597 11.0387C8.46062 10.8938 8.77155 10.7051 9.0535 10.4809L9.30909 10.2785L10.7583 10.7215L11.7359 8.96602L10.6424 7.88594L10.6819 7.55781C10.7056 7.37461 10.7162 7.18867 10.7162 7C10.7162 6.81133 10.7056 6.62539 10.6819 6.44219L10.6424 6.11406L11.7359 5.03398L10.7583 3.27852L9.30909 3.72148L9.0535 3.51914C8.77155 3.29492 8.46062 3.10625 8.12597 2.96133L7.83085 2.83281L7.47776 1.3125H5.52259L5.1695 2.83281Z" fill="white"/>
</svg>
