<svg width="16" height="16" viewBox="0 0 16 16" fill="none" xmlns="http://www.w3.org/2000/svg">
<path d="M16 13.6525V4.83584C16 3.54163 14.8434 2.48834 13.4208 2.48834H12.7142V2.3475C12.7142 1.05284 11.5576 0 10.135 0H9.1824H3.72315H2.57919C1.15703 0 0 1.05284 0 2.3475V11.1642C0 12.4584 1.15707 13.5117 2.57919 13.5117H3.28572V13.6525C3.28572 14.9472 4.44279 16 5.86496 16H7.00891H12.4682H12.9589H13.4208C14.8434 16 16 14.9472 16 13.6525ZM12.4682 15.2316H7.00891H5.86496C4.90644 15.2316 4.12981 14.5246 4.12981 13.6525V13.5117V12.7432V4.83584C4.12981 3.96375 4.90644 3.25679 5.86496 3.25679H7.00891H11.8702H12.4682H12.7142H13.4208C14.3793 3.25679 15.1559 3.96375 15.1559 4.83584V13.6525C15.1559 14.5246 14.3793 15.2316 13.4208 15.2316H12.9589H12.4682Z" fill="#137749"/>
<path d="M6.16769 6.72988H11.2406C11.3807 6.72988 11.4942 6.61638 11.4942 6.47625C11.4942 6.33613 11.3807 6.22266 11.2406 6.22266H6.16769C6.02756 6.22266 5.91406 6.33613 5.91406 6.47625C5.91406 6.61638 6.02756 6.72988 6.16769 6.72988Z" fill="#137749"/>
<path d="M6.96875 8.19928C6.96875 8.33941 7.08256 8.45288 7.22269 8.45288H11.9764C12.1165 8.45288 12.2303 8.33941 12.2303 8.19928C12.2303 8.05916 12.1165 7.94531 11.9764 7.94531H7.22269C7.08256 7.94531 6.96875 8.05913 6.96875 8.19928Z" fill="#137749"/>
<path d="M10.8766 9.92159C10.8766 9.78147 10.7631 9.66797 10.623 9.66797H6.16769C6.02756 9.66797 5.91406 9.78147 5.91406 9.92159C5.91406 10.0617 6.02753 10.1755 6.16769 10.1755H10.623C10.7631 10.1755 10.8766 10.0617 10.8766 9.92159Z" fill="#137749"/>
<path d="M12.2334 11.6442C12.2334 11.5041 12.1196 11.3906 11.9795 11.3906H7.80441C7.66428 11.3906 7.55078 11.5041 7.55078 11.6442C7.55078 11.7843 7.66425 11.8978 7.80441 11.8978H11.9795C12.1196 11.8978 12.2334 11.7843 12.2334 11.6442Z" fill="#137749"/>
</svg>
