<svg width="12" height="12" viewBox="0 0 12 12" fill="none" xmlns="http://www.w3.org/2000/svg">
<path d="M2.80547 9.6L0.180465 7.1625C-0.0593006 6.93984 -0.0593006 6.56039 0.180465 6.33773L2.80547 3.90023C2.96915 3.74827 3.20789 3.7076 3.41297 3.79697C3.61804 3.88634 3.7507 4.08877 3.7507 4.31259L3.7289 6.1875H10.8539V1.3125C10.8539 1.00195 11.1059 0.75 11.4164 0.75C11.727 0.75 11.9789 1.00195 11.9789 1.3125V6.75C11.9789 7.06055 11.727 7.3125 11.4164 7.3125H3.7289L3.72894 9.1875C3.72894 9.41126 3.59638 9.61383 3.3912 9.70312C3.18603 9.79242 2.96953 9.75234 2.80547 9.6Z" fill="#DFE1E6"/>
<path d="M2.80547 9.6L0.180465 7.1625C-0.0593006 6.93984 -0.0593006 6.56039 0.180465 6.33773L2.80547 3.90023C2.96915 3.74827 3.20789 3.7076 3.41297 3.79697C3.61804 3.88634 3.7507 4.08877 3.7507 4.31259L3.7289 6.1875H10.8539V1.3125C10.8539 1.00195 11.1059 0.75 11.4164 0.75C11.727 0.75 11.9789 1.00195 11.9789 1.3125V6.75C11.9789 7.06055 11.727 7.3125 11.4164 7.3125H3.7289L3.72894 9.1875C3.72894 9.41126 3.59638 9.61383 3.3912 9.70312C3.18603 9.79242 2.96953 9.75234 2.80547 9.6Z" fill="black" fill-opacity="0.2"/>
</svg>
