<svg width="40" height="40" viewBox="0 0 40 40" fill="none" xmlns="http://www.w3.org/2000/svg">
<g clip-path="url(#clip0_1818_8429)">
<path d="M19.9999 7.37988C23.8467 7.37988 26.9766 10.5095 26.9766 14.3565C26.9766 18.2032 23.8467 21.3328 19.9999 21.3328C16.1532 21.3328 13.0233 18.2032 13.0233 14.3565C13.0233 10.5095 16.1532 7.37988 19.9999 7.37988Z" fill="#42526E"/>
<path d="M20 0C31.0281 0 40 8.97186 40 20C40 25.1025 38.0783 29.7638 34.9222 33.3011C34.2462 30.3329 32.695 27.6248 30.43 25.5151C28.8403 24.0344 26.9803 22.9263 24.9698 22.2372C27.5821 20.5841 29.3204 17.6694 29.3204 14.3561C29.3204 9.21661 25.1392 5.03571 20 5.03571C14.8608 5.03571 10.6799 9.21661 10.6799 14.3561C10.6799 17.6678 12.4167 20.5817 15.0272 22.2351C12.8494 22.981 10.8533 24.2194 9.17755 25.8951C7.13013 27.9425 5.71655 30.516 5.07935 33.3023C1.922 29.765 0 25.1031 0 20C0 8.97186 8.97186 0 20 0Z" fill="#42526E"/>
<path d="M32.8828 35.2847C29.4001 38.2248 24.904 39.9997 20.0001 39.9997C15.0963 39.9997 10.6001 38.2245 7.11743 35.2847C7.43817 32.3709 8.74768 29.6393 10.8348 27.5522C13.2835 25.1035 16.5385 23.7549 20.0001 23.7549C26.5931 23.7549 32.1672 28.7845 32.8828 35.2847Z" fill="#42526E"/>
</g>
<defs>
<clipPath id="clip0_1818_8429">
<rect width="40" height="40" fill="white" transform="matrix(-1 0 0 1 40 0)"/>
</clipPath>
</defs>
</svg>
