<svg width="40" height="40" viewBox="0 0 40 40" fill="none" xmlns="http://www.w3.org/2000/svg">
<path d="M32.4174 19.7344V24.5597H27.908C24.8327 24.5597 24.8327 19.7344 27.908 19.7344H32.4174Z" fill="#42526E"/>
<path d="M33.211 26.1708C33.6492 26.1708 34.0077 25.8083 34.0077 25.3653V18.9289C34.0077 18.4858 33.6492 18.1233 33.211 18.1233H31.8885V14.6353C31.8885 13.5961 31.0519 12.7583 30.0242 12.7583H29.7613V10.3497C29.7613 9.31056 28.9327 8.46473 27.905 8.46473H9.86759C8.25825 8.46473 6.95246 9.78584 6.95246 11.4211V28.5795C6.95246 30.2147 8.25905 31.5358 9.86759 31.5358H30.0242C31.0519 31.5358 31.8885 30.69 31.8885 29.6508V26.1708H33.211ZM38.8995 20.0003C38.8995 25.9292 36.1349 31.6325 31.5061 35.2736C26.8135 38.9631 20.5354 40.2358 14.7992 38.6731C7.9316 36.8042 2.52199 31.0203 1.06402 23.9797C-0.417051 16.8022 2.33078 9.23001 8.05191 4.72695C13.7961 0.21584 21.8181 -0.589715 28.3192 2.69695C34.7407 5.94334 38.8995 12.7422 38.8995 20.0003Z" fill="#42526E"/>
<path d="M28.1688 12.7577H9.86855C8.16361 12.7577 8.16361 10.0752 9.86855 10.0752H27.9059C28.0493 10.0752 28.1688 10.196 28.1688 10.3491V12.7577Z" fill="#42526E"/>
<path d="M9.86861 14.3691H30.0252C30.1758 14.3691 30.2961 14.4899 30.2961 14.6349V18.123H27.906C25.7389 18.123 23.9304 19.9516 23.9304 22.1427C23.9304 24.3338 25.7397 26.1705 27.906 26.1705H30.2961V29.6505C30.2961 29.8035 30.1766 29.9244 30.0252 29.9244H9.86861C9.1444 29.9244 8.54688 29.3202 8.54688 28.5791V14.0469C8.96036 14.2563 9.41449 14.3691 9.86861 14.3691Z" fill="#42526E"/>
</svg>
