<svg width="18" height="18" viewBox="0 0 18 18" fill="none" xmlns="http://www.w3.org/2000/svg">
<circle cx="9" cy="12.75" r="0.75" fill="#137749"/>
<path d="M1.7219 13.2243L1.07024 12.853H1.07024L1.7219 13.2243ZM16.2781 13.2243L15.6264 13.5956L16.2781 13.2243ZM10.524 3.12444L11.1757 2.75318L10.524 3.12444ZM7.47599 3.12444L8.12765 3.49571L7.47599 3.12444ZM9.74995 6.74998C9.74995 6.33576 9.41417 5.99998 8.99995 5.99998C8.58574 5.99998 8.24995 6.33576 8.24995 6.74998H9.74995ZM8.24995 10.5C8.24995 10.9142 8.58574 11.25 8.99995 11.25C9.41417 11.25 9.74995 10.9142 9.74995 10.5H8.24995ZM9.87235 3.4957L15.6264 13.5956L16.9298 12.853L11.1757 2.75318L9.87235 3.4957ZM14.7541 15H3.24591V16.5H14.7541V15ZM2.37356 13.5956L8.12765 3.49571L6.82433 2.75318L1.07024 12.853L2.37356 13.5956ZM3.24591 15C2.45914 15 2.02897 14.2004 2.37356 13.5956L1.07024 12.853C0.123688 14.5145 1.37405 16.5 3.24591 16.5V15ZM15.6264 13.5956C15.971 14.2004 15.5409 15 14.7541 15V16.5C16.626 16.5 17.8763 14.5145 16.9298 12.853L15.6264 13.5956ZM11.1757 2.75318C10.2237 1.08227 7.77627 1.08228 6.82433 2.75318L8.12765 3.49571C8.5042 2.83476 9.4958 2.83477 9.87235 3.4957L11.1757 2.75318ZM8.24995 6.74998V10.5H9.74995V6.74998H8.24995Z" fill="#137749"/>
</svg>
